<?xml version="1.0" standalone="no"?>
<!DOCTYPE svg PUBLIC "-//W3C//DTD SVG 1.1//EN" "http://www.w3.org/Graphics/SVG/1.1/DTD/svg11.dtd" >
<svg xmlns="http://www.w3.org/2000/svg">
<metadata></metadata>
<defs>
<font id="kohinoordemi_italic" horiz-adv-x="1413" >
<font-face units-per-em="2048" ascent="1536" descent="-512" />
<missing-glyph horiz-adv-x="503" />
<glyph unicode="&#xfb01;" horiz-adv-x="1275" d="M66 -416l190 1370h-188l20 138l193 34l20 150q21 158 127.5 239.5t273.5 81.5q179 0 279 -51l-68 -164q-76 39 -219 39q-96 0 -142.5 -40.5t-57.5 -129.5l-19 -125h287l-25 -172h-286l-189 -1370h-196zM815 186q0 66 35 293l90 647h203l-92 -647q-31 -235 -31 -250 q0 -37 18 -52t64 -15h45l-23 -146q-44 -22 -118 -22q-89 0 -140 50t-51 142zM946 1425q0 64 41.5 107t106.5 43q55 0 89 -33.5t34 -89.5q0 -64 -41.5 -104.5t-108.5 -40.5q-52 0 -86.5 32t-34.5 86z" />
<glyph unicode="&#xfb02;" horiz-adv-x="1286" d="M66 -416l190 1370h-188l20 138l193 34l20 150q21 158 127.5 239.5t273.5 81.5q179 0 279 -51l-4 -10l180 20q12 -47 12 -124q0 -62 -10 -140l-115 -813q-28 -208 -28 -237q0 -80 88 -80q38 0 96 14l-24 -162q-63 -26 -148 -26q-104 0 -160.5 55.5t-56.5 153.5 q0 49 31 282l114 811q11 82 11 129q0 28 -4 82l-50 -119q-76 39 -219 39q-96 0 -142.5 -40.5t-57.5 -129.5l-19 -125h287l-25 -172h-286l-189 -1370h-196z" />
<glyph unicode="&#xfb03;" horiz-adv-x="1959" d="M66 -416l190 1370h-188l20 138l193 34l20 150q21 158 127.5 239.5t273.5 81.5q179 0 279 -51l-68 -164q-76 39 -219 39q-96 0 -142.5 -40.5t-57.5 -129.5l-19 -125h287l-25 -172h-286l-189 -1370h-196zM750 -416l190 1370h-188l20 138l193 34l20 150q21 158 127.5 239.5 t273.5 81.5q179 0 279 -51l-68 -164q-76 39 -219 39q-96 0 -142.5 -40.5t-57.5 -129.5l-19 -125h287l-25 -172h-286l-189 -1370h-196zM1499 186q0 66 35 293l90 647h203l-92 -647q-31 -235 -31 -250q0 -37 18 -52t64 -15h45l-23 -146q-44 -22 -118 -22q-89 0 -140 50 t-51 142zM1630 1425q0 64 41.5 107t106.5 43q55 0 89 -33.5t34 -89.5q0 -64 -41.5 -104.5t-108.5 -40.5q-52 0 -86.5 32t-34.5 86z" />
<glyph unicode="&#xfb04;" horiz-adv-x="1970" d="M66 -416l190 1370h-188l20 138l193 34l20 150q21 158 127.5 239.5t273.5 81.5q179 0 279 -51l-68 -164q-76 39 -219 39q-96 0 -142.5 -40.5t-57.5 -129.5l-19 -125h287l-25 -172h-286l-189 -1370h-196zM750 -416l190 1370h-188l20 138l193 34l20 150q21 158 127.5 239.5 t273.5 81.5q179 0 279 -51l-4 -10l180 20q12 -47 12 -124q0 -62 -10 -140l-114 -813q-29 -215 -29 -237q0 -80 88 -80q38 0 96 14l-24 -162q-63 -26 -148 -26q-104 0 -160.5 55.5t-56.5 153.5q0 49 31 282l114 811q11 82 11 129q0 28 -4 82l-50 -119q-76 39 -219 39 q-96 0 -142.5 -40.5t-57.5 -129.5l-19 -125h287l-25 -172h-286l-189 -1370h-196z" />
<glyph horiz-adv-x="2048" />
<glyph horiz-adv-x="2048" />
<glyph unicode="&#xd;" horiz-adv-x="2048" />
<glyph unicode=" "  horiz-adv-x="503" />
<glyph unicode="&#x09;" horiz-adv-x="503" />
<glyph unicode="&#xa0;" horiz-adv-x="503" />
<glyph unicode="!" horiz-adv-x="589" d="M78 129q0 69 47 116.5t115 47.5q63 0 103 -39.5t40 -101.5q0 -70 -48 -115t-116 -45q-60 0 -100.5 38.5t-40.5 98.5zM199 559l82 907h260l-172 -907h-170z" />
<glyph unicode="&#x22;" horiz-adv-x="784" d="M150 985l30 477h219l-102 -477h-147zM530 985l31 477h219l-102 -477h-148z" />
<glyph unicode="#" horiz-adv-x="1392" d="M43 401l37 158h239l99 315h-236l35 158h246l119 389h178l-119 -389h358l119 389h176l-116 -389h196l-35 -158h-209l-96 -315h201l-35 -158h-211l-121 -401h-178l121 401h-358l-121 -401h-176l118 401h-231zM498 559h360l94 315h-356z" />
<glyph unicode="$" horiz-adv-x="1095" d="M8 170l131 152q51 -55 139 -98.5t199 -43.5q136 0 204.5 62.5t68.5 148.5q0 74 -50.5 124t-175.5 116l-100 53q-116 60 -178 140.5t-62 199.5q0 168 114 272.5t294 122.5l33 273h178l-43 -277q178 -26 274 -133l-135 -137q-40 47 -105 74.5t-147 27.5q-120 0 -189 -59 t-69 -150q0 -78 48 -125.5t151 -101.5l92 -49q139 -73 206.5 -155t67.5 -199q0 -73 -25 -139t-74.5 -122t-132.5 -93.5t-190 -47.5l-32 -280h-178l43 284q-126 15 -217 63t-140 97z" />
<glyph unicode="%" horiz-adv-x="1732" d="M137 963q0 217 97.5 349t275.5 132q135 0 209 -75.5t74 -223.5q0 -217 -97 -350t-274 -133q-135 0 -210 76.5t-75 224.5zM203 150l1245 1239l100 -101l-1245 -1241zM299 944q0 -73 34.5 -111t98.5 -38q95 0 147.5 91t53.5 273q0 75 -35 114.5t-96 39.5q-96 0 -149.5 -93 t-53.5 -276zM940 281q0 218 96.5 350.5t274.5 132.5q134 0 208 -76.5t74 -224.5q0 -218 -96 -350.5t-274 -132.5q-133 0 -208 76.5t-75 224.5zM1102 262q0 -73 34.5 -111t98.5 -38q93 0 146 92t53 272q0 75 -35 114.5t-96 39.5q-95 0 -148 -93t-53 -276z" />
<glyph unicode="&#x26;" horiz-adv-x="1615" d="M72 403q0 167 107 277t282 147q-107 123 -107 275q0 148 104.5 249t272.5 101q183 0 275.5 -97t97.5 -249l258 20h264l-22 -165h-277q10 -65 10 -127q0 -310 -147 -535l444 -453l-4 -20h-223l-334 338q-203 -197 -510 -197q-96 0 -177.5 24t-138.5 65t-97 96.5t-59 119 t-19 131.5zM274 414q0 -118 86.5 -195.5t235.5 -77.5q209 0 358 146l-286 293l-97 100q-131 -11 -214 -76.5t-83 -189.5zM537 1102q0 -90 57 -170.5t231 -257.5l240 -244q96 172 96 377q0 99 -14 154h-211q8 66 8 92q0 116 -57.5 176.5t-153.5 60.5q-94 0 -145 -53.5 t-51 -134.5z" />
<glyph unicode="'" horiz-adv-x="403" d="M150 985l30 477h219l-102 -477h-147z" />
<glyph unicode="(" horiz-adv-x="724" d="M156 432q0 361 153.5 688t423.5 553h221l-2 -18q-97 -80 -177.5 -163.5t-165 -200.5t-142 -241.5t-94.5 -286t-37 -335.5q0 -181 49.5 -358.5t116.5 -301t147 -217.5l-2 -20h-194q-21 22 -52.5 67.5t-75.5 131.5t-80.5 185.5t-62.5 237.5t-26 279z" />
<glyph unicode=")" horiz-adv-x="724" d="M-240 -469l2 20q97 81 177.5 164t165 200t142.5 241.5t95 286t37 335.5q0 180 -49.5 357t-116.5 300.5t-147 217.5v20h196q20 -21 51.5 -66t75.5 -131.5t81 -185.5t63 -237t26 -279q0 -361 -153 -688.5t-424 -554.5h-222z" />
<glyph unicode="*" horiz-adv-x="858" d="M72 1098l51 155l113 -34l141 -68l-19 156v118h166v-118l-20 -158l143 70l111 36l51 -157l-113 -37l-155 -29l110 -117l70 -94l-133 -96l-72 94l-76 137l-75 -137l-70 -96l-131 98l67 97l109 112l-156 31z" />
<glyph unicode="+" horiz-adv-x="1085" d="M45 616l25 170h395l57 402h174l-57 -402h401l-24 -170h-400l-55 -401h-174l55 401h-397z" />
<glyph unicode="," horiz-adv-x="514" d="M-43 -225q94 33 146.5 87t52.5 115q0 18 -6 35t-12.5 28t-23.5 25.5t-25.5 21t-33 22.5t-32.5 22q3 66 45 110t110 44q73 0 117.5 -47t44.5 -125q0 -69 -22.5 -132.5t-57.5 -109.5t-81.5 -84.5t-89 -62.5t-85.5 -39z" />
<glyph unicode="-" horiz-adv-x="702" d="M33 537l22 174h621l-25 -174h-618z" />
<glyph unicode="." horiz-adv-x="514" d="M37 129q0 69 47 116.5t115 47.5q63 0 103 -39.5t40 -101.5q0 -71 -47.5 -115.5t-116.5 -44.5q-60 0 -100.5 38.5t-40.5 98.5z" />
<glyph unicode="/" horiz-adv-x="757" d="M-102 -291l794 1786h178l-796 -1786h-176z" />
<glyph unicode="0" horiz-adv-x="1173" d="M84 471q0 88 6.5 172.5t24 183t45.5 183t74.5 165t107.5 137t148 90.5t192 34q211 0 308 -130t97 -360q0 -88 -6.5 -172.5t-24 -183t-45.5 -183.5t-74.5 -165t-107.5 -137t-148 -91t-192 -34q-107 0 -186.5 35.5t-126.5 102t-69.5 154.5t-22.5 199zM295 475 q0 -315 219 -315q60 0 111 27t88 72t66 108.5t47.5 132.5t30.5 148t17 151t5 145q0 150 -52 230.5t-170 80.5q-69 0 -126 -35t-95.5 -96.5t-67 -137.5t-44 -166.5t-22.5 -174.5t-7 -170z" />
<glyph unicode="1" horiz-adv-x="950" d="M104 1137l463 278h213l-194 -1415h-205l113 819l61 375h-8l-162 -102l-180 -115z" />
<glyph unicode="2" horiz-adv-x="1071" d="M4 178q73 58 285 259.5t258 252.5q108 112 161.5 197.5t53.5 181.5q0 84 -50 135t-134 51q-94 0 -150 -55t-78 -145l-198 59q45 142 156 231t284 89q176 0 277.5 -101t101.5 -254q0 -117 -60.5 -225t-177.5 -236q-30 -34 -119 -121t-127 -118q-10 -8 -109 -97t-116 -102 v-8l299 6h326l-25 -178h-827z" />
<glyph unicode="3" horiz-adv-x="1062" d="M-12 221l192 101q62 -164 244 -164q139 0 205.5 76.5t66.5 205.5q0 183 -270 183h-90l24 174h103q280 0 280 290q0 76 -46 123t-132 47q-181 0 -233 -180l-197 35q40 143 151 232.5t292 89.5q171 0 271.5 -88t100.5 -238q0 -86 -22.5 -155.5t-61.5 -114t-84 -72.5 t-96 -39v-8q92 -13 152.5 -81t60.5 -189q0 -223 -135 -345t-371 -122q-160 0 -265 69t-140 170z" />
<glyph unicode="4" horiz-adv-x="1110" d="M37 502l688 913h250l-127 -907h199l-25 -174h-199l-47 -334h-190l45 334h-559zM262 508h395l52 377l61 319h-8l-178 -266z" />
<glyph unicode="5" horiz-adv-x="1118" d="M49 242l207 88q63 -174 238 -174q128 0 203 95t75 263q0 99 -54 149t-143 50q-130 0 -221 -88l-184 73l162 717h708l-26 -176h-531l-98 -428l10 -4q39 32 99.5 51t126.5 19q169 0 262.5 -96.5t93.5 -256.5q0 -249 -134.5 -395.5t-373.5 -146.5q-96 0 -173 25t-125.5 66 t-77 82.5t-44.5 86.5z" />
<glyph unicode="6" horiz-adv-x="1146" d="M106 414q0 137 38 271t99.5 242.5t143 205t166 166t170.5 116.5h291v-20q-402 -212 -574 -514l6 -4q87 43 203 43q162 0 262.5 -98t100.5 -273q0 -271 -140.5 -420t-373.5 -149q-196 0 -294 118.5t-98 315.5zM307 408q0 -132 59.5 -193t157.5 -61q131 0 207 99.5 t76 289.5q0 96 -54 151.5t-159 55.5q-118 0 -240 -60q-22 -55 -34.5 -135.5t-12.5 -146.5z" />
<glyph unicode="7" horiz-adv-x="987" d="M104 1227l25 188h834l18 -198l-336 -510q-111 -170 -178.5 -338t-93.5 -369h-215q27 203 101 385.5t192 380.5l143 229l164 226v8l-242 -2h-412z" />
<glyph unicode="8" horiz-adv-x="1212" d="M96 336q0 89 26 159.5t71 114.5t97 70t113 37v8q-70 20 -122 95.5t-52 183.5q0 213 130.5 322.5t345.5 109.5q186 0 289.5 -88t103.5 -248q0 -83 -23 -149.5t-62.5 -109t-82 -68.5t-92.5 -40l-2 -8q38 -8 73 -27t67.5 -51.5t51.5 -86t19 -120.5q0 -228 -142 -344 t-385 -116q-202 0 -313 95t-111 261zM303 350q0 -93 60 -148t182 -55q144 0 219.5 72t75.5 215q0 199 -244 199q-149 0 -221 -76.5t-72 -206.5zM430 995q0 -92 52.5 -143t152.5 -51q119 0 189.5 71.5t70.5 212.5q0 82 -53 132.5t-150 50.5q-135 0 -198.5 -71.5t-63.5 -201.5 z" />
<glyph unicode="9" horiz-adv-x="1138" d="M127 0l2 23q414 219 578 522l-5 4q-80 -35 -190 -35q-168 0 -271.5 99t-103.5 280q0 257 140.5 400t365.5 143q198 0 298.5 -111.5t100.5 -314.5q0 -137 -37 -271.5t-98 -243.5t-142.5 -206.5t-167 -168t-173.5 -120.5h-297zM346 895q0 -97 56 -152t159 -55q53 0 99 9 t69 18t57 26q24 55 38 130t14 139q0 129 -59.5 190.5t-155.5 61.5q-129 0 -203 -90.5t-74 -276.5z" />
<glyph unicode=":" horiz-adv-x="509" d="M43 137q0 69 47.5 117.5t114.5 48.5q63 0 103 -40t40 -103q0 -69 -47.5 -114.5t-116.5 -45.5q-60 0 -100.5 39.5t-40.5 97.5zM160 944q0 69 46.5 116.5t115.5 47.5q62 0 101.5 -40t39.5 -101q0 -71 -47.5 -115.5t-116.5 -44.5q-60 0 -99.5 38.5t-39.5 98.5z" />
<glyph unicode=";" horiz-adv-x="514" d="M-35 -225q95 33 148 87t53 115q0 18 -6 35t-12.5 28t-23.5 25.5t-25.5 21t-33 22.5t-32.5 22q3 65 44.5 109.5t108.5 44.5q75 0 119.5 -47t44.5 -125q0 -69 -22.5 -132.5t-57.5 -109.5t-81.5 -84.5t-89 -62.5t-85.5 -39zM143 944q0 69 47.5 116.5t116.5 47.5 q62 0 102 -40t40 -101q0 -71 -47.5 -115.5t-116.5 -44.5q-61 0 -101.5 38.5t-40.5 98.5z" />
<glyph unicode="&#x3c;" horiz-adv-x="1122" d="M53 625l23 170l1034 438l-29 -217l-479 -195l-323 -112v-9l288 -118l424 -195l-26 -199z" />
<glyph unicode="=" horiz-adv-x="1122" d="M31 383l24 172h971l-25 -172h-970zM96 848l23 172h971l-21 -172h-973z" />
<glyph unicode="&#x3e;" horiz-adv-x="1122" d="M23 188l30 215l479 195l322 115l2 8l-289 117l-426 196l29 199l909 -436l-22 -172z" />
<glyph unicode="?" horiz-adv-x="927" d="M121 1335q139 125 393 125q177 0 273 -87.5t96 -229.5q0 -116 -53 -214t-173 -192q-74 -61 -148.5 -122.5t-111 -92t-65.5 -55.5h-10q-37 14 -60.5 44t-23.5 67q0 22 8.5 43t20.5 37t38 39t47.5 39t62.5 47.5t70 54.5q64 52 99.5 88t61.5 87.5t26 110.5q0 72 -48 115 t-128 43q-84 0 -151 -33.5t-107 -79.5zM215 129q0 62 41 106t104 44q59 0 99.5 -39.5t40.5 -98.5q0 -64 -40.5 -105.5t-107.5 -41.5q-58 0 -97.5 38t-39.5 97z" />
<glyph unicode="@" horiz-adv-x="1916" d="M106 342q0 211 78.5 400t212 325.5t320.5 216.5t395 80q167 0 301 -45t221.5 -126t134 -192.5t46.5 -244.5q0 -182 -65.5 -332.5t-186 -240t-271.5 -89.5q-157 0 -196 115h-11q-83 -111 -241 -111q-144 0 -214.5 79t-70.5 204q0 140 46 253t122.5 183t170.5 107t196 37 q174 0 284 -68l-100 -410q-29 -143 -29 -159q0 -74 76 -74q94 0 168 78t110.5 190.5t36.5 231.5q0 216 -140.5 333t-403.5 117q-167 0 -318 -70t-258.5 -186t-171 -271.5t-63.5 -320.5q0 -245 138.5 -369t405.5 -124q99 0 199 27.5t170 70.5l64 -145q-191 -115 -461 -115 q-166 0 -297.5 46.5t-218.5 131.5t-133 203.5t-46 263.5zM737 403q0 -157 142 -157q65 0 116 30t82 76q13 64 17 78l84 361q-44 14 -103 14q-155 0 -246.5 -114.5t-91.5 -287.5z" />
<glyph unicode="A" horiz-adv-x="1263" d="M-70 0l658 1436h307l256 -1436h-211l-63 393h-553l-174 -393h-220zM403 571h445l-70 428l-47 297h-8l-127 -295z" />
<glyph unicode="B" horiz-adv-x="1257" d="M86 0l201 1436h458q174 0 276.5 -80t102.5 -240q0 -82 -22 -149t-59.5 -110.5t-80.5 -71t-92 -42.5l-2 -8q103 -10 168.5 -79t65.5 -197q0 -74 -17 -139t-58 -124.5t-103 -102t-157.5 -68t-215.5 -25.5h-465zM313 176h262q157 0 235.5 72t78.5 207q0 104 -62.5 143 t-185.5 39h-264zM403 815h226q133 0 209.5 66.5t76.5 210.5q0 168 -208 168h-242z" />
<glyph unicode="C" horiz-adv-x="1153" d="M109 543q0 117 16 226t48.5 212.5t87 189t126.5 150t172 100t219 35.5q301 0 410 -162l-152 -129q-80 109 -264 109q-97 0 -177 -43.5t-142 -130.5t-96.5 -230t-34.5 -331q0 -186 84.5 -282.5t242.5 -96.5q173 0 275 106l110 -153q-150 -133 -413 -133q-253 0 -382.5 151 t-129.5 412z" />
<glyph unicode="D" horiz-adv-x="1347" d="M86 0l201 1436h366q586 0 586 -549q0 -100 -11 -192.5t-36.5 -182.5t-64.5 -165.5t-97.5 -140.5t-131.5 -110t-171 -70.5t-213 -25.5h-428zM315 178h183q266 0 395 183t129 520q0 197 -94 286.5t-275 89.5h-186z" />
<glyph unicode="E" horiz-adv-x="1099" d="M86 0l201 1436h786l-26 -179h-580l-64 -440h508l-24 -178h-508l-64 -461h609l-23 -178h-815z" />
<glyph unicode="F" horiz-adv-x="1048" d="M86 0l201 1436h782l-25 -179h-575l-68 -477h504l-24 -178h-504l-84 -602h-207z" />
<glyph unicode="G" horiz-adv-x="1335" d="M109 543q0 272 82 477t242.5 320.5t381.5 115.5q166 0 269.5 -49.5t154.5 -118.5l-147 -131q-104 119 -279 119q-159 0 -270.5 -92.5t-165 -254.5t-53.5 -382q0 -198 93 -293.5t263 -95.5q152 0 221 49l74 526h207l-90 -639q-148 -114 -455 -114q-246 0 -387 145.5 t-141 417.5z" />
<glyph unicode="H" horiz-adv-x="1431" d="M86 0l201 1436h207l-88 -623h645l86 623h206l-200 -1436h-207l90 635h-645l-88 -635h-207z" />
<glyph unicode="I" horiz-adv-x="612" d="M100 0l201 1436h207l-201 -1436h-207z" />
<glyph unicode="J" horiz-adv-x="776" d="M-121 43l74 174q86 -53 197 -53q157 0 178 162l155 1110h207l-158 -1125q-48 -329 -391 -329q-90 0 -158.5 18t-103.5 43z" />
<glyph unicode="K" horiz-adv-x="1169" d="M86 0l201 1436h207l-201 -1436h-207zM434 741l2 9l559 686h246l-582 -699l414 -737h-235z" />
<glyph unicode="L" horiz-adv-x="1019" d="M86 0l201 1436h207l-179 -1258h592l-24 -178h-797z" />
<glyph unicode="M" horiz-adv-x="1806" d="M86 0l201 1436h297l276 -1033h10l529 1033h319l-200 -1436h-199l113 809l65 381h-10l-535 -1000h-223l-176 633l-98 389h-11l-47 -405l-112 -807h-199z" />
<glyph unicode="N" horiz-adv-x="1445" d="M86 0l201 1436h266l446 -1170h9l47 398l108 772h197l-201 -1436h-262l-455 1190h-8l-43 -422l-108 -768h-197z" />
<glyph unicode="O" d="M109 526q0 95 10.5 187t34.5 185.5t60.5 174.5t92 152t125 122t163 80t202.5 29q115 0 206.5 -31.5t159 -96.5t104 -171.5t36.5 -249.5q0 -136 -21 -262.5t-72 -249.5t-128 -213.5t-197.5 -146t-272.5 -55.5q-236 0 -369.5 133t-133.5 413zM322 522q0 -196 80.5 -279 t226.5 -83q89 0 161.5 33.5t121.5 93t84 132.5t54.5 161t28 169.5t8.5 165.5q0 195 -80 278t-227 83q-89 0 -161.5 -33.5t-121.5 -92.5t-84 -132t-54.5 -161t-28 -169.5t-8.5 -165.5z" />
<glyph unicode="P" horiz-adv-x="1157" d="M86 0l201 1436h415q441 0 441 -369q0 -240 -140 -378t-417 -138h-217l-76 -551h-207zM393 727h201q177 0 255.5 86.5t78.5 243.5q0 105 -61.5 151.5t-200.5 46.5h-199z" />
<glyph unicode="Q" d="M109 526q0 95 10.5 187t34.5 185.5t60.5 174.5t92 152t125 122t163 80t202.5 29q115 0 206.5 -31.5t159 -96.5t104 -171.5t36.5 -249.5t-25 -276t-75.5 -252t-136.5 -208.5t-198 -129.5l-2 -8l377 -248l-223 -117l-385 318q-10 -2 -47 -2q-227 5 -353 136t-126 406z M322 522q0 -196 80.5 -279t226.5 -83q89 0 161.5 33.5t121.5 93t84 132.5t54.5 161t28 169.5t8.5 165.5q0 195 -80 278t-227 83q-89 0 -161.5 -33.5t-121.5 -92.5t-84 -132t-54.5 -161t-28 -169.5t-8.5 -165.5z" />
<glyph unicode="R" horiz-adv-x="1208" d="M86 0l201 1436h395q203 0 314.5 -93t111.5 -266q0 -93 -22 -168.5t-57 -124.5t-84 -83.5t-98.5 -52t-105.5 -23.5v-9q43 -24 72 -62.5t66 -125.5l188 -428h-225l-191 461q-27 65 -70.5 91t-115.5 26h-94l-80 -578h-205zM393 750h170q166 0 249 74t83 245q0 98 -62 143 t-194 45h-174z" />
<glyph unicode="S" horiz-adv-x="1114" d="M-10 154l135 155q53 -57 144 -102t206 -45q143 0 214 64.5t71 156.5q0 41 -13 72.5t-44.5 61t-70.5 54.5t-106 60l-104 55q-122 63 -187 147t-65 207q0 127 67 223t178.5 144.5t248.5 48.5q259 0 393 -147l-142 -144q-91 109 -262 109q-125 0 -196.5 -62t-71.5 -155 q0 -81 50.5 -132.5t156.5 -105.5l94 -51q145 -76 216 -162t71 -207q0 -82 -30 -155t-90 -133t-161 -95.5t-231 -35.5q-90 0 -172 18.5t-140 47.5t-96.5 55.5t-62.5 52.5z" />
<glyph unicode="T" horiz-adv-x="980" d="M88 1257l25 179h956l-27 -179h-374l-174 -1257h-207l176 1257h-375z" />
<glyph unicode="U" d="M150 393q0 80 53 449l82 594h207l-84 -586q-3 -25 -16.5 -118t-18.5 -131t-11 -97t-6 -96q0 -246 273 -246q159 0 248.5 80t113.5 250l131 944h207l-133 -936q-36 -268 -183.5 -394t-402.5 -126q-222 0 -341 110.5t-119 302.5z" />
<glyph unicode="V" horiz-adv-x="1222" d="M88 1436h215l154 -856l65 -424h6l177 424l387 856h227l-670 -1436h-295z" />
<glyph unicode="W" horiz-adv-x="1878" d="M94 1436h209l96 -846l31 -381h8l127 375l326 852h278l93 -858l24 -394h8l136 398l333 854h213l-569 -1436h-277l-94 864l-26 367h-6l-132 -367l-335 -864h-277z" />
<glyph unicode="X" horiz-adv-x="1193" d="M-88 0l565 735l-340 701h232l239 -529h8l379 529h252l-532 -697l364 -739h-229l-266 565h-11l-411 -565h-250z" />
<glyph unicode="Y" horiz-adv-x="1097" d="M70 1436h219l162 -471l81 -279h9l159 275l297 475h234l-608 -934l-70 -502h-207l70 502z" />
<glyph unicode="Z" horiz-adv-x="1077" d="M-18 176l837 1069v8h-618l26 183h840l14 -176l-833 -1070v-8h688l-25 -182h-909z" />
<glyph unicode="[" horiz-adv-x="673" d="M84 -467l301 2138h442l-20 -145h-260l-260 -1848h260l-21 -145h-442z" />
<glyph unicode="\" horiz-adv-x="737" d="M133 1495h174l391 -1786h-172z" />
<glyph unicode="]" horiz-adv-x="673" d="M-141 -467l20 145h260l260 1848h-260l21 145h442l-301 -2138h-442z" />
<glyph unicode="^" horiz-adv-x="1085" d="M66 616l477 820h227l248 -818h-195l-104 369l-74 295h-8l-156 -297l-209 -369h-206z" />
<glyph unicode="_" horiz-adv-x="1038" d="M-111 -246l23 162h1014l-23 -162h-1014z" />
<glyph unicode="`" horiz-adv-x="1081" d="M317 1534l195 111l315 -275l-127 -90z" />
<glyph unicode="a" horiz-adv-x="1183" d="M94 389q0 158 40.5 293.5t117 237t195.5 159.5t268 58q116 0 205.5 -19t138.5 -45q-77 -527 -78 -534q-35 -241 -35 -295q0 -44 20 -64t66 -20q33 0 39 2l-20 -146q-49 -24 -115 -24q-147 0 -174 141h-8q-40 -59 -122 -105t-196 -46q-158 0 -250 104t-92 303zM297 399 q0 -252 197 -252q85 0 158 49t108 117l90 635q-52 23 -145 23q-180 0 -294 -150.5t-114 -421.5z" />
<glyph unicode="b" horiz-adv-x="1173" d="M90 47l176 1243q10 75 10 129q0 57 -10 115l197 22q14 -46 14 -124q0 -62 -10 -140l-37 -270h8q34 43 104.5 79t157.5 36q164 0 271.5 -107.5t107.5 -314.5q0 -126 -24.5 -235.5t-76 -202t-127 -158t-183 -102.5t-238.5 -37q-213 0 -340 67zM311 176q53 -24 150 -24 q182 0 297.5 142.5t115.5 407.5q0 140 -62.5 204.5t-162.5 64.5q-106 0 -174 -71t-86 -189z" />
<glyph unicode="c" horiz-adv-x="985" d="M94 426q0 147 33 274t98.5 228.5t175 160t252.5 58.5q130 0 213.5 -39.5t124.5 -101.5l-145 -127q-65 96 -199 96q-158 0 -251 -138t-93 -407q0 -276 242 -276q137 0 227 94l113 -127q-15 -19 -40 -39t-69 -44.5t-113.5 -40t-152.5 -15.5q-201 0 -308.5 116t-107.5 328z " />
<glyph unicode="d" horiz-adv-x="1204" d="M94 387q0 119 23.5 227.5t73 203t121.5 163.5t176 109t229 40q94 0 168 -18l24 178q7 56 11 129q0 58 -13 115l199 22q14 -55 14 -124q0 -62 -10 -140l-106 -751q-41 -259 -41 -310q0 -38 20.5 -55.5t67.5 -17.5q33 0 39 2l-23 -146q-50 -24 -121 -24q-152 0 -174 137h-8 q-47 -69 -130 -109.5t-188 -40.5q-162 0 -257 105t-95 305zM299 393q0 -248 203 -248q92 0 165 52t105 116l90 617q-63 28 -157 28q-192 0 -299 -145t-107 -420z" />
<glyph unicode="e" horiz-adv-x="1146" d="M94 453q0 169 42 303t116 218.5t173 128.5t216 44q200 0 306 -105t106 -280q0 -133 -47 -266h-715q-2 -25 -2 -60q0 -135 69.5 -210.5t212.5 -75.5q106 0 181.5 33t113.5 69l90 -143q-152 -125 -413 -125q-223 0 -336 122.5t-113 346.5zM313 649h531q16 66 16 119 q0 213 -221 213q-128 0 -211.5 -78.5t-114.5 -253.5z" />
<glyph unicode="f" horiz-adv-x="684" d="M66 -416l190 1370h-188l20 138l193 34l20 150q21 158 127.5 239.5t273.5 81.5q179 0 279 -51l-68 -164q-76 39 -219 39q-96 0 -142.5 -40.5t-57.5 -129.5l-19 -125h287l-25 -172h-286l-189 -1370h-196z" />
<glyph unicode="g" horiz-adv-x="1173" d="M8 -309l125 155q39 -41 115 -76.5t176 -35.5q146 0 219.5 64t95.5 212l19 121h-8q-47 -57 -122.5 -87t-166.5 -30q-164 0 -265.5 105.5t-101.5 310.5q0 150 42.5 280.5t121 227.5t198 153t265.5 56q135 0 225.5 -24.5t134.5 -53.5l-147 -1061q-63 -446 -524 -446 q-147 0 -249.5 42t-152.5 87zM303 446q0 -268 221 -268q113 0 185.5 68t89.5 192l73 516q-61 27 -151 27q-187 0 -302.5 -139.5t-115.5 -395.5z" />
<glyph unicode="h" horiz-adv-x="1202" d="M84 0l180 1290q10 56 10 129q0 71 -10 115l199 22q12 -47 12 -124q0 -62 -10 -140l-43 -317h8q45 63 130.5 114.5t201.5 51.5q148 0 231.5 -75.5t83.5 -207.5q0 -32 -5 -82.5t-9.5 -83.5t-13 -91.5t-9.5 -63.5l-75 -537h-203l76 539q34 229 34 282q0 72 -41.5 110 t-123.5 38q-125 0 -216.5 -84t-111.5 -228l-92 -657h-203z" />
<glyph unicode="i" horiz-adv-x="591" d="M131 186q0 66 35 293l90 647h203l-92 -647q-31 -235 -31 -250q0 -37 18 -52t64 -15h45l-23 -146q-44 -22 -118 -22q-89 0 -140 50t-51 142zM262 1425q0 64 41.5 107t106.5 43q55 0 88.5 -33.5t33.5 -89.5q0 -64 -41 -104.5t-108 -40.5q-52 0 -86.5 32t-34.5 86z" />
<glyph unicode="j" horiz-adv-x="540" d="M-180 -262q48 20 81 38.5t70.5 50.5t63 70.5t46.5 98t32 135.5l137 995h203l-140 -1001q-61 -431 -409 -553zM256 1425q0 64 41 107t106 43q55 0 89 -33.5t34 -89.5q0 -64 -41 -104.5t-108 -40.5q-51 0 -86 32t-35 86z" />
<glyph unicode="k" horiz-adv-x="1054" d="M80 0l180 1290q10 78 10 129q0 71 -10 115l201 22q14 -55 14 -124q0 -46 -12 -140l-182 -1292h-201zM385 612v9l446 505h234v-8l-459 -512v-8l197 -365q25 -43 49.5 -60t73.5 -17h53l-21 -148q-38 -20 -108 -20q-75 0 -128.5 39.5t-96.5 126.5z" />
<glyph unicode="l" horiz-adv-x="602" d="M127 197q0 49 31 282l114 811q11 82 11 129q0 67 -11 115l201 22q12 -47 12 -124q0 -62 -10 -140l-115 -813q-28 -208 -28 -237q0 -80 88 -80q38 0 96 14l-24 -162q-63 -26 -148 -26q-104 0 -160.5 55.5t-56.5 153.5z" />
<glyph unicode="m" horiz-adv-x="1804" d="M84 0l158 1126h155l31 -141h8q36 64 115 114t190 50q119 0 192 -50t93 -143h8q44 78 132 135.5t214 57.5q139 0 218 -74t79 -211q0 -67 -35 -319l-75 -545h-203l76 547q30 202 30 287q0 70 -38.5 106.5t-112.5 36.5q-257 0 -305 -348l-86 -629h-203l76 547 q5 38 12.5 92.5t12 83.5t7.5 59t3 47q0 71 -39.5 109.5t-114.5 38.5q-125 0 -204 -87t-101 -243l-90 -647h-203z" />
<glyph unicode="n" horiz-adv-x="1214" d="M84 0l158 1126h155l31 -141h8q41 64 126 114t202 50q152 0 236.5 -76.5t84.5 -218.5q0 -77 -34 -309l-76 -545h-203l78 545q31 225 31 276q0 77 -43.5 116.5t-126.5 39.5q-132 0 -222 -82.5t-110 -228.5l-92 -666h-203z" />
<glyph unicode="o" horiz-adv-x="1171" d="M94 418q0 155 32 284t96 230t171 158t248 57q219 0 327.5 -113.5t108.5 -324.5q0 -154 -32 -283.5t-96 -231.5t-171 -159.5t-248 -57.5q-217 0 -326.5 116.5t-109.5 324.5zM303 416q0 -137 60.5 -205t175.5 -68q79 0 139.5 38.5t96 97t58 137.5t30 150t7.5 145 q0 270 -239 270q-78 0 -138 -38t-95 -96.5t-57.5 -137t-30 -149t-7.5 -144.5z" />
<glyph unicode="p" horiz-adv-x="1200" d="M57 -397q72 512 142 1000q39 275 39 302q0 37 -17.5 52.5t-62.5 15.5h-52l21 145q53 23 125 23q160 0 186 -144h8q37 62 113 106t182 44q167 0 266 -107.5t99 -306.5q0 -222 -65.5 -386t-201 -257.5t-327.5 -93.5q-104 0 -195 27l-59 -420h-201zM344 201q30 -16 77 -24.5 t83 -8.5q185 0 288.5 140t106.5 407q0 133 -56.5 197.5t-150.5 64.5q-115 0 -189.5 -77.5t-94.5 -225.5z" />
<glyph unicode="q" horiz-adv-x="1169" d="M94 401q0 159 40.5 293.5t117.5 235.5t197 158t272 57q230 0 356 -68l-203 -1474h-198l69 495h-8q-95 -114 -278 -114q-166 0 -265.5 105.5t-99.5 311.5zM299 426q0 -276 217 -276q113 0 184 68t88 200l74 536q-15 8 -58.5 16.5t-82.5 8.5q-188 0 -305 -144.5 t-117 -408.5z" />
<glyph unicode="r" horiz-adv-x="753" d="M106 973l21 145q54 23 129 23q153 0 174 -142h8q47 71 124.5 109.5t170.5 38.5q57 0 127 -19l-31 -210q-72 26 -147 26q-232 0 -268 -231l-99 -713h-200l106 770q17 116 17 133q0 38 -17.5 54t-60.5 16h-54z" />
<glyph unicode="s" horiz-adv-x="966" d="M-2 147l127 142q40 -51 124.5 -96.5t190.5 -45.5t157.5 46t51.5 112q0 55 -37 89.5t-131 74.5l-104 47q-114 49 -172 120.5t-58 174.5q0 143 111.5 238.5t306.5 95.5q132 0 224.5 -39t134.5 -90l-127 -139q-36 39 -101 68.5t-145 29.5q-99 0 -152 -44t-53 -110 q0 -56 37.5 -93t126.5 -73l88 -39q122 -52 187 -120t65 -179q0 -45 -13.5 -90t-45.5 -89.5t-79 -78.5t-121.5 -55.5t-166.5 -21.5q-84 0 -162 19t-130.5 48t-85.5 54t-48 44z" />
<glyph unicode="t" horiz-adv-x="768" d="M94 956l19 138l172 36l69 269h164l-39 -273h264l-24 -170h-264l-52 -358q-43 -286 -43 -328q0 -57 29.5 -83.5t89.5 -26.5q77 0 135 33l43 -154q-79 -49 -227 -49q-127 0 -198.5 67t-71.5 189q0 38 6.5 92t20.5 148.5t18 123.5l49 346h-160z" />
<glyph unicode="u" horiz-adv-x="1247" d="M129 274q0 30 16 162l62 434q10 75 10 129q0 55 -10 117l199 19q14 -45 14 -123q0 -65 -10 -140l-60 -417q-2 -21 -6 -49.5t-6 -49t-2 -41.5q0 -172 190 -172q121 0 201 78t100 219l97 686h202l-104 -747q-2 -15 -11.5 -73.5t-9.5 -76.5q0 -36 20 -53.5t69 -17.5 q32 0 40 2l-20 -144q-46 -24 -123 -24q-83 0 -127.5 39t-52.5 106h-8q-19 -28 -45.5 -53t-67.5 -51t-100.5 -41t-130.5 -15q-157 0 -241.5 78.5t-84.5 218.5z" />
<glyph unicode="v" horiz-adv-x="978" d="M47 1126h211l121 -639l37 -313h8l123 313l127 271q82 175 82 315q0 21 -4 53h209q4 -12 4 -49q0 -158 -95 -350l-356 -727h-231z" />
<glyph unicode="w" horiz-adv-x="1560" d="M41 1126h199l102 -583l43 -365h6l133 350l185 463l-19 135h201l119 -612l41 -346h8l141 391q80 200 82 207q80 207 80 307q0 21 -4 53h190q4 -12 4 -49q0 -137 -88 -352l-301 -725h-260l-69 451l-37 309h-9l-114 -314l-178 -446h-258z" />
<glyph unicode="x" horiz-adv-x="1007" d="M-55 0l442 584l-264 542h219l176 -391h8l262 391h248l-411 -544l274 -582h-221l-186 426h-9l-290 -426h-248z" />
<glyph unicode="y" horiz-adv-x="1185" d="M-12 -307l131 155q41 -47 116 -80.5t175 -33.5q150 0 231.5 65.5t101.5 204.5l25 152h-8q-14 -19 -26 -33t-40 -36.5t-59.5 -37.5t-82 -26t-108.5 -11q-139 0 -218 79.5t-79 211.5q0 72 39 318t39 284t-18.5 53t-65.5 15h-51l21 145q53 23 131 23q88 0 138 -50.5 t50 -142.5q0 -49 -39 -294t-39 -308q0 -85 39.5 -128.5t128.5 -43.5q119 0 195 76.5t96 220.5l90 655h203l-160 -1118q-32 -226 -171 -336t-374 -110q-154 0 -256 38t-155 93z" />
<glyph unicode="z" horiz-adv-x="948" d="M18 182l535 588q57 61 84 100.5t35 85.5h-500l23 170h639l45 -170q-30 -148 -152 -278l-459 -500v-8h545l-25 -170h-741z" />
<glyph unicode="{" horiz-adv-x="722" d="M139 526l27 176q36 3 65 11.5t50.5 20.5t37.5 32.5t27 41t18.5 52.5t11.5 59.5t7 71t4.5 78.5t4 89t5.5 97q9 209 89 316.5t253 107.5q75 0 127 -22l-45 -139q-46 12 -88 12q-86 0 -119 -69.5t-36 -217.5q-3 -43 -6.5 -114t-6.5 -112t-10.5 -94.5t-19.5 -97.5 q-23 -85 -72.5 -133t-138.5 -74v-8q155 -50 155 -231q0 -80 -60.5 -298t-60.5 -292q0 -115 109 -115q45 0 92 13l4 -142q-53 -20 -127 -20q-126 0 -192 68t-66 186q0 76 30 199.5t59.5 236t29.5 160.5q0 70 -35.5 107.5t-122.5 43.5z" />
<glyph unicode="|" horiz-adv-x="557" d="M49 -526l316 2257h149l-317 -2257h-148z" />
<glyph unicode="}" horiz-adv-x="722" d="M-139 -453l43 140q54 -13 90 -13q86 0 119.5 69.5t36.5 217.5q3 43 6.5 113.5t6.5 111.5t10.5 95t19.5 98q23 85 72 133t138 74v8q-155 47 -155 229q0 81 60.5 299.5t60.5 292.5q0 115 -109 115q-48 0 -92 -12l-6 139q54 22 129 22q126 0 192 -68t66 -186 q0 -76 -29.5 -200t-59.5 -236.5t-30 -159.5q0 -70 35.5 -108t120.5 -45l-25 -174q-36 -3 -65 -11.5t-50.5 -20.5t-37.5 -32.5t-27 -41t-18.5 -52.5t-11.5 -59.5t-7 -71t-4.5 -78.5t-4 -89t-5.5 -97q-9 -210 -89 -317t-253 -107q-78 0 -127 22z" />
<glyph unicode="~" horiz-adv-x="1081" d="M18 498q0 141 72.5 227t200.5 86q62 0 135 -23.5t128 -52.5t120 -52.5t114 -23.5q61 0 89 44.5t22 119.5q7 -1 70 -9.5t96 -14.5q-6 -153 -75.5 -233.5t-194.5 -80.5q-64 0 -137.5 23.5t-128.5 51.5t-120.5 51.5t-115.5 23.5q-61 0 -88 -45.5t-21 -116.5q-75 7 -166 25z " />
<glyph unicode="&#xa1;" horiz-adv-x="589" d="M35 -326l172 908h170l-82 -908h-260zM193 989q0 70 47.5 115t115.5 45q61 0 101.5 -38.5t40.5 -98.5q0 -69 -47 -116.5t-115 -47.5q-63 0 -103 39.5t-40 101.5z" />
<glyph unicode="&#xa2;" horiz-adv-x="970" d="M92 426q0 117 20 221.5t63.5 196.5t107.5 159t157.5 105.5t208.5 38.5q91 0 180 -29l134 264h129l-160 -315q36 -29 57 -66l-149 -118l-363 -723q27 -6 64 -6q137 0 227 94l115 -127q-17 -20 -41 -39t-68.5 -44t-114.5 -40.5t-153 -15.5q-57 0 -115 10l-131 -258h-127 l150 299q-94 51 -142.5 151.5t-48.5 241.5zM301 430q0 -158 64 -219h8l377 745q-49 19 -107 19q-158 0 -250 -137.5t-92 -407.5z" />
<glyph unicode="&#xa3;" horiz-adv-x="1146" d="M33 168q76 35 121 96t67 170l41 193h-156l25 166h166l55 243q45 199 164.5 299.5t296.5 100.5q247 0 346 -152l-151 -123q-23 41 -72.5 71t-128.5 30q-204 0 -256 -236l-49 -233h416l-25 -166h-428l-41 -199q-37 -182 -148 -244v-8h711l-22 -176h-920z" />
<glyph unicode="&#xa4;" horiz-adv-x="1204" d="M61 313l136 119q-39 74 -39 172q0 186 104 318l-96 110l143 119l94 -111q119 68 263 68q130 0 233 -70l129 113l117 -135l-127 -111q43 -76 43 -176q0 -185 -109 -323l97 -111l-142 -117l-96 111q-112 -62 -256 -62t-242 70l-135 -117zM322 627q0 -108 66 -179t187 -71 q143 0 231.5 93.5t88.5 236.5q0 108 -65.5 179.5t-186.5 71.5q-143 0 -232 -95.5t-89 -235.5z" />
<glyph unicode="&#xa5;" horiz-adv-x="1112" d="M39 500l24 170h308l-254 751h221l137 -442l78 -307h8l164 309l264 440h232l-467 -751h305l-23 -170h-393l-70 -500h-206l69 500h-397z" />
<glyph unicode="&#xa6;" horiz-adv-x="573" d="M82 -336l98 709h150l-99 -709h-149zM246 819l98 709h150l-101 -709h-147z" />
<glyph unicode="&#xa7;" horiz-adv-x="1222" d="M178 915q0 113 44 220t121.5 191t195 134.5t254.5 50.5q93 0 163 -18l-34 -147q-64 22 -150 22q-129 0 -204.5 -60.5t-75.5 -156.5q0 -59 32.5 -116t84.5 -105.5t114.5 -98.5t125.5 -105.5t115 -116t84.5 -140.5t32.5 -168q0 -112 -44.5 -216t-125 -184.5t-202 -128.5 t-265.5 -48q-101 0 -184 22l33 152q84 -31 168 -31q98 0 166 33q65 30 97 81.5t32 108.5q0 58 -32 112t-83 99t-112.5 91t-123 99t-112.5 111.5t-83 139.5t-32 173zM319 920q0 -78 31 -145t81 -116.5t110 -95.5t120 -92.5t110 -97t81 -119t31 -148.5h10q51 76 51 187 q0 77 -30 144t-79 117.5t-108 97.5t-120 93.5t-112 96.5t-86.5 116t-41.5 142h-9q-39 -84 -39 -180z" />
<glyph unicode="&#xa8;" horiz-adv-x="1081" d="M258 1448q0 58 35.5 94.5t93.5 36.5q50 0 81.5 -30.5t31.5 -82.5q0 -57 -37 -92t-94 -35q-47 0 -79 31t-32 78zM684 1448q0 57 36 94t93 37q50 0 81.5 -30.5t31.5 -82.5q0 -56 -36.5 -91.5t-92.5 -35.5q-49 0 -81 31t-32 78z" />
<glyph unicode="&#xa9;" horiz-adv-x="1728" d="M111 612q0 171 64 324t175.5 265t270.5 177.5t340 65.5q198 0 350.5 -81.5t234.5 -226.5t82 -329q0 -226 -107.5 -416t-303.5 -303t-439 -113q-301 0 -484 178t-183 459zM272 621q0 -228 139.5 -363t376.5 -135q199 0 354 89.5t238.5 243t83.5 343.5q0 227 -138.5 363 t-375.5 136q-195 0 -350.5 -89t-241.5 -243.5t-86 -344.5zM535 614q0 104 24.5 195t72.5 162.5t126 113t178 41.5q179 0 240 -104l-105 -96q-47 71 -139 71q-107 0 -174.5 -95.5t-67.5 -283.5t166 -188q94 0 160 66l84 -99q-104 -98 -273 -98q-141 0 -216.5 82.5 t-75.5 232.5z" />
<glyph unicode="&#xab;" horiz-adv-x="1105" d="M109 571l403 445l115 -98l-301 -365l206 -363l-131 -73zM543 571l395 443l115 -96l-293 -365l192 -363l-131 -73z" />
<glyph unicode="&#xac;" horiz-adv-x="1169" d="M76 754l22 159h1012l-74 -536h-166l52 377h-846z" />
<glyph unicode="&#xad;" horiz-adv-x="702" d="M33 537l22 174h621l-25 -174h-618z" />
<glyph unicode="&#xae;" horiz-adv-x="1017" d="M82 963q0 206 142.5 348.5t355.5 142.5q177 0 285 -106.5t108 -272.5q0 -98 -37.5 -187t-102 -154.5t-158 -104.5t-200.5 -39q-176 0 -284.5 105t-108.5 268zM184 969q0 -131 80.5 -208t216.5 -77q172 0 279.5 110.5t107.5 274.5q0 133 -79 211t-216 78q-169 0 -279 -111 t-110 -278zM344 791l68 471h141q149 0 149 -123q0 -67 -32.5 -102t-81.5 -42v-8q26 -14 41 -51l67 -145h-104l-66 149q-13 31 -43 31h-16l-25 -180h-98zM477 1049h35q48 0 70 19.5t22 68.5q0 26 -16 37.5t-51 11.5h-37z" />
<glyph unicode="&#xaf;" horiz-adv-x="1081" d="M238 1360l24 166h686l-22 -166h-688z" />
<glyph unicode="&#xb0;" horiz-adv-x="741" d="M80 1118q0 139 90.5 231.5t243.5 92.5q128 0 205 -73t77 -191q0 -139 -90 -231.5t-241 -92.5q-131 0 -208 73t-77 191zM231 1124q0 -61 38.5 -99t103.5 -38q77 0 124.5 50t47.5 134q0 61 -37 99.5t-102 38.5q-79 0 -127 -50.5t-48 -134.5z" />
<glyph unicode="&#xb1;" horiz-adv-x="1116" d="M-4 61l24 170h398l53 385h-397l24 170h398l55 402h176l-57 -402h399l-22 -170h-400l-55 -385h399l-22 -170h-973z" />
<glyph unicode="&#xb4;" horiz-adv-x="1081" d="M367 1370l315 275l195 -111l-383 -254z" />
<glyph unicode="&#xb5;" horiz-adv-x="1236" d="M27 -397l178 1267q10 75 10 129q0 71 -10 117l201 19q12 -47 12 -123q0 -65 -10 -140q-15 -108 -30 -211.5t-22 -149.5t-13 -90t-7.5 -65.5t-1.5 -42.5q0 -170 186 -170q107 0 186 62.5t113 185.5l103 735h202l-106 -759q-19 -136 -19 -138q0 -37 20.5 -54t67.5 -17h41 l-20 -142q-46 -24 -123 -24q-81 0 -126.5 39.5t-53.5 105.5h-8q-15 -24 -37.5 -48t-59 -49.5t-91 -41.5t-117.5 -16q-135 0 -193 69h-8l-64 -448h-200z" />
<glyph unicode="&#xb6;" horiz-adv-x="1226" d="M117 956q0 120 38 213.5t105 151t154.5 86.5t191.5 29h238l-15 -99l-116 -118l-156 -1113q-48 -323 -299 -479l-84 111q51 37 83 67t63.5 75.5t51 106t31.5 144.5l70 508q-14 -2 -45 -2q-145 0 -228 83t-83 236zM776 152q0 17 4 51.5t8.5 68t14 95t14.5 100.5l135 969 h154l-137 -971q-37 -261 -37 -272q0 -31 15 -45.5t50 -14.5h66l-19 -113q-43 -26 -106 -26q-74 0 -118 42t-44 116z" />
<glyph unicode="&#xb7;" horiz-adv-x="600" d="M117 705q0 69 47 116t115 47q63 0 103 -39.5t40 -101.5q0 -71 -47.5 -115.5t-116.5 -44.5q-60 0 -100.5 39t-40.5 99z" />
<glyph unicode="&#xb8;" horiz-adv-x="974" d="M334 -395q149 65 149 180q0 49 -34 102v9h172q20 -36 20 -91q0 -114 -70.5 -193t-189.5 -112z" />
<glyph unicode="&#xbb;" horiz-adv-x="1105" d="M82 215l293 363l-193 362l129 74l281 -455l-395 -442zM508 213l301 365l-207 362l129 76l295 -457l-403 -442z" />
<glyph unicode="&#xbf;" horiz-adv-x="927" d="M33 -2q0 116 52.5 213.5t172.5 191.5q73 61 148.5 123t112 92.5t65.5 55.5h10q37 -14 60.5 -44t23.5 -67q0 -26 -9.5 -48.5t-36 -48.5t-48 -43.5t-72.5 -56t-82 -63.5q-64 -52 -99.5 -88.5t-61 -88t-25.5 -110.5q0 -72 48 -114.5t128 -42.5q84 0 151 33.5t107 78.5 l117 -166q-138 -124 -394 -124q-177 0 -272.5 87.5t-95.5 229.5zM416 999q0 64 40.5 106t106.5 42q58 0 97.5 -38t39.5 -97q0 -62 -41 -106t-104 -44q-59 0 -99 39t-40 98z" />
<glyph unicode="&#xc0;" horiz-adv-x="1263" d="M-70 0l658 1436h307l256 -1436h-211l-63 393h-553l-174 -393h-220zM403 571h445l-70 428l-47 297h-8l-127 -295zM518 1841l195 111l315 -275l-127 -90z" />
<glyph unicode="&#xc1;" horiz-adv-x="1263" d="M-70 0l658 1436h307l256 -1436h-211l-63 393h-553l-174 -393h-220zM403 571h445l-70 428l-47 297h-8l-127 -295zM524 1677l316 275l194 -111l-383 -254z" />
<glyph unicode="&#xc2;" horiz-adv-x="1263" d="M-70 0l658 1436h307l256 -1436h-211l-63 393h-553l-174 -393h-220zM362 1694l439 256l387 -258l-78 -115l-322 182l-352 -188zM403 571h445l-70 428l-47 297h-8l-127 -295z" />
<glyph unicode="&#xc3;" horiz-adv-x="1263" d="M-70 0l658 1436h307l256 -1436h-211l-63 393h-553l-174 -393h-220zM403 571h445l-70 428l-47 297h-8l-127 -295zM408 1759q101 101 223 101q60 0 153 -37t134 -37q51 0 84 16.5t61 48.5l72 -118q-28 -38 -83.5 -71.5t-133.5 -33.5q-52 0 -145 38t-140 38q-49 0 -84 -14.5 t-72 -49.5z" />
<glyph unicode="&#xc4;" horiz-adv-x="1263" d="M-70 0l658 1436h307l256 -1436h-211l-63 393h-553l-174 -393h-220zM403 571h445l-70 428l-47 297h-8l-127 -295zM440 1755q0 58 35.5 94.5t93.5 36.5q50 0 81.5 -30t31.5 -82q0 -57 -37 -92t-94 -35q-48 0 -79.5 30.5t-31.5 77.5zM866 1755q0 57 36 94t93 37 q50 0 81.5 -30t31.5 -82q0 -56 -36.5 -91.5t-92.5 -35.5q-49 0 -81 30.5t-32 77.5z" />
<glyph unicode="&#xc5;" horiz-adv-x="1284" d="M-70 0l666 1436l57 -2v8q-59 15 -93 61.5t-34 116.5q0 109 71 182.5t191 73.5q101 0 161.5 -56t60.5 -147q0 -86 -46.5 -150t-121.5 -81v-8l63 2l266 -1436h-210l-68 393h-565l-178 -393h-220zM408 571h454l-71 404l-52 321h-8l-135 -315zM645 1626q0 -48 28 -75t81 -27 q60 0 97.5 39.5t37.5 105.5q0 47 -27 73.5t-80 26.5q-62 0 -99.5 -38.5t-37.5 -104.5z" />
<glyph unicode="&#xc6;" horiz-adv-x="1822" d="M-78 0l969 1436h905l-24 -179h-566l-61 -440h489l-24 -178h-490l-65 -461h592l-23 -178h-790l57 422h-461l-285 -422h-223zM545 598h370l97 678h-8z" />
<glyph unicode="&#xc7;" horiz-adv-x="1153" d="M109 543q0 117 16 226t48.5 212.5t87 189t126.5 150t172 100t219 35.5q301 0 410 -162l-152 -129q-80 109 -264 109q-97 0 -177 -43.5t-142 -130.5t-96.5 -230t-34.5 -331q0 -186 84.5 -282.5t242.5 -96.5q173 0 275 106l110 -153q-150 -133 -413 -133q-253 0 -382.5 151 t-129.5 412zM387 -395q150 65 150 180q0 47 -35 102v9h172q20 -36 20 -91q0 -114 -70.5 -193t-189.5 -112z" />
<glyph unicode="&#xc8;" horiz-adv-x="1099" d="M86 0l201 1436h786l-26 -179h-580l-64 -440h508l-24 -178h-508l-64 -461h609l-23 -178h-815zM457 1841l194 111l316 -275l-127 -90z" />
<glyph unicode="&#xc9;" horiz-adv-x="1099" d="M86 0l201 1436h786l-26 -179h-580l-64 -440h508l-24 -178h-508l-64 -461h609l-23 -178h-815zM489 1677l316 275l194 -111l-383 -254z" />
<glyph unicode="&#xca;" horiz-adv-x="1099" d="M86 0l201 1436h786l-26 -179h-580l-64 -440h508l-24 -178h-508l-64 -461h609l-23 -178h-815zM328 1694l438 256l387 -258l-78 -115l-321 182l-353 -188z" />
<glyph unicode="&#xcb;" horiz-adv-x="1099" d="M86 0l201 1436h786l-26 -179h-580l-64 -440h508l-24 -178h-508l-64 -461h609l-23 -178h-815zM406 1755q0 58 35.5 94.5t93.5 36.5q50 0 81 -30t31 -82q0 -57 -37 -92t-94 -35q-47 0 -78.5 30.5t-31.5 77.5zM831 1755q0 57 36.5 94t93.5 37q50 0 81 -30t31 -82 q0 -56 -36.5 -91.5t-92.5 -35.5q-49 0 -81 30.5t-32 77.5z" />
<glyph unicode="&#xcc;" horiz-adv-x="612" d="M100 0l201 1436h207l-201 -1436h-207zM193 1841l194 111l315 -275l-127 -90z" />
<glyph unicode="&#xcd;" horiz-adv-x="612" d="M100 0l201 1436h207l-201 -1436h-207zM199 1677l315 275l195 -111l-383 -254z" />
<glyph unicode="&#xce;" horiz-adv-x="612" d="M33 1694l438 256l387 -258l-78 -115l-321 182l-353 -188zM100 0l201 1436h207l-201 -1436h-207z" />
<glyph unicode="&#xcf;" horiz-adv-x="612" d="M100 0l201 1436h207l-201 -1436h-207zM119 1755q0 58 35.5 94.5t93.5 36.5q50 0 81 -30t31 -82q0 -57 -37 -92t-94 -35q-47 0 -78.5 30.5t-31.5 77.5zM545 1755q0 57 36 94t93 37q50 0 81 -30t31 -82q0 -56 -36.5 -91.5t-92.5 -35.5q-49 0 -80.5 30.5t-31.5 77.5z" />
<glyph unicode="&#xd0;" horiz-adv-x="1392" d="M70 678l20 145h156l86 613h366q586 0 586 -549q0 -100 -11 -192.5t-36.5 -182.5t-64.5 -165.5t-97.5 -140.5t-131.5 -110t-171 -70.5t-213 -25.5h-428l94 678h-155zM360 178h183q266 0 395 183t129 520q0 197 -94 286.5t-275 89.5h-186l-61 -434h305l-21 -145h-305z" />
<glyph unicode="&#xd1;" horiz-adv-x="1445" d="M86 0l201 1436h266l446 -1170h9l47 398l108 772h197l-201 -1436h-262l-455 1190h-8l-43 -422l-108 -768h-197zM489 1759q101 101 224 101q60 0 152.5 -37t133.5 -37q88 0 146 65l72 -118q-28 -37 -84 -71t-134 -34q-52 0 -144.5 38t-139.5 38q-49 0 -84 -14.5t-72 -49.5z " />
<glyph unicode="&#xd2;" d="M109 526q0 95 10.5 187t34.5 185.5t60.5 174.5t92 152t125 122t163 80t202.5 29q115 0 206.5 -31.5t159 -96.5t104 -171.5t36.5 -249.5q0 -136 -21 -262.5t-72 -249.5t-128 -213.5t-197.5 -146t-272.5 -55.5q-236 0 -369.5 133t-133.5 413zM322 522q0 -196 80.5 -279 t226.5 -83q89 0 161.5 33.5t121.5 93t84 132.5t54.5 161t28 169.5t8.5 165.5q0 195 -80 278t-227 83q-89 0 -161.5 -33.5t-121.5 -92.5t-84 -132t-54.5 -161t-28 -169.5t-8.5 -165.5zM618 1841l195 111l315 -275l-127 -90z" />
<glyph unicode="&#xd3;" d="M109 526q0 95 10.5 187t34.5 185.5t60.5 174.5t92 152t125 122t163 80t202.5 29q115 0 206.5 -31.5t159 -96.5t104 -171.5t36.5 -249.5q0 -136 -21 -262.5t-72 -249.5t-128 -213.5t-197.5 -146t-272.5 -55.5q-236 0 -369.5 133t-133.5 413zM322 522q0 -196 80.5 -279 t226.5 -83q89 0 161.5 33.5t121.5 93t84 132.5t54.5 161t28 169.5t8.5 165.5q0 195 -80 278t-227 83q-89 0 -161.5 -33.5t-121.5 -92.5t-84 -132t-54.5 -161t-28 -169.5t-8.5 -165.5zM610 1677l316 275l194 -111l-383 -254z" />
<glyph unicode="&#xd4;" d="M109 526q0 95 10.5 187t34.5 185.5t60.5 174.5t92 152t125 122t163 80t202.5 29q115 0 206.5 -31.5t159 -96.5t104 -171.5t36.5 -249.5q0 -136 -21 -262.5t-72 -249.5t-128 -213.5t-197.5 -146t-272.5 -55.5q-236 0 -369.5 133t-133.5 413zM322 522q0 -196 80.5 -279 t226.5 -83q89 0 161.5 33.5t121.5 93t84 132.5t54.5 161t28 169.5t8.5 165.5q0 195 -80 278t-227 83q-89 0 -161.5 -33.5t-121.5 -92.5t-84 -132t-54.5 -161t-28 -169.5t-8.5 -165.5zM449 1694l438 256l387 -258l-78 -115l-322 182l-352 -188z" />
<glyph unicode="&#xd5;" d="M109 526q0 95 10.5 187t34.5 185.5t60.5 174.5t92 152t125 122t163 80t202.5 29q115 0 206.5 -31.5t159 -96.5t104 -171.5t36.5 -249.5q0 -136 -21 -262.5t-72 -249.5t-128 -213.5t-197.5 -146t-272.5 -55.5q-236 0 -369.5 133t-133.5 413zM322 522q0 -196 80.5 -279 t226.5 -83q89 0 161.5 33.5t121.5 93t84 132.5t54.5 161t28 169.5t8.5 165.5q0 195 -80 278t-227 83q-89 0 -161.5 -33.5t-121.5 -92.5t-84 -132t-54.5 -161t-28 -169.5t-8.5 -165.5zM500 1759q101 101 223 101q60 0 153 -37t134 -37q51 0 84 16.5t61 48.5l72 -118 q-28 -38 -83.5 -71.5t-133.5 -33.5q-52 0 -145 38t-140 38q-49 0 -84 -14.5t-72 -49.5z" />
<glyph unicode="&#xd6;" d="M109 526q0 95 10.5 187t34.5 185.5t60.5 174.5t92 152t125 122t163 80t202.5 29q115 0 206.5 -31.5t159 -96.5t104 -171.5t36.5 -249.5q0 -136 -21 -262.5t-72 -249.5t-128 -213.5t-197.5 -146t-272.5 -55.5q-236 0 -369.5 133t-133.5 413zM322 522q0 -196 80.5 -279 t226.5 -83q89 0 161.5 33.5t121.5 93t84 132.5t54.5 161t28 169.5t8.5 165.5q0 195 -80 278t-227 83q-89 0 -161.5 -33.5t-121.5 -92.5t-84 -132t-54.5 -161t-28 -169.5t-8.5 -165.5zM532 1755q0 57 36 94t94 37q50 0 81 -30t31 -82q0 -57 -37 -92t-94 -35q-48 0 -79.5 30.5 t-31.5 77.5zM958 1755q0 57 36 94t93 37q50 0 81.5 -30t31.5 -82q0 -56 -36.5 -91.5t-92.5 -35.5q-49 0 -81 30.5t-32 77.5z" />
<glyph unicode="&#xd7;" horiz-adv-x="1116" d="M102 399l359 312l-266 305l127 108l262 -307l348 305l108 -123l-354 -303l266 -305l-127 -108l-260 307l-354 -316z" />
<glyph unicode="&#xd8;" d="M14 -20l168 208q-73 125 -73 338q0 95 10.5 187t34.5 185.5t60.5 174.5t92 152t125 122t163 80t202.5 29q205 0 329 -100l84 102h187l-172 -213q78 -132 78 -338q0 -136 -21 -262.5t-72 -249.5t-128 -213.5t-197.5 -146t-272.5 -55.5q-207 0 -331 98l-80 -98h-187z M322 522q0 -82 18 -141l659 817q-75 78 -219 78q-89 0 -161.5 -33.5t-121.5 -92.5t-84 -132t-54.5 -161t-28 -169.5t-8.5 -165.5zM410 236q73 -76 219 -76q89 0 161.5 33.5t121.5 93t84 132.5t54.5 161t28 169.5t8.5 165.5q0 71 -18 138z" />
<glyph unicode="&#xd9;" d="M150 393q0 80 53 449l82 594h207l-84 -586q-3 -25 -16.5 -118t-18.5 -131t-11 -97t-6 -96q0 -246 273 -246q159 0 248.5 80t113.5 250l131 944h207l-133 -936q-36 -268 -183.5 -394t-402.5 -126q-222 0 -341 110.5t-119 302.5zM584 1841l194 111l316 -275l-127 -90z" />
<glyph unicode="&#xda;" d="M150 393q0 80 53 449l82 594h207l-84 -586q-3 -25 -16.5 -118t-18.5 -131t-11 -97t-6 -96q0 -246 273 -246q159 0 248.5 80t113.5 250l131 944h207l-133 -936q-36 -268 -183.5 -394t-402.5 -126q-222 0 -341 110.5t-119 302.5zM602 1677l316 275l194 -111l-383 -254z" />
<glyph unicode="&#xdb;" d="M150 393q0 80 53 449l82 594h207l-84 -586q-3 -25 -16.5 -118t-18.5 -131t-11 -97t-6 -96q0 -246 273 -246q159 0 248.5 80t113.5 250l131 944h207l-133 -936q-36 -268 -183.5 -394t-402.5 -126q-222 0 -341 110.5t-119 302.5zM430 1694l438 256l387 -258l-77 -115 l-322 182l-352 -188z" />
<glyph unicode="&#xdc;" d="M150 393q0 80 53 449l82 594h207l-84 -586q-3 -25 -16.5 -118t-18.5 -131t-11 -97t-6 -96q0 -246 273 -246q159 0 248.5 80t113.5 250l131 944h207l-133 -936q-36 -268 -183.5 -394t-402.5 -126q-222 0 -341 110.5t-119 302.5zM520 1755q0 58 35.5 94.5t93.5 36.5 q50 0 81.5 -30t31.5 -82q0 -57 -37 -92t-94 -35q-48 0 -79.5 30.5t-31.5 77.5zM946 1755q0 57 36 94t93 37q50 0 81.5 -30t31.5 -82q0 -56 -36.5 -91.5t-92.5 -35.5q-49 0 -81 30.5t-32 77.5z" />
<glyph unicode="&#xdd;" horiz-adv-x="1097" d="M70 1436l346 -934l-70 -502h207l70 502l608 934h-234l-297 -475l-159 -275h-9l-81 279l-162 471h-219zM438 1677l316 275l194 -111l-383 -254z" />
<glyph unicode="&#xde;" horiz-adv-x="1124" d="M109 0l200 1436h199l-41 -293h123q442 0 442 -369q0 -241 -140.5 -379.5t-416.5 -138.5h-133l-35 -256h-198zM367 434h122q178 0 256 86t78 244q0 104 -60.5 150.5t-199.5 46.5h-121z" />
<glyph unicode="&#xdf;" horiz-adv-x="1273" d="M23 -426l213 1497q35 249 162 368.5t356 119.5q179 0 279 -93.5t100 -228.5q0 -67 -20.5 -125t-51.5 -96t-67.5 -72.5t-67.5 -58.5t-51.5 -50.5t-20.5 -50.5q0 -33 32.5 -69.5t78.5 -74t92.5 -80.5t79 -105t32.5 -131q0 -64 -24 -123.5t-71.5 -109.5t-127 -79.5 t-180.5 -29.5q-131 0 -228.5 44t-144.5 93l127 143q21 -24 49 -45.5t87 -44t124 -22.5q83 0 135 44t52 121q0 44 -34 87t-82 80.5t-96 76.5t-82 89t-34 104q0 45 21.5 86t54.5 70t70.5 63t70.5 65.5t54.5 78t21.5 99.5q0 76 -51.5 127.5t-147.5 51.5q-138 0 -209.5 -78 t-95.5 -240l-213 -1501h-192z" />
<glyph unicode="&#xe0;" horiz-adv-x="1183" d="M94 389q0 158 40.5 293.5t117 237t195.5 159.5t268 58q116 0 205.5 -19t138.5 -45q-77 -527 -78 -534q-35 -241 -35 -295q0 -44 20 -64t66 -20q33 0 39 2l-20 -146q-49 -24 -115 -24q-147 0 -174 141h-8q-40 -59 -122 -105t-196 -46q-158 0 -250 104t-92 303zM297 399 q0 -252 197 -252q85 0 158 49t108 117l90 635q-52 23 -145 23q-180 0 -294 -150.5t-114 -421.5zM461 1534l194 111l316 -275l-127 -90z" />
<glyph unicode="&#xe1;" horiz-adv-x="1183" d="M94 389q0 158 40.5 293.5t117 237t195.5 159.5t268 58q116 0 205.5 -19t138.5 -45q-77 -527 -78 -534q-35 -241 -35 -295q0 -44 20 -64t66 -20q33 0 39 2l-20 -146q-49 -24 -115 -24q-147 0 -174 141h-8q-40 -59 -122 -105t-196 -46q-158 0 -250 104t-92 303zM297 399 q0 -252 197 -252q85 0 158 49t108 117l90 635q-52 23 -145 23q-180 0 -294 -150.5t-114 -421.5zM469 1370l315 275l195 -111l-383 -254z" />
<glyph unicode="&#xe2;" horiz-adv-x="1183" d="M94 389q0 158 40.5 293.5t117 237t195.5 159.5t268 58q116 0 205.5 -19t138.5 -45q-77 -527 -78 -534q-35 -241 -35 -295q0 -44 20 -64t66 -20q33 0 39 2l-20 -146q-49 -24 -115 -24q-147 0 -174 141h-8q-40 -59 -122 -105t-196 -46q-158 0 -250 104t-92 303zM297 399 q0 -252 197 -252q85 0 158 49t108 117l90 635q-52 23 -145 23q-180 0 -294 -150.5t-114 -421.5zM315 1386l439 256l387 -258l-78 -114l-322 182l-352 -188z" />
<glyph unicode="&#xe3;" horiz-adv-x="1183" d="M94 389q0 158 40.5 293.5t117 237t195.5 159.5t268 58q116 0 205.5 -19t138.5 -45q-77 -527 -78 -534q-35 -241 -35 -295q0 -44 20 -64t66 -20q33 0 39 2l-20 -146q-49 -24 -115 -24q-147 0 -174 141h-8q-40 -59 -122 -105t-196 -46q-158 0 -250 104t-92 303zM297 399 q0 -252 197 -252q85 0 158 49t108 117l90 635q-52 23 -145 23q-180 0 -294 -150.5t-114 -421.5zM369 1452q100 100 223 100q60 0 153 -36.5t134 -36.5q51 0 84 16.5t61 48.5l72 -119q-28 -37 -83.5 -70.5t-133.5 -33.5q-52 0 -145 38t-140 38q-49 0 -84 -14.5t-72 -49.5z " />
<glyph unicode="&#xe4;" horiz-adv-x="1183" d="M94 389q0 158 40.5 293.5t117 237t195.5 159.5t268 58q116 0 205.5 -19t138.5 -45q-77 -527 -78 -534q-35 -241 -35 -295q0 -44 20 -64t66 -20q33 0 39 2l-20 -146q-49 -24 -115 -24q-147 0 -174 141h-8q-40 -59 -122 -105t-196 -46q-158 0 -250 104t-92 303zM297 399 q0 -252 197 -252q85 0 158 49t108 117l90 635q-52 23 -145 23q-180 0 -294 -150.5t-114 -421.5zM393 1448q0 58 35.5 94.5t93.5 36.5q50 0 81.5 -30.5t31.5 -82.5q0 -57 -37 -92t-94 -35q-47 0 -79 31t-32 78zM819 1448q0 57 36 94t93 37q50 0 81.5 -30.5t31.5 -82.5 q0 -56 -36.5 -91.5t-92.5 -35.5q-49 0 -81 31t-32 78z" />
<glyph unicode="&#xe5;" horiz-adv-x="1183" d="M94 389q0 158 40.5 293.5t117 237t195.5 159.5t268 58q116 0 205.5 -19t138.5 -45q-77 -527 -78 -534q-35 -241 -35 -295q0 -44 20 -64t66 -20q33 0 39 2l-20 -146q-49 -24 -115 -24q-147 0 -174 141h-8q-40 -59 -122 -105t-196 -46q-158 0 -250 104t-92 303zM297 399 q0 -252 197 -252q85 0 158 49t108 117l90 635q-52 23 -145 23q-180 0 -294 -150.5t-114 -421.5zM492 1438q0 108 71.5 181t190.5 73q101 0 160 -55t59 -148q0 -108 -71.5 -181t-190.5 -73q-102 0 -160.5 55t-58.5 148zM610 1442q0 -48 27 -75.5t80 -27.5q62 0 99.5 40 t37.5 106q0 48 -26.5 75t-79.5 27q-62 0 -100 -39.5t-38 -105.5z" />
<glyph unicode="&#xe6;" horiz-adv-x="1824" d="M94 389q0 158 40.5 293.5t117 237t195.5 159.5t268 58q211 0 303 -62l-8 -43h8q52 55 134 85t171 30q197 0 302.5 -105.5t105.5 -279.5q0 -130 -48 -266h-718q-2 -25 -2 -60q0 -135 70.5 -210.5t213.5 -75.5q106 0 183 33.5t112 68.5l92 -143q-155 -125 -413 -125 q-263 0 -365 184h-8q-121 -188 -397 -188q-168 0 -262.5 104.5t-94.5 304.5zM297 399q0 -252 197 -252q85 0 159.5 47.5t108.5 114.5l90 639q-48 23 -147 23q-180 0 -294 -150.5t-114 -421.5zM989 649h533q16 66 16 119q0 213 -221 213q-132 0 -215 -78t-113 -254z" />
<glyph unicode="&#xe7;" horiz-adv-x="985" d="M94 426q0 147 33 274t98.5 228.5t175 160t252.5 58.5q130 0 213.5 -39.5t124.5 -101.5l-145 -127q-65 96 -199 96q-158 0 -251 -138t-93 -407q0 -276 242 -276q137 0 227 94l113 -127q-15 -19 -40 -39t-69 -44.5t-113.5 -40t-152.5 -15.5q-201 0 -308.5 116t-107.5 328z M330 -395q149 65 149 180q0 47 -35 102v9h172q21 -38 21 -91q0 -114 -70.5 -193t-189.5 -112z" />
<glyph unicode="&#xe8;" horiz-adv-x="1146" d="M94 453q0 169 42 303t116 218.5t173 128.5t216 44q200 0 306 -105t106 -280q0 -133 -47 -266h-715q-2 -25 -2 -60q0 -135 69.5 -210.5t212.5 -75.5q106 0 181.5 33t113.5 69l90 -143q-152 -125 -413 -125q-223 0 -336 122.5t-113 346.5zM313 649h531q16 66 16 119 q0 213 -221 213q-128 0 -211.5 -78.5t-114.5 -253.5zM471 1534l195 111l315 -275l-127 -90z" />
<glyph unicode="&#xe9;" horiz-adv-x="1146" d="M94 453q0 169 42 303t116 218.5t173 128.5t216 44q200 0 306 -105t106 -280q0 -133 -47 -266h-715q-2 -25 -2 -60q0 -135 69.5 -210.5t212.5 -75.5q106 0 181.5 33t113.5 69l90 -143q-152 -125 -413 -125q-223 0 -336 122.5t-113 346.5zM313 649h531q16 66 16 119 q0 213 -221 213q-128 0 -211.5 -78.5t-114.5 -253.5zM457 1370l315 275l195 -111l-383 -254z" />
<glyph unicode="&#xea;" horiz-adv-x="1146" d="M94 453q0 169 42 303t116 218.5t173 128.5t216 44q200 0 306 -105t106 -280q0 -133 -47 -266h-715q-2 -25 -2 -60q0 -135 69.5 -210.5t212.5 -75.5q106 0 181.5 33t113.5 69l90 -143q-152 -125 -413 -125q-223 0 -336 122.5t-113 346.5zM301 1386l438 256l387 -258 l-77 -114l-322 182l-352 -188zM313 649h531q16 66 16 119q0 213 -221 213q-128 0 -211.5 -78.5t-114.5 -253.5z" />
<glyph unicode="&#xeb;" horiz-adv-x="1146" d="M94 453q0 169 42 303t116 218.5t173 128.5t216 44q200 0 306 -105t106 -280q0 -133 -47 -266h-715q-2 -25 -2 -60q0 -135 69.5 -210.5t212.5 -75.5q106 0 181.5 33t113.5 69l90 -143q-152 -125 -413 -125q-223 0 -336 122.5t-113 346.5zM313 649h531q16 66 16 119 q0 213 -221 213q-128 0 -211.5 -78.5t-114.5 -253.5zM383 1448q0 58 35.5 94.5t93.5 36.5q50 0 81.5 -30.5t31.5 -82.5q0 -57 -37 -92t-94 -35q-47 0 -79 31t-32 78zM809 1448q0 57 36 94t93 37q50 0 81.5 -30.5t31.5 -82.5q0 -56 -36.5 -91.5t-92.5 -35.5q-49 0 -81 31 t-32 78z" />
<glyph unicode="&#xec;" horiz-adv-x="591" d="M131 186q0 66 35 293l90 647h203l-92 -647q-31 -235 -31 -250q0 -37 18 -52t64 -15h45l-23 -146q-44 -22 -118 -22q-89 0 -140 50t-51 142zM152 1534l194 111l316 -275l-127 -90z" />
<glyph unicode="&#xed;" horiz-adv-x="591" d="M131 186q0 66 35 293l90 647h203l-92 -647q-31 -235 -31 -250q0 -37 18 -52t64 -15h45l-23 -146q-44 -22 -118 -22q-89 0 -140 50t-51 142zM152 1370l315 275l195 -111l-383 -254z" />
<glyph unicode="&#xee;" horiz-adv-x="591" d="M-12 1386l438 256l387 -258l-78 -114l-321 182l-353 -188zM131 186q0 66 35 293l90 647h203l-92 -647q-31 -235 -31 -250q0 -37 18 -52t64 -15h45l-23 -146q-44 -22 -118 -22q-89 0 -140 50t-51 142z" />
<glyph unicode="&#xef;" horiz-adv-x="591" d="M68 1448q0 58 35.5 94.5t93.5 36.5q50 0 81 -30.5t31 -82.5q0 -57 -37 -92t-94 -35q-47 0 -78.5 31t-31.5 78zM131 186q0 66 35 293l90 647h203l-92 -647q-31 -235 -31 -250q0 -37 18 -52t64 -15h45l-23 -146q-44 -22 -118 -22q-89 0 -140 50t-51 142zM494 1448 q0 57 36 94t93 37q50 0 81 -30.5t31 -82.5q0 -56 -36.5 -91.5t-92.5 -35.5q-49 0 -80.5 31t-31.5 78z" />
<glyph unicode="&#xf0;" horiz-adv-x="1093" d="M78 383q0 163 66 285t175 183.5t244 61.5q127 0 217 -43l6 7q-24 132 -110 253l-342 -159l18 141l246 117q-101 110 -246 190l2 17h269q70 -45 145 -133l299 141l-18 -139l-207 -99q68 -111 110.5 -247t42.5 -277q0 -118 -15.5 -217t-53.5 -188t-96.5 -151t-149 -98 t-207.5 -36q-185 0 -290 107.5t-105 283.5zM279 385q0 -107 58 -165t155 -58q79 0 136 30.5t91.5 89.5t53.5 128.5t28 162.5q4 70 4 119q-34 21 -95.5 38.5t-131.5 17.5q-137 0 -218 -90.5t-81 -272.5z" />
<glyph unicode="&#xf1;" horiz-adv-x="1214" d="M84 0l158 1126h155l31 -141h8q41 64 126 114t202 50q152 0 236.5 -76.5t84.5 -218.5q0 -77 -34 -309l-76 -545h-203l78 545q31 225 31 276q0 77 -43.5 116.5t-126.5 39.5q-132 0 -222 -82.5t-110 -228.5l-92 -666h-203zM369 1452q100 100 223 100q60 0 153 -36.5 t134 -36.5q51 0 84 16.5t61 48.5l72 -119q-28 -37 -83.5 -70.5t-133.5 -33.5q-52 0 -145 38t-140 38q-49 0 -84 -14.5t-72 -49.5z" />
<glyph unicode="&#xf2;" horiz-adv-x="1171" d="M94 418q0 155 32 284t96 230t171 158t248 57q219 0 327.5 -113.5t108.5 -324.5q0 -154 -32 -283.5t-96 -231.5t-171 -159.5t-248 -57.5q-217 0 -326.5 116.5t-109.5 324.5zM303 416q0 -137 60.5 -205t175.5 -68q79 0 139.5 38.5t96 97t58 137.5t30 150t7.5 145 q0 270 -239 270q-78 0 -138 -38t-95 -96.5t-57.5 -137t-30 -149t-7.5 -144.5zM453 1534l194 111l316 -275l-127 -90z" />
<glyph unicode="&#xf3;" horiz-adv-x="1171" d="M94 418q0 155 32 284t96 230t171 158t248 57q219 0 327.5 -113.5t108.5 -324.5q0 -154 -32 -283.5t-96 -231.5t-171 -159.5t-248 -57.5q-217 0 -326.5 116.5t-109.5 324.5zM303 416q0 -137 60.5 -205t175.5 -68q79 0 139.5 38.5t96 97t58 137.5t30 150t7.5 145 q0 270 -239 270q-78 0 -138 -38t-95 -96.5t-57.5 -137t-30 -149t-7.5 -144.5zM479 1370l316 275l194 -111l-383 -254z" />
<glyph unicode="&#xf4;" horiz-adv-x="1171" d="M94 418q0 155 32 284t96 230t171 158t248 57q219 0 327.5 -113.5t108.5 -324.5q0 -154 -32 -283.5t-96 -231.5t-171 -159.5t-248 -57.5q-217 0 -326.5 116.5t-109.5 324.5zM303 416q0 -137 60.5 -205t175.5 -68q79 0 139.5 38.5t96 97t58 137.5t30 150t7.5 145 q0 270 -239 270q-78 0 -138 -38t-95 -96.5t-57.5 -137t-30 -149t-7.5 -144.5zM309 1386l439 256l387 -258l-78 -114l-322 182l-352 -188z" />
<glyph unicode="&#xf5;" horiz-adv-x="1171" d="M94 418q0 155 32 284t96 230t171 158t248 57q219 0 327.5 -113.5t108.5 -324.5q0 -154 -32 -283.5t-96 -231.5t-171 -159.5t-248 -57.5q-217 0 -326.5 116.5t-109.5 324.5zM303 416q0 -137 60.5 -205t175.5 -68q79 0 139.5 38.5t96 97t58 137.5t30 150t7.5 145 q0 270 -239 270q-78 0 -138 -38t-95 -96.5t-57.5 -137t-30 -149t-7.5 -144.5zM352 1452q100 100 223 100q60 0 153 -36.5t134 -36.5q88 0 146 65l71 -119q-28 -37 -83.5 -70.5t-133.5 -33.5q-52 0 -144.5 38t-139.5 38q-49 0 -84 -14.5t-72 -49.5z" />
<glyph unicode="&#xf6;" horiz-adv-x="1171" d="M94 418q0 155 32 284t96 230t171 158t248 57q219 0 327.5 -113.5t108.5 -324.5q0 -154 -32 -283.5t-96 -231.5t-171 -159.5t-248 -57.5q-217 0 -326.5 116.5t-109.5 324.5zM303 416q0 -137 60.5 -205t175.5 -68q79 0 139.5 38.5t96 97t58 137.5t30 150t7.5 145 q0 270 -239 270q-78 0 -138 -38t-95 -96.5t-57.5 -137t-30 -149t-7.5 -144.5zM389 1448q0 58 35.5 94.5t93.5 36.5q50 0 81.5 -30.5t31.5 -82.5q0 -57 -37 -92t-94 -35q-47 0 -79 31t-32 78zM815 1448q0 57 36 94t93 37q50 0 81.5 -30.5t31.5 -82.5q0 -56 -36.5 -91.5 t-92.5 -35.5q-49 0 -81 31t-32 78z" />
<glyph unicode="&#xf7;" horiz-adv-x="1085" d="M45 616l25 170h970l-24 -170h-971zM352 317q0 62 42.5 105t103.5 43q56 0 91.5 -36t35.5 -93q0 -62 -43 -102.5t-105 -40.5q-54 0 -89.5 35t-35.5 89zM455 1061q0 62 41.5 104.5t103.5 42.5q56 0 91.5 -36t35.5 -91q0 -63 -42.5 -103t-104.5 -40q-54 0 -89.5 35t-35.5 88 z" />
<glyph unicode="&#xf8;" horiz-adv-x="0" />
<glyph unicode="&#xf9;" horiz-adv-x="1247" d="M129 274q0 30 16 162l62 434q10 75 10 129q0 55 -10 117l199 19q14 -45 14 -123q0 -65 -10 -140l-60 -417q-2 -21 -6 -49.5t-6 -49t-2 -41.5q0 -172 190 -172q121 0 201 78t100 219l97 686h202l-104 -747q-2 -15 -11.5 -73.5t-9.5 -76.5q0 -36 20 -53.5t69 -17.5 q32 0 40 2l-20 -144q-46 -24 -123 -24q-83 0 -127.5 39t-52.5 106h-8q-19 -28 -45.5 -53t-67.5 -51t-100.5 -41t-130.5 -15q-157 0 -241.5 78.5t-84.5 218.5zM467 1534l195 111l315 -275l-127 -90z" />
<glyph unicode="&#xfa;" horiz-adv-x="1247" d="M129 274q0 30 16 162l62 434q10 75 10 129q0 55 -10 117l199 19q14 -45 14 -123q0 -65 -10 -140l-60 -417q-2 -21 -6 -49.5t-6 -49t-2 -41.5q0 -172 190 -172q121 0 201 78t100 219l97 686h202l-104 -747q-2 -15 -11.5 -73.5t-9.5 -76.5q0 -36 20 -53.5t69 -17.5 q32 0 40 2l-20 -144q-46 -24 -123 -24q-83 0 -127.5 39t-52.5 106h-8q-19 -28 -45.5 -53t-67.5 -51t-100.5 -41t-130.5 -15q-157 0 -241.5 78.5t-84.5 218.5zM471 1370l315 275l195 -111l-383 -254z" />
<glyph unicode="&#xfb;" horiz-adv-x="1247" d="M129 274q0 30 16 162l62 434q10 75 10 129q0 55 -10 117l199 19q14 -45 14 -123q0 -65 -10 -140l-60 -417q-2 -21 -6 -49.5t-6 -49t-2 -41.5q0 -172 190 -172q121 0 201 78t100 219l97 686h202l-104 -747q-2 -15 -11.5 -73.5t-9.5 -76.5q0 -36 20 -53.5t69 -17.5 q32 0 40 2l-20 -144q-46 -24 -123 -24q-83 0 -127.5 39t-52.5 106h-8q-19 -28 -45.5 -53t-67.5 -51t-100.5 -41t-130.5 -15q-157 0 -241.5 78.5t-84.5 218.5zM309 1386l439 256l387 -258l-78 -114l-322 182l-352 -188z" />
<glyph unicode="&#xfc;" horiz-adv-x="1247" d="M129 274q0 30 16 162l62 434q10 75 10 129q0 55 -10 117l199 19q14 -45 14 -123q0 -65 -10 -140l-60 -417q-2 -21 -6 -49.5t-6 -49t-2 -41.5q0 -172 190 -172q121 0 201 78t100 219l97 686h202l-104 -747q-2 -15 -11.5 -73.5t-9.5 -76.5q0 -36 20 -53.5t69 -17.5 q32 0 40 2l-20 -144q-46 -24 -123 -24q-83 0 -127.5 39t-52.5 106h-8q-19 -28 -45.5 -53t-67.5 -51t-100.5 -41t-130.5 -15q-157 0 -241.5 78.5t-84.5 218.5zM389 1448q0 58 35.5 94.5t93.5 36.5q50 0 81.5 -30.5t31.5 -82.5q0 -57 -37 -92t-94 -35q-47 0 -79 31t-32 78z M815 1448q0 57 36 94t93 37q50 0 81.5 -30.5t31.5 -82.5q0 -56 -36.5 -91.5t-92.5 -35.5q-49 0 -81 31t-32 78z" />
<glyph unicode="&#xfd;" horiz-adv-x="1185" d="M-12 -307l131 155q41 -47 116 -80.5t175 -33.5q150 0 231.5 65.5t101.5 204.5l25 152h-8q-14 -19 -26 -33t-40 -36.5t-59.5 -37.5t-82 -26t-108.5 -11q-139 0 -218 79.5t-79 211.5q0 72 39 318t39 284t-18.5 53t-65.5 15h-51l21 145q53 23 131 23q88 0 138 -50.5 t50 -142.5q0 -49 -39 -294t-39 -308q0 -85 39.5 -128.5t128.5 -43.5q119 0 195 76.5t96 220.5l90 655h203l-160 -1118q-32 -226 -171 -336t-374 -110q-154 0 -256 38t-155 93zM471 1370l315 275l195 -111l-383 -254z" />
<glyph unicode="&#xfe;" horiz-adv-x="1177" d="M35 -397q10 70 105 749t130 938q7 56 11 129q0 58 -13 115l199 22q14 -55 14 -124q0 -62 -10 -140l-39 -274h8q40 57 112.5 93t170.5 36q162 0 261 -108t99 -306q0 -337 -154 -537t-440 -200q-103 0 -194 27l-59 -420h-201zM319 201q65 -33 162 -33q184 0 288.5 140.5 t107.5 406.5q0 134 -57 198t-152 64q-113 0 -188 -76t-95 -227z" />
<glyph unicode="&#xff;" horiz-adv-x="1185" d="M-12 -307l131 155q41 -47 116 -80.5t175 -33.5q150 0 231.5 65.5t101.5 204.5l25 152h-8q-14 -19 -26 -33t-40 -36.5t-59.5 -37.5t-82 -26t-108.5 -11q-139 0 -218 79.5t-79 211.5q0 72 39 318t39 284t-18.5 53t-65.5 15h-51l21 145q53 23 131 23q88 0 138 -50.5 t50 -142.5q0 -49 -39 -294t-39 -308q0 -85 39.5 -128.5t128.5 -43.5q119 0 195 76.5t96 220.5l90 655h203l-160 -1118q-32 -226 -171 -336t-374 -110q-154 0 -256 38t-155 93zM389 1448q0 58 35.5 94.5t93.5 36.5q50 0 81.5 -30.5t31.5 -82.5q0 -57 -37 -92t-94 -35 q-47 0 -79 31t-32 78zM815 1448q0 57 36 94t93 37q50 0 81.5 -30.5t31.5 -82.5q0 -56 -36.5 -91.5t-92.5 -35.5q-49 0 -81 31t-32 78z" />
<glyph unicode="&#x152;" horiz-adv-x="1994" d="M109 526q0 95 10.5 187t35 185.5t61.5 174.5t93 152t125.5 122t163.5 80t203 29q139 0 229 -41.5t141 -128.5h9l20 150h768l-24 -179h-586l-64 -440h514l-24 -178h-514l-66 -461h617l-25 -178h-797l23 156h-8q-63 -83 -160 -129.5t-250 -46.5q-235 0 -365 133t-130 413z M322 522q0 -196 80.5 -279t226.5 -83q78 0 143.5 25.5t112 68.5t82.5 104t58.5 127t36.5 143t19.5 146t5.5 141q0 195 -80 278t-227 83q-89 0 -161.5 -33.5t-121.5 -92.5t-84 -132t-54.5 -161t-28 -169.5t-8.5 -165.5z" />
<glyph unicode="&#x153;" horiz-adv-x="1902" d="M96 414q0 123 19.5 230.5t62.5 200.5t106.5 159.5t155.5 104.5t205 38q275 0 363 -201h8q54 92 149.5 146.5t235.5 54.5q199 0 303 -104.5t104 -280.5q0 -133 -47 -266h-714q-3 -38 -3 -60q0 -136 69.5 -211t213.5 -75q106 0 183.5 33t111.5 67l90 -141 q-152 -125 -412 -125q-152 0 -244.5 56t-133.5 148h-9q-46 -93 -146 -155t-245 -62q-216 0 -321 117t-105 326zM303 410q0 -273 240 -273q79 0 139.5 39t96 98t58 139t30 152t7.5 146q0 139 -60.5 204.5t-180.5 65.5q-78 0 -138.5 -38.5t-95.5 -97.5t-57.5 -138.5 t-30.5 -151t-8 -145.5zM1069 649h530q17 70 17 117q0 102 -53 159.5t-164 57.5q-274 0 -330 -334z" />
<glyph unicode="&#x178;" horiz-adv-x="1097" d="M70 1436l346 -934l-70 -502h207l70 502l608 934h-234l-297 -475l-159 -275h-9l-81 279l-162 471h-219zM352 1755q0 58 35.5 94.5t93.5 36.5q50 0 81.5 -30t31.5 -82q0 -57 -37 -92t-94 -35q-48 0 -79.5 30.5t-31.5 77.5zM778 1755q0 57 36 94t93 37q50 0 81.5 -30 t31.5 -82q0 -56 -36.5 -91.5t-92.5 -35.5q-49 0 -81 30.5t-32 77.5z" />
<glyph unicode="&#x2c6;" horiz-adv-x="1081" d="M162 1386l438 256l387 -258l-78 -114l-321 182l-352 -188z" />
<glyph unicode="&#x2dc;" horiz-adv-x="1081" d="M219 1452q100 100 223 100q60 0 153 -36.5t134 -36.5q51 0 84 16.5t61 48.5l72 -119q-28 -37 -83.5 -70.5t-133.5 -33.5q-52 0 -145 38t-140 38q-49 0 -83.5 -14.5t-71.5 -49.5z" />
<glyph unicode="&#x2000;" horiz-adv-x="976" />
<glyph unicode="&#x2001;" horiz-adv-x="1952" />
<glyph unicode="&#x2002;" horiz-adv-x="976" />
<glyph unicode="&#x2003;" horiz-adv-x="1952" />
<glyph unicode="&#x2004;" horiz-adv-x="650" />
<glyph unicode="&#x2005;" horiz-adv-x="488" />
<glyph unicode="&#x2006;" horiz-adv-x="325" />
<glyph unicode="&#x2007;" horiz-adv-x="325" />
<glyph unicode="&#x2008;" horiz-adv-x="244" />
<glyph unicode="&#x2009;" horiz-adv-x="390" />
<glyph unicode="&#x200a;" horiz-adv-x="108" />
<glyph unicode="&#x2010;" horiz-adv-x="702" d="M33 537l22 174h621l-25 -174h-618z" />
<glyph unicode="&#x2011;" horiz-adv-x="702" d="M33 537l22 174h621l-25 -174h-618z" />
<glyph unicode="&#x2012;" horiz-adv-x="702" d="M33 537l22 174h621l-25 -174h-618z" />
<glyph unicode="&#x2013;" horiz-adv-x="917" d="M10 537l23 174h880l-22 -174h-881z" />
<glyph unicode="&#x2014;" horiz-adv-x="1464" d="M10 537l23 174h1427l-22 -174h-1428z" />
<glyph unicode="&#x2018;" horiz-adv-x="399" d="M92 1065q0 69 22.5 132.5t57.5 109.5t81.5 84.5t89 62.5t85.5 39l49 -90q-95 -34 -148 -88.5t-53 -116.5q0 -15 3.5 -28.5t12 -26t15.5 -21.5t22.5 -20.5t23.5 -17.5t28.5 -19t28.5 -18q-3 -66 -45 -111t-109 -45q-75 0 -119.5 48t-44.5 126z" />
<glyph unicode="&#x2019;" horiz-adv-x="399" d="M55 981q95 35 148 89.5t53 115.5q0 18 -6 35t-12 27.5t-24 25.5t-25.5 20.5t-33 21.5t-32.5 21q3 66 44.5 111t108.5 45q75 0 119.5 -47.5t44.5 -124.5q0 -70 -22.5 -133.5t-57.5 -109.5t-81.5 -84.5t-89 -62.5t-85.5 -40z" />
<glyph unicode="&#x201a;" horiz-adv-x="456" d="M-66 -225q94 33 146.5 87t52.5 115q0 18 -6 35t-12.5 28t-23.5 25.5t-25.5 21t-33 22.5t-32.5 22q3 65 45.5 109.5t110.5 44.5q73 0 117 -47t44 -125q0 -69 -22.5 -132.5t-57.5 -109.5t-81 -84.5t-88.5 -62.5t-85.5 -39z" />
<glyph unicode="&#x201c;" horiz-adv-x="847" d="M86 1065q0 69 22.5 132.5t57.5 109.5t81.5 84.5t89 62.5t85.5 39l49 -90q-96 -33 -148.5 -88t-52.5 -117q0 -15 3 -28.5t12 -26t15.5 -21t22.5 -21t23.5 -17.5t28.5 -18.5t28 -18.5q-3 -66 -45 -111t-110 -45q-73 0 -117.5 48t-44.5 126zM532 1065q0 69 22.5 132.5 t57.5 109.5t81.5 84.5t89 62.5t85.5 39l50 -90q-95 -34 -148 -88.5t-53 -116.5q0 -15 3 -28.5t12 -26t15.5 -21t22.5 -21t23.5 -17.5t28.5 -18.5t28 -18.5q-3 -66 -45 -111t-109 -45q-75 0 -119.5 48t-44.5 126z" />
<glyph unicode="&#x201d;" horiz-adv-x="847" d="M61 981q94 35 146.5 89.5t52.5 115.5q0 16 -3 29.5t-12 26.5t-14.5 21t-22.5 20.5t-23.5 17t-29 18.5t-28.5 18q3 65 46 110.5t110 45.5q73 0 117 -47.5t44 -124.5q0 -70 -22.5 -133.5t-57 -109.5t-80.5 -84.5t-88.5 -62.5t-84.5 -40zM508 981q95 35 148 90t53 115 q0 18 -6 35t-12.5 27.5t-24 25t-26 20.5t-33 22t-32.5 21q3 66 45 111t109 45q75 0 119.5 -47.5t44.5 -124.5q0 -70 -22.5 -133.5t-57.5 -109.5t-81.5 -84.5t-89 -62.5t-85.5 -40z" />
<glyph unicode="&#x201e;" horiz-adv-x="903" d="M33 -225q95 33 147.5 88t52.5 117q0 18 -6 35t-12 27.5t-24 25.5t-25.5 20.5t-33 21.5t-32.5 21q3 66 45.5 111t110.5 45q73 0 117.5 -48t44.5 -126q0 -69 -22.5 -132.5t-57.5 -109.5t-81.5 -84.5t-89 -62.5t-85.5 -39zM481 -225q94 33 146.5 88t52.5 117q0 16 -3 29.5 t-12 26.5t-14.5 21t-22.5 20.5t-23.5 17t-29 18.5t-28.5 18q3 65 45.5 110.5t109.5 45.5q75 0 119.5 -48t44.5 -126q0 -69 -22.5 -132.5t-57.5 -109.5t-81.5 -84.5t-89 -62.5t-85.5 -39z" />
<glyph unicode="&#x2022;" horiz-adv-x="962" d="M215 713q0 122 79 202t200 80q114 0 188 -75t74 -189q0 -121 -80 -197.5t-199 -76.5q-113 0 -187.5 73.5t-74.5 182.5z" />
<glyph unicode="&#x2026;" horiz-adv-x="1755" d="M113 129q0 69 46 116.5t115 47.5q62 0 102 -40t40 -101q0 -71 -47.5 -115.5t-116.5 -44.5q-60 0 -99.5 38.5t-39.5 98.5zM692 129q0 69 46.5 116.5t115.5 47.5q63 0 103 -39.5t40 -101.5q0 -70 -47.5 -115t-115.5 -45q-62 0 -102 38.5t-40 98.5zM1282 129 q0 69 46.5 116.5t115.5 47.5q62 0 101.5 -39.5t39.5 -101.5q0 -71 -47.5 -115.5t-116.5 -44.5q-60 0 -99.5 38.5t-39.5 98.5z" />
<glyph unicode="&#x202f;" horiz-adv-x="390" />
<glyph unicode="&#x2039;" horiz-adv-x="671" d="M100 571l396 443l114 -96l-293 -365l193 -363l-131 -73z" />
<glyph unicode="&#x203a;" horiz-adv-x="643" d="M59 215l295 363l-194 362l131 74l278 -455l-395 -442z" />
<glyph unicode="&#x205f;" horiz-adv-x="488" />
<glyph unicode="&#x20ac;" horiz-adv-x="1271" d="M57 481l23 154h156q3 80 14 145h-152l23 154h160q32 113 84 205.5t126.5 164.5t178 112t227.5 40q98 0 176 -17.5t123.5 -46t69.5 -51.5t39 -47l-150 -129q-34 46 -101 77.5t-167 31.5q-138 0 -240 -85t-155 -255h471l-64 -154h-446q-14 -81 -17 -145h410l-60 -154h-344 q12 -159 95.5 -240t226.5 -81q176 0 278 106l109 -153q-150 -133 -412 -133q-238 0 -366 133t-142 368h-174z" />
<glyph unicode="&#x2122;" horiz-adv-x="1280" d="M190 1339l13 97h446l-12 -97h-160l-65 -469h-121l67 469h-168zM633 868l78 568h172l80 -394l184 394h176l-78 -568h-112l34 262l33 185h-8l-191 -387h-108l-82 391h-8l-21 -180l-37 -271h-112z" />
<glyph unicode="&#xe000;" horiz-adv-x="1126" d="M0 0v1126h1126v-1126h-1126z" />
</font>
</defs>
</svg>
