<?xml version="1.0" standalone="no"?>
<!DOCTYPE svg PUBLIC "-//W3C//DTD SVG 1.1//EN" "http://www.w3.org/Graphics/SVG/1.1/DTD/svg11.dtd" >
<svg xmlns="http://www.w3.org/2000/svg">
<metadata>
This is a custom SVG webfont generated by Fontspring.
Designer    : F.W. Goudy ca. 1901
Foundry URL : http://www.fontsite.com
</metadata>
<defs>
<font id="webfontkNkRmcoX" horiz-adv-x="713" >
<font-face units-per-em="1000" ascent="800" descent="-200" />
<missing-glyph horiz-adv-x="250" />
<glyph unicode=" "  horiz-adv-x="250" />
<glyph unicode="&#x09;" horiz-adv-x="250" />
<glyph unicode="&#xa0;" horiz-adv-x="250" />
<glyph unicode="!" horiz-adv-x="378" d="M125 235v16q19 5 24.5 11.5t5.5 23.5q0 18 -1 22l-35 301q-3 25 -8 32t-24 10v16h205v-16q-19 -3 -24.5 -10t-8.5 -32l-35 -301q-2 -14 -2 -22q0 -17 5.5 -23.5t25.5 -11.5v-16h-128zM109 68q0 33 23.5 56.5t56.5 23.5q34 0 57 -23.5t23 -57.5q0 -32 -24 -55.5t-56 -23.5 q-33 0 -56.5 23.5t-23.5 56.5z" />
<glyph unicode="&#x22;" horiz-adv-x="555" d="M359 378v14q18 5 22.5 11t4.5 25q0 14 -1 16l-32 170q-2 23 -6.5 29.5t-21.5 9.5v14h184v-14q-17 -3 -22 -9.5t-7 -29.5l-32 -170q-2 -10 -2 -16q0 -19 4.5 -25t23.5 -11v-14h-115zM82 378v14q18 5 22.5 11t4.5 25q0 14 -1 16l-32 170q-2 23 -7 29.5t-22 9.5v14h184v-14 q-17 -3 -21.5 -9.5t-6.5 -29.5l-32 -170q-2 -10 -2 -16q0 -19 4.5 -25t23.5 -11v-14h-115z" />
<glyph unicode="#" horiz-adv-x="767" d="M104 -2l3 17q19 5 27 12t11 23l19 98h-81q-27 0 -41 -31h-17l32 166h17q1 -18 8 -25t21 -7h82l31 161h-82q-26 0 -41 -32h-17l32 166h17q1 -17 8 -24t21 -7h82l19 98v8q0 12 -5 17.5t-20 9.5l3 16l167 1l-4 -17q-18 -4 -25.5 -11t-12.5 -24l-19 -98h160l19 98q1 3 1 8 q0 12 -5 17.5t-20 9.5l3 16l166 1l-3 -17q-19 -4 -26.5 -11t-12.5 -24l-19 -98h82q27 0 41 31h16l-31 -166h-17q-3 32 -29 32h-82l-31 -161h82q27 0 41 32h16l-32 -166h-16q-3 31 -30 31h-81l-19 -98v-8q0 -12 5 -17t20 -10l-4 -17h-166l3 17q19 5 27.5 12t11.5 23l19 98 h-160l-19 -98q-1 -2 -1 -8q0 -12 5 -17t20 -10l-3 -17h-166zM288 251h160l31 161h-160z" />
<glyph unicode="$" d="M37 61l73 164l14 -7q-7 -34 54 -68.5t150 -45.5v167q-121 11 -173 38q-44 22 -68.5 63.5t-24.5 93.5q0 94 71.5 151t194.5 61v24q0 27 -31 35v16h136v-16q-18 -4 -25 -12t-7 -23v-26q89 -8 219 -64q16 -6 19 -6q11 0 25 12l14 -8l-80 -156l-14 7q1 3 1 8q0 25 -63 57 t-121 36v-153l18 -2q127 -14 186 -54q33 -23 52.5 -62.5t19.5 -82.5q0 -68 -39 -117.5t-113 -76.5q-59 -21 -124 -24v-32q0 -27 31 -36v-15h-135v15q31 9 31 36v32q-119 8 -240 69q-9 6 -16 6q-6 0 -21 -11zM227 436q23 -12 101 -19v147q-62 -4 -96.5 -26t-34.5 -57 q0 -29 30 -45zM401 104q63 7 99 32t36 62q0 53 -108 62q-3 1 -27 3v-159z" />
<glyph unicode="%" horiz-adv-x="884" d="M203 328q-75 0 -122.5 48.5t-47.5 124.5t47.5 124t122.5 48q77 0 124 -48t47 -127q0 -74 -48 -122t-123 -48zM119 0v16q25 4 39.5 16t47.5 54l385 496q21 27 21 40q0 23 -29 29v16h173v-16q-25 -4 -36.5 -14t-46.5 -55l-392 -508q-18 -24 -18 -33q0 -19 30 -25v-16h-174z M204 398q38 0 62 28.5t24 72.5q0 46 -24 75t-62 29t-62 -28.5t-24 -73.5q0 -46 24 -74.5t62 -28.5zM509 167q0 76 47.5 124t122.5 48q77 0 124 -48t47 -127q0 -74 -48 -122t-123 -48t-122.5 48.5t-47.5 124.5zM593 167q0 -46 24 -74.5t62 -28.5t62.5 28.5t24.5 72.5 q0 47 -24 75.5t-63 28.5q-38 0 -62 -28.5t-24 -73.5z" />
<glyph unicode="&#x26;" horiz-adv-x="774" d="M29 190q0 125 149 198q-66 59 -66 126q0 70 62.5 117.5t155.5 47.5q97 0 160 -47t63 -120q0 -44 -19.5 -74.5t-68.5 -65.5q49 -31 79 -93q41 77 89.5 120t113.5 60v-185h-16q-3 24 -14 24t-32.5 -14t-37.5 -32q-29 -32 -40 -69q56 -57 98 -57q22 0 26 24h16v-154 q-12 3 -16 3l-70 4q-33 5 -74 29t-66 53q-100 -97 -236 -97q-112 0 -184 56.5t-72 145.5zM334 411q44 0 72.5 23.5t28.5 59.5q0 37 -28.5 61t-72.5 24t-72.5 -23.5t-28.5 -60.5t28.5 -60.5t72.5 -23.5zM164 217q0 -50 39 -82.5t99 -32.5q62 0 106.5 30.5t44.5 73.5 q0 20 -13.5 44t-33.5 41q-45 37 -108 37q-56 0 -95 -32t-39 -79z" />
<glyph unicode="'" horiz-adv-x="278" d="M82 378v14q18 5 22.5 11t4.5 25q0 14 -1 16l-32 170q-2 23 -7 29.5t-22 9.5v14h184v-14q-17 -3 -21.5 -9.5t-6.5 -29.5l-32 -170q-2 -10 -2 -16q0 -19 4.5 -25t23.5 -11v-14h-115z" />
<glyph unicode="(" horiz-adv-x="333" d="M272 -80q-95 68 -150.5 179.5t-55.5 233.5t56 234t150 179l54 -44q-70 -81 -99.5 -165.5t-29.5 -203.5t29.5 -203.5t99.5 -165.5z" />
<glyph unicode=")" horiz-adv-x="333" d="M8 -36q70 81 99.5 165.5t29.5 203.5t-29.5 203.5t-99.5 165.5l54 44q94 -67 150 -179t56 -234t-55.5 -233.5t-150.5 -179.5z" />
<glyph unicode="*" horiz-adv-x="504" d="M199 343l-119 87l10 15q12 -5 20 -5q27 0 90 84q-74 22 -100 22q-21 0 -36 -21l-17 5l45 141l18 -6q-2 -24 20.5 -40.5t89.5 -38.5q-2 75 -10 99.5t-32 29.5v18h148v-18q-24 -4 -32 -29.5t-10 -99.5q70 24 91 39t19 40l18 6l45 -141l-17 -5q-14 21 -36 21q-26 0 -99 -21 q37 -49 56 -67t34 -18q8 0 19 5l11 -15l-120 -87l-11 15q12 15 12 25q0 27 -54 103q-54 -76 -54 -103q0 -12 12 -25z" />
<glyph unicode="+" horiz-adv-x="767" d="M114 254v159h15q7 -32 32 -32h174v175q0 24 -31 32v15h158v-15q-31 -7 -31 -32v-175h174q13 0 20 7t12 25h15v-159h-15q-7 31 -32 31h-174v-174q0 -25 31 -32v-15h-158v15q31 7 31 32v174h-174q-25 0 -32 -31h-15z" />
<glyph unicode="," horiz-adv-x="307" d="M73 69q0 35 20 57t52 22q40 0 64 -31.5t24 -82.5q0 -107 -113 -187l-24 31q39 25 57.5 51t25.5 65q-23 -6 -35 -6q-32 0 -51.5 22.5t-19.5 58.5z" />
<glyph unicode="-" horiz-adv-x="222" d="M0 189v169h16q8 -32 35 -32h120q15 0 23 7t12 25h16v-169h-16q-8 31 -35 31h-120q-27 0 -35 -31h-16z" />
<glyph unicode="." horiz-adv-x="307" d="M73 68q0 33 23.5 56.5t56.5 23.5q34 0 57 -23.5t23 -57.5q0 -32 -24 -55.5t-56 -23.5q-33 0 -56.5 23.5t-23.5 56.5z" />
<glyph unicode="/" horiz-adv-x="759" d="M33 0v16q25 4 39.5 15.5t47.5 54.5l385 496q22 29 22 40q0 22 -30 29v16h229v-16q-25 -4 -36 -13.5t-47 -55.5l-393 -508q-18 -24 -18 -33q0 -19 30 -25v-16h-229z" />
<glyph unicode="0" d="M41 334q0 152 88 248.5t227 96.5q142 0 229 -96.5t87 -253.5q0 -150 -88.5 -245.5t-227.5 -95.5q-140 0 -227.5 96t-87.5 250zM357 110q73 0 119.5 63t46.5 162q0 103 -46 166.5t-121 63.5q-74 0 -120 -63.5t-46 -164.5t46.5 -164t120.5 -63z" />
<glyph unicode="1" d="M281 0v16q31 8 31 35v422l-45 -11q-18 -4 -24.5 -11.5t-10.5 -24.5h-16v177h16q5 -18 10 -23.5t15 -5.5q5 0 13 2l42 11v29q0 27 -31 35v16h203v-16q-31 -8 -31 -35v-565q0 -27 31 -35v-16h-203z" />
<glyph unicode="2" d="M40 0q0 56 10.5 92.5t36.5 73.5q32 45 75.5 76t130.5 71l83 38q59 27 84.5 55.5t25.5 67.5q0 44 -30.5 67.5t-88.5 23.5q-68 0 -129.5 -33t-61.5 -70q0 -7 7 -31l-11 -11l-130 140l12 11q19 -9 28 -9q11 0 38 23q108 94 265 94q114 0 182 -56.5t68 -150.5q0 -75 -44 -129 t-139 -97l-75 -34l-54 -22q-52 -21 -72 -34t-37 -36h408q27 0 35 31h16v-182h-16q-8 31 -35 31h-519q-26 0 -34 -5.5t-13 -25.5h-16v31z" />
<glyph unicode="3" d="M21 51l77 180l15 -6l-2 -10q0 -27 27 -49q34 -28 98.5 -46.5t129.5 -18.5q75 0 118 26.5t43 73.5q0 95 -158 95q-45 0 -62.5 -7t-22.5 -27h-16v164h16q6 -22 22 -29t62 -7q68 0 106.5 23t38.5 65t-37.5 64.5t-107.5 22.5q-78 0 -144 -28t-66 -61q0 -10 6 -21l-12 -10 l-112 138l12 10q19 -8 27 -8t26 11q122 83 274 83q121 0 194 -52.5t73 -140.5t-85 -137q111 -42 111 -147q0 -99 -82 -156.5t-222 -57.5q-135 0 -241 53q-45 22 -59 22q-12 0 -33 -19z" />
<glyph unicode="4" d="M44 81v141l331 373q22 25 22 35q0 18 -25 21v16h261v-16q-31 -8 -31 -35v-394h37q27 0 35 31h16v-172h-16q-8 31 -35 31h-37v-61q0 -27 31 -35v-16h-203v16q31 8 31 35v61h-352q-28 0 -36.5 -5.5t-13.5 -25.5h-15zM203 222h258v293z" />
<glyph unicode="5" d="M40 69l-12 10l118 156l13 -9q-4 -15 -4 -22q0 -23 40 -49q83 -53 180 -53q76 0 119 33t43 90q0 54 -44 86t-118 32q-55 0 -103.5 -17.5t-48.5 -37.5q0 -7 7 -19l-12 -11l-172 174l10 11q3 -1 7 -1q23 0 23 31v141q0 17 -7 25t-24 12v16h528q17 2 24 8t11 23h16v-176h-16 q-8 31 -35 31h-380v-144q83 40 187 40q134 0 213 -60.5t79 -163.5q0 -110 -85 -176q-79 -61 -218 -61q-83 0 -137 16t-136 65q-20 12 -36 12q-10 0 -30 -12z" />
<glyph unicode="6" d="M151 59q-49 44 -76.5 114.5t-27.5 153.5q0 158 98 255t257 97q57 0 100.5 -10t103.5 -37q21 -9 32 -9q9 0 20 9l6 5l13 -9l-86 -160l-14 7q3 17 3 19q0 28 -56.5 52.5t-120.5 24.5q-57 0 -105.5 -23.5t-75.5 -63.5q-31 -47 -36 -126q50 44 100 63.5t116 19.5 q121 0 197 -62t76 -161q0 -103 -84 -166.5t-219 -63.5q-141 0 -221 71zM216 214q0 -51 45 -83.5t115 -32.5t115.5 32.5t45.5 82.5q0 52 -44.5 84.5t-116.5 32.5q-70 0 -115 -32.5t-45 -83.5z" />
<glyph unicode="7" d="M143 0v16q36 9 68 61l298 480h-416q-27 0 -35 -31h-16v172h16q8 -31 35 -31h528q27 0 35 31h16v-127l-300 -494q-18 -30 -18 -37q0 -15 28 -24v-16h-239z" />
<glyph unicode="8" d="M155 24q-52 23 -85 72t-33 104q0 117 148 157q-120 46 -120 142q0 84 78 132t214 48t213.5 -48t77.5 -132q0 -96 -120 -142q149 -38 149 -157q0 -55 -33 -104t-85 -72q-81 -36 -202 -36t-202 36zM206 495q0 -37 40.5 -59t109.5 -22t110 21.5t41 57.5q0 39 -40 60.5 t-112 21.5q-68 0 -108.5 -21.5t-40.5 -58.5zM186 203q0 -47 45.5 -74t125.5 -27q79 0 125 26.5t46 72.5q0 48 -45.5 75t-126.5 27q-79 0 -124.5 -27t-45.5 -73z" />
<glyph unicode="9" d="M37 39l86 160l14 -8q-3 -15 -3 -19q0 -27 56.5 -51.5t120.5 -24.5q58 0 106 23t75 64q31 47 36 126q-50 -44 -100 -63.5t-116 -19.5q-121 0 -197 62t-76 161q0 102 84 166t219 64q141 0 221 -71q49 -44 76.5 -114.5t27.5 -153.5q0 -158 -98 -255t-257 -97q-56 0 -100 10 t-104 37q-21 9 -32 9q-9 0 -20 -9l-6 -5zM337 337q70 0 115.5 32.5t45.5 82.5q0 52 -44.5 84.5t-116.5 32.5q-70 0 -115 -32.5t-45 -83.5t45 -83.5t115 -32.5z" />
<glyph unicode=":" horiz-adv-x="307" d="M153 398q-33 0 -56.5 23.5t-23.5 56.5t23.5 56.5t56.5 23.5q34 0 57 -23.5t23 -57.5q0 -32 -24 -55.5t-56 -23.5zM73 68q0 33 23.5 56.5t56.5 23.5q34 0 57 -23.5t23 -57.5q0 -32 -24 -55.5t-56 -23.5q-33 0 -56.5 23.5t-23.5 56.5z" />
<glyph unicode=";" horiz-adv-x="307" d="M153 398q-33 0 -56.5 23.5t-23.5 56.5t23.5 56.5t56.5 23.5q34 0 57 -23.5t23 -57.5q0 -32 -24 -55.5t-56 -23.5zM73 69q0 35 20 57t52 22q40 0 64 -31.5t24 -82.5q0 -107 -113 -187l-24 31q39 25 57.5 51t25.5 65q-23 -6 -35 -6q-32 0 -51.5 22.5t-19.5 58.5z" />
<glyph unicode="&#x3c;" horiz-adv-x="500" d="M33 274v119l433 225v-141l-283 -144l283 -143v-141z" />
<glyph unicode="=" horiz-adv-x="767" d="M114 367v159h15q7 -31 32 -31h444q25 0 32 31h15v-159h-15q-4 18 -11 25t-21 7h-444q-25 0 -33 -32h-14zM114 141v158h15q7 -31 32 -31h444q25 0 32 31h15v-158h-15q-7 31 -32 31h-444q-25 0 -33 -31h-14z" />
<glyph unicode="&#x3e;" horiz-adv-x="500" d="M34 49v141l283 143l-283 144v141l433 -225v-119z" />
<glyph unicode="?" horiz-adv-x="488" d="M156 230v16q19 6 26 17t12 44q4 31 13.5 48.5t41.5 57.5q27 35 36.5 53.5t9.5 38.5q0 32 -20.5 51.5t-55.5 19.5q-37 0 -71.5 -23t-34.5 -48q0 -5 4 -17l-13 -9l-84 123l13 9l4 -2q10 -6 17 -6q11 0 41 20q84 56 160 56q77 0 125.5 -41.5t48.5 -106.5q0 -39 -19.5 -74 t-67.5 -82q-33 -32 -43.5 -51t-10.5 -49q0 -13 6 -19t23 -10v-16h-161zM164 68q0 33 23.5 56.5t56.5 23.5q34 0 57 -23.5t23 -57.5q0 -32 -24 -55.5t-56 -23.5q-33 0 -56.5 23.5t-23.5 56.5z" />
<glyph unicode="@" horiz-adv-x="821" d="M203 144q79 -82 219 -82q35 0 82 7t72 17q12 4 12 16v7l11 3l33 -114l-11 -3q-13 24 -27 24q-6 0 -63 -15q-53 -14 -120 -14q-154 0 -256 95.5t-102 240.5q0 152 107 251.5t271 99.5q145 0 241 -82.5t96 -207.5q0 -108 -70 -174q-46 -43 -94 -43q-37 0 -60 13t-42 45 q-62 -47 -156 -47q-62 0 -100 32.5t-38 86.5q0 77 64 131.5t154 54.5q67 0 118 -48l11 35h67l-56 -224q-1 -4 -1 -11q2 -21 30 -21q26 0 57 24q19 15 31 51t12 78q0 93 -64 154q-86 81 -205 81t-214 -84q-87 -77 -87 -186q0 -111 78 -191zM284 315q0 -34 21.5 -53t60.5 -19 q59 0 101 29.5t42 70.5q0 38 -26 59.5t-72 21.5q-52 0 -89.5 -32.5t-37.5 -76.5z" />
<glyph unicode="A" horiz-adv-x="813" d="M3 0v16q19 3 29 12.5t24 38.5l246 513q11 24 11 39q0 23 -28 32v16h236v-16q-29 -8 -29 -28q0 -15 9 -33l254 -514q17 -35 28.5 -46t32.5 -14v-16h-245v16q32 5 32 30q0 10 -10 30l-46 94h-302l-45 -94q-9 -18 -9 -31q0 -21 32 -29v-16h-220zM289 261h217l-108 238z" />
<glyph unicode="B" horiz-adv-x="806" d="M60 0v16q31 8 31 35v565q0 27 -31 35v16h450q120 0 175 -43q59 -46 59 -134q0 -97 -91 -140q112 -43 112 -158q0 -90 -65 -143q-63 -49 -185 -49h-455zM236 402h255q58 0 83 18t25 60q0 40 -26 60q-22 17 -82 17h-255v-155zM236 110h247q69 0 98 19q35 22 35 72t-35 72 q-29 19 -98 19h-247v-182z" />
<glyph unicode="C" horiz-adv-x="839" d="M178 63q-64 46 -98.5 117t-34.5 154t34.5 153.5t98.5 116.5q102 75 260 75q130 0 244 -64q18 -9 59 -33q16 -9 23 -9q9 0 23 13l12 -9l-92 -139l-13 9v14q0 25 -56 56q-86 49 -182 49q-113 0 -182 -57q-80 -67 -80 -175q0 -109 80 -176q69 -57 182 -57q96 0 182 49 q32 18 44 30.5t12 26.5v13l13 9l92 -139l-12 -9q-14 13 -23 13q-8 0 -65 -33q-69 -40 -128.5 -56.5t-133.5 -16.5q-159 0 -259 75z" />
<glyph unicode="D" horiz-adv-x="838" d="M60 0v16q31 8 31 35v565q0 27 -31 35v16h371q93 0 152 -16.5t104 -54.5q106 -89 106 -262q0 -172 -106 -263q-44 -38 -103.5 -54.5t-152.5 -16.5h-371zM236 110h183q66 0 106 13.5t68 45.5q51 57 51 165q0 107 -51 164q-28 32 -68 45.5t-106 13.5h-183v-447z" />
<glyph unicode="E" horiz-adv-x="760" d="M60 0v16q31 8 31 35v565q0 27 -31 35v16h594q27 0 35 31h16v-172h-16q-8 31 -35 31h-418v-159h271q15 0 23 7t12 25h16v-169h-16q-8 31 -35 31h-271v-182h430q27 0 35 31h15v-172h-15q-8 31 -35 31h-606z" />
<glyph unicode="F" horiz-adv-x="727" d="M60 0v16q31 8 31 35v565q0 27 -31 35v16h590q27 0 35 31h16v-172h-16q-8 31 -35 31h-414v-159h271q27 0 35 31h16v-169h-16q-8 32 -35 32h-271v-241q0 -27 31 -35v-16h-207z" />
<glyph unicode="G" horiz-adv-x="858" d="M45 334q0 157 109.5 251t292.5 94q104 0 223 -47q35 -13 48 -13q11 0 24 12l13 -7l-78 -160l-14 7q0 16 -4 23t-18 18q-29 22 -87 38t-109 16q-111 0 -181 -65.5t-70 -168.5q0 -104 71 -167.5t187 -63.5q119 0 202 48v91h-165q-27 0 -35 -31h-16v155h16q8 -31 35 -31h316 v-16q-31 -8 -31 -35v-137q0 -27 31 -36v-12q-187 -109 -368 -109q-178 0 -285 94t-107 252z" />
<glyph unicode="H" horiz-adv-x="858" d="M60 0v16q31 8 31 35v565q0 27 -31 35v16h207v-16q-31 -8 -31 -35v-215h386v215q0 27 -31 35v16h207v-16q-31 -8 -31 -35v-565q0 -27 31 -35v-16h-207v16q31 8 31 35v240h-386v-240q0 -27 31 -35v-16h-207z" />
<glyph unicode="I" horiz-adv-x="328" d="M60 0v16q31 8 31 35v565q0 27 -31 35v16h207v-16q-31 -8 -31 -35v-565q0 -27 31 -35v-16h-207z" />
<glyph unicode="J" horiz-adv-x="604" d="M3 25l62 169l15 -5v-10q0 -19 25 -37q26 -17 70.5 -29t84.5 -12q65 0 95 30q15 15 20.5 36t5.5 63v386q0 27 -31 35v16h207v-16q-31 -8 -31 -35v-393q0 -73 -14.5 -113t-50.5 -69q-65 -53 -175 -53q-42 0 -73.5 5.5t-102.5 26.5q-43 13 -62 13q-17 0 -30 -13z" />
<glyph unicode="K" horiz-adv-x="802" d="M60 0v16q31 8 31 35v565q0 27 -31 35v16h207v-16q-31 -8 -31 -35v-233l275 224q19 14 19 25q0 15 -28 19v16h273v-16q-19 -3 -38 -17l-11 -8l-56 -47l-227 -182l258 -309q40 -48 53.5 -58.5t37.5 -13.5v-16h-261v16q26 4 26 18q0 5 -24 36l-196 242l-101 -82v-179 q0 -27 31 -35v-16h-207z" />
<glyph unicode="L" horiz-adv-x="708" d="M60 0v16q31 8 31 35v565q0 27 -31 35v16h207v-16q-31 -8 -31 -35v-506h411q27 0 35 31h16v-172h-16q-8 31 -35 31h-587z" />
<glyph unicode="M" horiz-adv-x="966" d="M60 0v16q31 8 31 35v565q0 27 -31 35v16h257v-16q-23 -5 -23 -26q0 -9 7 -23l181 -335l184 329q13 22 13 33q0 20 -25 22v16h252v-16q-31 -8 -31 -35v-565q0 -27 31 -35v-16h-207v16q31 8 31 35v410l-260 -452l-246 452v-410q0 -27 31 -35v-16h-195z" />
<glyph unicode="N" horiz-adv-x="871" d="M60 0v16q31 8 31 35v565q0 27 -31 35v16h227v-16q-21 -5 -21 -22q0 -12 13 -26l368 -383v396q0 27 -31 35v16h195v-16q-31 -8 -31 -35v-565q0 -27 31 -35v-16h-209v16q20 4 20 21q0 10 -23 34l-375 386v-406q0 -27 31 -35v-16h-195z" />
<glyph unicode="O" horiz-adv-x="856" d="M153 83q-108 100 -108 251q0 72 28.5 138.5t79.5 112.5q104 94 274 94q175 0 276 -94q108 -100 108 -256q0 -69 -28.5 -133.5t-79.5 -112.5q-104 -95 -275 -95t-275 95zM194 333q0 -101 66 -166.5t168 -65.5q101 0 167.5 65t66.5 164q0 105 -65.5 170.5t-169.5 65.5 q-102 0 -167.5 -65.5t-65.5 -167.5z" />
<glyph unicode="P" horiz-adv-x="765" d="M60 0v16q31 8 31 35v565q0 27 -31 35v16h415q73 0 116 -9.5t75 -33.5q34 -26 53 -67t19 -88q0 -102 -72 -155q-59 -44 -191 -44h-239v-219q0 -27 31 -35v-16h-207zM236 380h222q68 0 93 14q38 21 38 75q0 53 -38 74q-25 14 -93 14h-222v-177z" />
<glyph unicode="Q" horiz-adv-x="856" d="M153 83q-108 99 -108 251q0 151 108 251q101 94 275 94t275 -94q108 -100 108 -251q0 -71 -27.5 -136.5t-76.5 -111.5l52 -54q18 -19 23.5 -23t14.5 -4q8 0 22 7l11 -12l-143 -130l-11 12q10 16 10 24q0 7 -17 27l-11 14l-57 71q-73 -30 -176 -30q-170 0 -272 95z M194 334q0 -102 66 -167.5t168 -65.5q46 0 91 16q-2 2 -4.5 5t-4 4.5t-1.5 2.5q-52 66 -122 83v14q37 27 80 27q32 0 64 -15.5t80 -54.5q51 63 51 151q0 102 -65.5 167t-168.5 65t-168.5 -65.5t-65.5 -166.5z" />
<glyph unicode="R" horiz-adv-x="809" d="M60 0v16q31 8 31 35v565q0 27 -31 35v16h417q138 0 199 -40q76 -49 76 -158q0 -164 -181 -192l129 -184q35 -50 50 -62.5t39 -14.5v-16h-241v16q25 3 25 17q0 10 -23 43l-136 196h-178v-221q0 -27 31 -35v-16h-207zM236 382h226q79 0 108 15q37 21 37 73q0 51 -37 72 q-17 10 -36.5 12.5t-71.5 2.5h-226v-175z" />
<glyph unicode="S" horiz-adv-x="720" d="M40 61l72 164l15 -7q-1 -3 -1 -6q0 -23 21 -41q32 -29 98.5 -49.5t126.5 -20.5q74 0 120.5 27t46.5 70q0 33 -36 48q-27 10 -101 18l-75 8q-78 8 -109 15t-61 22q-44 22 -68.5 63.5t-24.5 93.5q0 99 77 156t210 57q59 0 105 -9.5t116 -36.5q13 -5 28 -12l22 -9 q15 -5 20 -5q10 0 24 11l14 -7l-79 -157l-14 7v9q0 15 -28 35q-88 61 -204 61q-71 0 -113.5 -23t-42.5 -62q0 -28 30 -45q15 -8 32 -11t84 -10l77 -8q127 -14 186 -55q33 -24 52.5 -63.5t19.5 -83.5q0 -49 -24 -93t-65 -70q-87 -54 -222 -54q-108 0 -229 49l-49 22 q-11 6 -17 6t-20 -11z" />
<glyph unicode="T" horiz-adv-x="674" d="M234 0v16q31 8 31 35v506h-207q-27 0 -35 -31h-16v172h16q8 -31 35 -31h559q27 0 35 31h16v-172h-16q-8 31 -35 31h-207v-506q0 -27 31 -35v-16h-207z" />
<glyph unicode="U" horiz-adv-x="816" d="M165 40q-87 54 -87 202v374q0 27 -31 35v16h208v-16q-32 -7 -32 -35v-333q0 -58 6.5 -85.5t23.5 -46.5q47 -50 161 -50q113 0 160 50q17 19 23.5 46.5t6.5 85.5v333q0 27 -31 35v16h196v-16q-31 -8 -31 -35v-374q0 -150 -87 -202q-85 -52 -243 -52q-157 0 -243 52z" />
<glyph unicode="V" horiz-adv-x="770" d="M271 0v16q30 5 30 29q0 10 -14 42l-231 498q-20 44 -28.5 53.5t-30.5 12.5v16h237v-16q-32 -6 -32 -27q0 -14 11 -39l177 -391l176 391q11 25 11 39q0 21 -32 27v16h228v-16q-22 -3 -30.5 -12.5t-28.5 -53.5l-230 -498q-15 -33 -15 -42q0 -24 31 -29v-16h-229z" />
<glyph unicode="W" horiz-adv-x="1128" d="M221 0v16q33 6 33 33q0 6 -14 43l-191 492q-15 38 -26.5 51t-32.5 16v16h231v-16q-17 -4 -24 -10t-7 -18q0 -13 8 -33l132 -353l143 355q10 24 10 30q0 23 -33 29v16h242v-16q-33 -9 -33 -31q0 -10 8 -30l135 -354l132 348q10 26 10 39q0 22 -36 28v16h230v-16 q-24 -6 -33.5 -16t-24.5 -51l-191 -492q-14 -36 -14 -47q0 -24 35 -29v-16h-217v16q34 5 34 32q0 4 -15 44l-147 378l-153 -386q-13 -32 -13 -37q0 -22 36 -31v-16h-214z" />
<glyph unicode="X" horiz-adv-x="753" d="M3 0v16q22 2 35 13t50 57l201 254l-185 242q-35 46 -47.5 56t-38.5 13l-1 16h268v-16q-30 -8 -30 -30q0 -10 22 -39l104 -134l106 134q24 30 24 43q0 21 -34 26v16h260v-16q-19 -1 -32.5 -10t-33.5 -35l-211 -259l202 -261q34 -43 48 -54.5t39 -15.5v-16h-264v16 q30 6 30 25q0 10 -18 33l-129 166l-122 -160q-20 -28 -20 -37q0 -25 33 -27v-16h-256z" />
<glyph unicode="Y" d="M252 0v16q32 8 32 35v228l-215 303q-27 39 -44 53.5t-38 15.5v16h264v-16q-33 -5 -33 -30q0 -8 20 -39l120 -179l124 179q20 29 20 40t-9 19t-24 10v16h258v-16q-21 -1 -37.5 -15.5t-44.5 -53.5l-216 -303v-228q0 -27 32 -35v-16h-209z" />
<glyph unicode="Z" horiz-adv-x="714" d="M40 0v34l387 523h-333q-27 0 -35 -31h-16v172h16q8 -31 35 -31h574v-28l-392 -529h346q27 0 36 31h16v-172h-16q-9 31 -36 31h-582z" />
<glyph unicode="[" horiz-adv-x="333" d="M66 -41q31 8 31 33v681q0 27 -31 35v12h210q28 0 37 31h13v-130h-13q-10 31 -37 31h-72v-637h66q20 0 29 6.5t14 24.5h13v-131h-13q-5 18 -13 25t-24 7l-210 -1v13z" />
<glyph unicode="\" horiz-adv-x="759" d="M497 0v16q30 6 30 25q0 10 -18 33l-393 508q-36 46 -47 55.5t-36 13.5v16h228v-16q-29 -6 -29 -30q0 -11 21 -39l386 -496q34 -43 48 -54.5t39 -15.5v-16h-229z" />
<glyph unicode="]" horiz-adv-x="333" d="M8 46h13q5 -18 14 -24.5t29 -6.5h66v637h-72q-27 0 -37 -31h-13v130h13q9 -31 37 -31h210v-12q-31 -8 -31 -35v-681q0 -25 31 -33v-13l-210 1q-16 0 -24 -7t-13 -25h-13v131z" />
<glyph unicode="^" horiz-adv-x="500" d="M17 353l154 317h158l154 -317h-126l-107 222l-107 -222h-126z" />
<glyph unicode="_" horiz-adv-x="500" d="M0 -58h500v-85h-500v85z" />
<glyph unicode="`" horiz-adv-x="500" d="M209 609v13h2q10 0 10 8q0 4 -3 8l-69 84q-9 12 -29 13v13h148v-13q-14 -2 -14 -10l1 -2q1 -3 1 -5l33 -78q5 -12 10 -15t16 -3v-13h-106z" />
<glyph unicode="a" horiz-adv-x="694" d="M3 0v13q18 3 27.5 12t21.5 33l199 404q12 24 12 40q0 20 -28 31v14h213v-14q-27 -10 -27 -33q0 -16 12 -39l208 -393q17 -32 26.5 -41.5t29.5 -13.5v-13h-223v13q32 6 32 30q0 14 -13 38l-30 56h-252l-28 -59q-11 -25 -11 -34q0 -23 32 -31v-13h-201zM249 214h175 l-90 175z" />
<glyph unicode="b" horiz-adv-x="677" d="M48 0v13q31 10 31 37v447q0 15 -7 23t-24 14v13h383q99 0 147 -36q50 -39 50 -105q0 -38 -17.5 -63.5t-60.5 -48.5q52 -23 73.5 -53t21.5 -79q0 -77 -55 -119.5t-153 -42.5h-389zM210 342h199q46 0 66 12t20 41t-19.5 41t-66.5 12h-199v-106zM210 99h204q98 0 98 72 t-98 72h-204v-144z" />
<glyph unicode="c" horiz-adv-x="697" d="M36 273q0 127 89.5 206t234.5 79q67 0 118 -15t119 -54q31 -18 39 -18q7 0 18 8l11 -8l-82 -120l-11 8q1 3 1 7q1 3 1 6q0 25 -66 54q-64 29 -126 29q-92 0 -152.5 -51.5t-60.5 -130.5t60.5 -130.5t152.5 -51.5q71 0 138 35q54 27 54 48q0 3 -1 6q0 4 -1 8l11 8l82 -120 l-11 -9q-12 9 -19 9t-38 -18q-68 -40 -118.5 -55t-117.5 -15q-145 0 -235 78.5t-90 206.5z" />
<glyph unicode="d" horiz-adv-x="704" d="M48 0v13q31 10 31 37v447q0 15 -7 23t-24 14v13h320q145 0 216 -61q84 -72 84 -212t-84 -213q-70 -61 -216 -61h-320zM210 99h140q96 0 140 44q45 47 45 131t-45 130q-44 44 -140 44h-140v-349z" />
<glyph unicode="e" horiz-adv-x="642" d="M48 0v13q31 10 31 37v447q0 15 -7 23t-24 14v13h494q28 0 37 31h13v-162h-13q-9 32 -37 32h-332v-120h206q28 0 37 31h13v-158h-13q-10 32 -37 32h-206v-134h347q27 0 37 32h13v-162h-13q-10 31 -37 31h-509z" />
<glyph unicode="f" horiz-adv-x="609" d="M48 0v13q31 10 31 37v447q0 15 -7 23t-24 14v13h490q28 0 37 31h13v-162h-13q-9 32 -37 32h-328v-120h206q28 0 37 31h13v-158h-13q-10 32 -37 32h-206v-183q0 -28 31 -37v-13h-193z" />
<glyph unicode="g" horiz-adv-x="720" d="M142 52q-50 38 -78 96t-28 122q0 67 30 125.5t85 98.5q86 64 219 64q71 0 147 -24l28 -9q2 -1 5 -2t8.5 -2.5t9.5 -3.5q24 -8 31 -8q8 0 19 8l12 -6l-65 -138l-12 6v3q0 11 -7 18t-29 19q-69 36 -143 36q-93 0 -149 -51t-56 -135q0 -83 56 -130.5t154 -47.5q97 0 162 36 v84h-124q-28 0 -37 -31h-13v144h13q9 -31 37 -31h260v-14q-31 -8 -31 -40v-115q0 -29 31 -37v-11q-156 -88 -315 -88q-137 0 -220 64z" />
<glyph unicode="h" horiz-adv-x="725" d="M48 0v13q31 10 31 37v447q0 27 -31 36v14h193v-14q-31 -8 -31 -36v-160h305v160q0 28 -31 36v14h193v-14q-31 -8 -31 -36v-447q0 -28 31 -37v-13h-193v13q31 10 31 37v188h-305v-188q0 -28 31 -37v-13h-193z" />
<glyph unicode="i" horiz-adv-x="289" d="M48 0v13q31 10 31 37v447q0 27 -31 36v14h193v-14q-31 -8 -31 -36v-447q0 -28 31 -37v-13h-193z" />
<glyph unicode="j" horiz-adv-x="505" d="M3 15l48 149l13 -5q0 -17 11 -28q16 -16 55 -28t73 -12q103 0 103 96v310q0 28 -31 36v14h193v-14q-31 -8 -31 -36v-312q0 -111 -55 -153q-59 -44 -160 -44q-70 0 -169 33q-9 3 -15 3q-12 0 -22 -13z" />
<glyph unicode="k" horiz-adv-x="685" d="M48 0v13q31 10 31 37v447q0 27 -31 36v14h193v-14q-31 -8 -31 -36v-179l206 164q23 19 23 32q0 14 -29 20v13h246v-13q-8 -1 -12.5 -2.5t-12.5 -7t-13.5 -10l-22 -18l-31.5 -25.5l-185 -147l203 -233q26 -29 59 -62q13 -11 36 -16l-1 -13h-238v13q27 7 27 20q0 6 -26 36 l-152 181l-77 -64v-136q0 -28 31 -37v-13h-193z" />
<glyph unicode="l" horiz-adv-x="574" d="M48 0v13q31 10 31 37v447q0 27 -31 36v14h193v-14q-31 -8 -31 -36v-398h306q27 0 37 32h13v-162h-13q-9 31 -37 31h-468z" />
<glyph unicode="m" horiz-adv-x="819" d="M48 0v13q31 10 31 37v447q0 27 -31 36v14h231v-14q-24 -6 -24 -27t17 -49l137 -230l137 226q23 37 23 55q0 21 -23 25v14h225v-14q-32 -8 -32 -36v-447q0 -28 31 -37v-13h-193v13q31 9 31 37v309l-210 -342l-200 343v-310q0 -28 31 -37v-13h-181z" />
<glyph unicode="n" horiz-adv-x="744" d="M48 0v13q31 10 31 37v447q0 27 -31 36v14h210v-14q-22 -4 -22 -19q0 -11 16 -27l293 -291v301q0 28 -31 36v14h182v-14q-32 -8 -32 -36v-447q0 -28 31 -37v-13h-195v13q21 4 21 18q0 11 -32 43l-291 286v-310q0 -28 31 -37v-13h-181z" />
<glyph unicode="o" d="M36 273q0 127 89 206t231 79q145 0 233 -79.5t88 -209.5q0 -124 -89.5 -202.5t-230.5 -78.5q-143 0 -232 79t-89 206zM169 273q0 -79 53 -130.5t135 -51.5q80 0 133.5 51.5t53.5 128.5q0 81 -52.5 132.5t-135.5 51.5q-81 0 -134 -51.5t-53 -130.5z" />
<glyph unicode="p" horiz-adv-x="652" d="M48 0v13q31 10 31 37v447q0 15 -7 23t-24 14v13h356q106 0 161 -32q66 -39 66 -129q0 -161 -227 -161h-194v-175q0 -28 31 -37v-13h-193zM210 324h187q52 0 72 10q29 14 29 52t-29 52q-20 10 -72 10h-187v-124z" />
<glyph unicode="q" horiz-adv-x="723" d="M36 273q0 127 89 206t232 79q142 0 231 -79t89 -206q0 -123 -84 -201l49 -53q19 -19 33 -19q7 0 18 8l9 -9l-119 -109l-9 10q9 10 9 18q0 9 -22 35l-55 63q-65 -28 -150 -28q-142 0 -231 79t-89 206zM169 273q0 -79 53 -130.5t134 -51.5q39 0 74 14q-54 67 -106 80v8 q31 23 63 23q53 0 119 -55q38 46 38 113q0 79 -53 130t-134 51q-82 0 -135 -51.5t-53 -130.5z" />
<glyph unicode="r" horiz-adv-x="686" d="M48 0v13q31 10 31 37v447q0 15 -7 23t-24 14v13h358q70 0 106.5 -7t65.5 -26q59 -38 59 -125q0 -67 -36.5 -104.5t-117.5 -53.5l104 -145q30 -42 46.5 -56.5t36.5 -16.5v-13h-229v13q25 7 25 22q0 11 -15 33l-110 157h-131v-175q0 -28 31 -37v-13h-193zM210 324h198 q52 0 74 14t22 48q0 35 -21 48.5t-75 13.5h-198v-124z" />
<glyph unicode="s" horiz-adv-x="616" d="M32 37l56 134l13 -5q-1 -2 -1 -4q0 -13 10 -21q25 -22 85 -38t118 -16q65 0 104.5 18t39.5 49q0 30 -35 42q-21 8 -85 13l-77 7q-110 9 -151 35q-67 41 -67 127q0 82 68.5 131t182.5 49q56 0 105 -12.5t116 -43.5q21 -9 28 -9q8 0 20 11l12 -6l-66 -128l-12 6v6 q0 26 -66 51.5t-136 25.5q-59 0 -98 -19.5t-39 -48.5q0 -24 25.5 -34t98.5 -16l77 -6q102 -8 154 -39q34 -19 53 -54t19 -76q0 -83 -72.5 -130.5t-197.5 -47.5q-124 0 -238 52q-7 4 -14 4q-10 0 -18 -12z" />
<glyph unicode="t" horiz-adv-x="569" d="M188 0v13q31 10 31 37v398h-161q-27 0 -37 -32h-13v162h13q8 -31 37 -31h453q29 0 37 31h13v-162h-13q-10 32 -37 32h-161v-398q0 -28 31 -37v-13h-193z" />
<glyph unicode="u" horiz-adv-x="690" d="M128 42q-60 47 -60 165v290q0 27 -31 36v14h194v-14q-32 -8 -32 -36v-263q0 -46 8 -70.5t28 -40.5q40 -32 115 -32q76 0 116 32q20 16 27.5 40.5t7.5 70.5v263q0 28 -31 36v14h183v-14q-32 -8 -32 -36v-290q0 -125 -70 -172t-206 -47q-150 0 -217 54z" />
<glyph unicode="v" horiz-adv-x="650" d="M217 0v13q32 6 32 31q0 13 -10 33l-191 403q-14 30 -22.5 39t-28.5 14v14h219v-14q-31 -10 -31 -33q0 -11 12 -38l131 -289l133 289q12 25 12 38q0 23 -32 33v14h211v-14q-20 -6 -28 -14t-23 -39l-191 -403q-11 -22 -11 -33q0 -25 33 -31v-13h-215z" />
<glyph unicode="w" horiz-adv-x="959" d="M178 0v13q29 8 29 33q0 16 -8 37l-145 373q-17 42 -28 56t-34 21v14h208v-14q-31 -8 -31 -31q0 -10 10 -34l103 -259l102 257q9 23 9 34q0 25 -32 33v14h243v-14q-32 -10 -32 -34q0 -10 8 -31l100 -259l99 261q7 19 7 29q0 25 -32 34v14h213v-14q-24 -8 -34.5 -21.5 t-27.5 -55.5l-147 -373q-8 -19 -8 -36q0 -28 33 -34v-13h-212v13q32 8 32 36q0 4 -11 34l-114 297l-119 -297q-9 -22 -9 -37q0 -27 32 -33v-13h-204z" />
<glyph unicode="x" horiz-adv-x="635" d="M3 0v13q22 4 35.5 14.5t37.5 41.5l162 208l-142 190q-45 60 -80 66v14h250v-14q-32 -9 -32 -29q0 -11 16 -33l74 -99l68 93q20 27 20 40q0 20 -32 29v13h238v-13q-25 -5 -38 -15.5t-45 -51.5l-144 -184l162 -214q23 -30 40.5 -42.5t39.5 -13.5v-13h-252v13q31 7 31 26 q0 10 -17 32l-88 116l-89 -116q-14 -19 -14 -30q0 -17 32 -28v-13h-233z" />
<glyph unicode="y" horiz-adv-x="599" d="M203 0v13q31 9 31 37v190l-162 223q-29 39 -44.5 52.5t-38.5 18.5v13h246v-14q-31 -8 -31 -29q0 -12 23 -43l79 -111l78 111q23 33 23 43q0 21 -32 29v14h234v-13q-23 -5 -38 -18t-44 -53l-162 -223v-190q0 -28 31 -37v-13h-193z" />
<glyph unicode="z" horiz-adv-x="609" d="M37 0v29l319 419h-265q-28 0 -37 -32h-13v162h13q9 -31 37 -31h481v-24l-322 -424h277q28 0 36 32h13v-162h-13q-8 31 -36 31h-490z" />
<glyph unicode="{" horiz-adv-x="333" d="M70 22v182q0 47 -4 62q-6 22 -26 22h-30q-11 0 -16.5 -7t-9.5 -24h-12v153h12q4 -18 9.5 -25t16.5 -7h30q20 0 26 22q4 16 4 63v182q0 28 27.5 51.5t61.5 23.5h113q20 0 28.5 6.5t13.5 24.5h13v-136h-13q-5 19 -13.5 25.5t-28.5 6.5h-40q-24 0 -38.5 -19.5t-14.5 -51.5 v-172q0 -23 -8.5 -37.5t-31.5 -33.5q23 -19 31.5 -33.5t8.5 -36.5v-173q0 -32 14 -51t39 -19h40q20 0 28.5 6.5t13.5 24.5h13v-136h-13q-4 19 -13 25.5t-29 6.5h-113q-34 0 -61.5 23.5t-27.5 51.5z" />
<glyph unicode="|" horiz-adv-x="500" d="M179 -167v834h142v-834h-142z" />
<glyph unicode="}" horiz-adv-x="333" d="M7 51h13q5 -18 13.5 -24.5t28.5 -6.5h40q25 0 39 19t14 51v173q0 22 8.5 36.5t31.5 33.5q-23 19 -31.5 33.5t-8.5 37.5v172q0 32 -14.5 51.5t-38.5 19.5h-40q-20 0 -28.5 -6.5t-13.5 -25.5h-13v136h13q5 -18 13.5 -24.5t28.5 -6.5h113q34 0 61.5 -23.5t27.5 -51.5v-182 q0 -47 4 -63q6 -22 26 -22h30q11 0 16.5 7t9.5 25h12v-153h-12q-4 17 -9.5 24t-16.5 7h-30q-20 0 -26 -22q-4 -15 -4 -62v-182q0 -28 -27.5 -51.5t-61.5 -23.5h-113q-20 0 -29 -6.5t-13 -25.5h-13v136z" />
<glyph unicode="~" horiz-adv-x="667" d="M163 556l-70 57q55 134 146 134q37 0 111 -33q62 -28 83 -28q38 0 73 63l70 -57q-22 -53 -45 -81q-43 -54 -103 -54q-19 0 -38 6.5t-98 40.5q-36 15 -57 15t-37 -14t-35 -49z" />
<glyph unicode="&#xa1;" horiz-adv-x="378" d="M189 519q-33 0 -56.5 23.5t-23.5 56.5t23.5 56.5t56.5 23.5t56.5 -23.5t23.5 -57.5q0 -32 -23.5 -55.5t-56.5 -23.5zM87 0v16q19 3 24 10t8 32l35 301q1 4 1 22q0 17 -5.5 23.5t-24.5 11.5v16h128v-16q-20 -5 -25.5 -11.5t-5.5 -23.5q0 -8 2 -22l35 -301q3 -25 8.5 -32 t24.5 -10v-16h-205z" />
<glyph unicode="&#xa2;" d="M204 89q-68 34 -107.5 100t-39.5 146q0 86 45 154.5t124 101.5q50 21 118 27v27q0 27 -31 36v13h133v-13q-31 -9 -31 -36v-27q57 -2 103.5 -18.5t122.5 -62.5q8 -5 16 -5q5 0 19 9l10 -9l-82 -119l-11 8q1 6 1 10q0 22 -30 38q-73 42 -149 47v-363q66 5 126 35 q54 27 54 48q0 3 -1 6q0 4 -1 7l11 8l82 -120l-11 -8q-11 8 -19 8q-4 0 -58 -30q-84 -48 -183 -56v-29q0 -27 31 -36v-13h-133v13q31 9 31 36v30q-79 6 -140 37zM344 159v351q-72 -18 -112 -64t-40 -111t39.5 -111t112.5 -65z" />
<glyph unicode="&#xa3;" d="M69 87q55 29 76 63.5t21 94.5q0 13 -3 53h-40q-27 0 -35 -32h-16v158h16q8 -31 35 -31h28q-8 59 -8 85q0 91 71.5 146t190.5 55q88 0 156 -33q31 -16 74 -49q26 -19 41 -19q6 0 14 5l10 -12l-143 -103l-9 12q9 8 9 16q0 25 -44 47t-95 22q-63 0 -97.5 -26t-34.5 -73 q0 -13 6 -73h111q27 0 35 31h16v-158h-16q-8 32 -35 32h-101q4 -36 4 -53q0 -45 -11 -70.5t-43 -56.5q50 14 90 14q33 0 86 -13q43 -10 59 -10q23 0 42.5 13.5t19.5 29.5q0 11 -10 20l11 11l140 -108l-9 -11q-10 6 -18 6q-13 0 -54 -28q-63 -43 -125 -43q-27 0 -127 17 q-24 4 -67 4q-98 0 -174 -38z" />
<glyph unicode="&#xa4;" horiz-adv-x="767" d="M21 86l11 11q15 -9 24 -9q11 0 23 12l50 50q-53 77 -53 183t53 184l-50 50q-9 11 -23 11q-8 0 -24 -8l-11 11l115 115l11 -12q-9 -15 -9 -24q0 -11 12 -23l58 -58q78 39 176 39q100 0 174 -40l59 59q11 11 11 23q0 9 -8 24l11 12l114 -115l-11 -11q-13 8 -24 8 q-12 0 -23 -11l-49 -50q53 -76 53 -184t-54 -184l50 -49q12 -12 23 -12q9 0 24 9l11 -11l-114 -115l-11 11q8 15 8 24q0 12 -11 23l-59 59q-80 -40 -174 -40q-97 0 -176 40l-58 -59q-12 -14 -12 -23q0 -10 9 -24l-11 -11zM209 333q0 -79 49.5 -130.5t125.5 -51.5 q75 0 124.5 51t49.5 129q0 81 -49 132.5t-126 51.5q-76 0 -125 -51.5t-49 -130.5z" />
<glyph unicode="&#xa5;" d="M91 159v166h16q8 -32 35 -32h133l-58 116h-115q-27 0 -35 -39h-16v166h16q8 -31 35 -31h68l-48 77q-42 68 -82 69v16h264v-16q-33 -5 -33 -30q0 -7 18 -40l69 -177l72 177q18 32 18 40q0 25 -33 30v16h258v-16q-40 -1 -82 -69l-48 -77h68q27 0 35 31h16v-166h-16 q-8 39 -35 39h-115l-58 -116h133q27 0 35 32h16v-166h-16q-8 38 -35 38h-142v-146q0 -27 32 -35v-16h-209v16q32 8 32 35v146h-142q-27 0 -35 -38h-16z" />
<glyph unicode="&#xa6;" horiz-adv-x="500" d="M179 317v350h142v-350h-142zM179 153h142v-320h-142v320z" />
<glyph unicode="&#xa7;" horiz-adv-x="671" d="M47 -6l85 130l11 -7q-5 -11 -5 -17q0 -18 37 -41q67 -42 182 -42q73 0 117.5 23t44.5 61q0 26 -31 40t-112 22l-96 10q-198 21 -198 148q0 62 38 100q13 13 43 31q-44 22 -62.5 49.5t-18.5 70.5q0 82 64 128.5t177 46.5q92 0 212 -41q13 -6 26 -6q6 0 20 13l11 -5 l-67 -136l-11 6q3 14 3 16q0 13 -38 30q-63 27 -151 27q-66 0 -105.5 -18.5t-39.5 -49.5q0 -22 23.5 -33.5t82.5 -17.5l93 -10q130 -14 186.5 -53t56.5 -116q0 -92 -69 -130q41 -29 55 -53t14 -66q0 -50 -26 -91t-72 -62q-66 -31 -170 -31q-75 0 -134 16.5t-127 55.5 q-12 7 -17 7q-7 0 -22 -11zM183 337q0 -25 20 -35.5t86 -19.5l141 -20q50 20 69 38t19 46t-25 42t-90 21l-128 15q-92 -36 -92 -87z" />
<glyph unicode="&#xa8;" horiz-adv-x="500" d="M345 610q-25 0 -43.5 19t-18.5 45t18.5 44.5t44.5 18.5t45 -18.5t19 -44.5q0 -27 -19 -45.5t-46 -18.5zM152 610q-26 0 -44.5 19t-18.5 44q0 26 18.5 45t44.5 19q27 0 45.5 -19t18.5 -46q0 -25 -19 -43.5t-45 -18.5z" />
<glyph unicode="&#xa9;" horiz-adv-x="883" d="M161 80q-55 48 -85.5 114t-30.5 140q0 73 31 140t85 113q110 92 281 92q175 0 284 -92q116 -99 116 -258q0 -70 -31 -136t-85 -113q-107 -92 -283 -92q-173 0 -282 92zM196 133q90 -87 247 -87t247 87q83 80 83 197q0 133 -90 212.5t-241 79.5q-148 0 -238.5 -79 t-90.5 -209q0 -121 83 -201zM210 333q0 93 64.5 150t170.5 57q47 0 81 -10t85 -39q23 -13 27 -13q5 0 13 9l12 -9l-58 -88l-12 9l1 5v4q0 13 -31 30q-51 29 -107 29q-68 0 -110 -36.5t-42 -97.5q0 -60 42 -96.5t110 -36.5q57 0 107 28q31 18 31 30l-1 10l12 8l58 -87l-12 -9 q-9 9 -13 9q-5 0 -27 -13q-48 -28 -83.5 -39t-82.5 -11q-106 0 -170.5 57t-64.5 150z" />
<glyph unicode="&#xaa;" horiz-adv-x="511" d="M243 388q-61 0 -102.5 29t-41.5 70q0 43 41.5 71.5t103.5 28.5q53 0 89 -35v26q0 26 -26.5 42t-70.5 16q-31 0 -62 -7.5t-31 -14.5q0 -2 3 -6l2 -4l-14 -8l-40 57l14 9q6 -6 9 -6l2 1q3 1 5 1q44 21 111 21q71 0 114 -28.5t43 -76.5v-147q0 -8 5 -12t19 -6v-13h-83v31 q-21 -22 -40 -30.5t-50 -8.5zM249 435q36 0 60 14.5t24 35.5q0 24 -23 39.5t-60 15.5q-41 0 -67 -15.5t-26 -39.5q0 -21 27 -35.5t65 -14.5zM94 250v126h11q7 -31 26 -31h245q21 0 26 31h12v-126h-12q-4 18 -9.5 25t-16.5 7h-245q-19 0 -26 -32h-11z" />
<glyph unicode="&#xab;" horiz-adv-x="487" d="M329 87l-95 197l95 196h84l-95 -196l95 -197h-84zM155 87l-95 197l95 196h84l-96 -196l96 -197h-84z" />
<glyph unicode="&#xac;" horiz-adv-x="500" d="M33 165v124h433v-289h-138v165h-295z" />
<glyph unicode="&#xad;" horiz-adv-x="222" d="M0 189v169h16q8 -32 35 -32h120q15 0 23 7t12 25h16v-169h-16q-8 31 -35 31h-120q-27 0 -35 -31h-16z" />
<glyph unicode="&#xae;" horiz-adv-x="888" d="M161 80q-55 48 -85.5 114t-30.5 140q0 73 31 140t85 113q110 92 281 92q175 0 284 -92q116 -99 116 -258q0 -70 -31 -136t-85 -113q-107 -92 -283 -92q-173 0 -282 92zM196 133q90 -87 247 -87t247 87q83 80 83 197q0 133 -90 212.5t-241 79.5q-148 0 -238.5 -79 t-90.5 -209q0 -121 83 -201zM235 133v15q19 4 19 18v333q0 14 -19 19v15h250q83 0 119 -24q46 -30 46 -97q0 -47 -27 -77t-77 -38l73 -104q21 -29 29.5 -36.5t23.5 -7.5v-16h-149v15q15 3 15 8v1q0 3 -13 22l-79 114h-100v-127q0 -14 19 -18v-15h-130zM346 365h130 q47 0 62 8q20 12 20 40t-20 40q-15 8 -62 8h-130v-96z" />
<glyph unicode="&#xaf;" horiz-adv-x="500" d="M100 606v128h13q10 -28 36 -28h202q26 0 36 28h13v-128h-13q-9 27 -36 27h-202q-25 0 -36 -27h-13z" />
<glyph unicode="&#xb0;" horiz-adv-x="461" d="M231 370q-65 0 -111.5 46t-46.5 111q0 66 46 112.5t112 46.5t111.5 -46.5t45.5 -113.5q0 -64 -46.5 -110t-110.5 -46zM230 427q40 0 69.5 29.5t29.5 68.5q0 44 -29 74t-71 30q-39 0 -68 -30t-29 -71t29 -71t69 -30z" />
<glyph unicode="&#xb1;" horiz-adv-x="767" d="M114 254v159h15q7 -32 32 -32h174v175q0 24 -31 32v15h158v-15q-31 -7 -31 -32v-175h174q13 0 20 7t12 25h15v-159h-15q-7 31 -32 31h-174v-140q0 -14 7 -21t24 -12v-14h-158v14q31 8 31 33v140h-174q-25 0 -32 -31h-15zM114 66h15q7 -31 32 -31h444q25 0 32 31h15v-159 h-15q-4 18 -11 25t-21 7h-444q-25 0 -33 -32h-14v159z" />
<glyph unicode="&#xb2;" horiz-adv-x="352" d="M24 381q-3 55 23.5 86.5t97.5 58.5l39 15q49 19 49 47q0 33 -52 33q-31 0 -59 -12.5t-28 -26.5q0 -3 5 -13l-10 -8l-66 61l10 8q11 -4 14 -4q4 0 15 9q52 38 127 38q55 0 88 -23.5t33 -62.5q0 -31 -21 -53.5t-67 -40.5l-35 -14q-5 -2 -14 -5l-12 -4q-28 -10 -44 -22h184 q10 0 14 13h13v-80h-13q-4 12 -14 12h-244q-12 0 -15 -2t-5 -10h-13z" />
<glyph unicode="&#xb3;" horiz-adv-x="352" d="M26 411l-12 5l40 78l13 -5l-2 -6q0 -16 36.5 -29t80.5 -13q72 0 72 37q0 35 -71 35q-21 0 -28.5 -3t-9.5 -11h-13v72h13q2 -9 9.5 -11.5t33.5 -2.5t42.5 9t16.5 23q0 31 -65 31q-33 0 -64 -10.5t-31 -21.5q0 -3 4 -10l-11 -7l-57 61l10 7q9 -4 13 -4q3 0 11 4 q58 34 130 34q59 0 94 -22t35 -59q0 -31 -34 -54q26 -11 36.5 -24.5t10.5 -35.5q0 -41 -39.5 -65t-107.5 -24q-65 0 -114 21q-22 9 -27 9t-15 -8z" />
<glyph unicode="&#xb4;" horiz-adv-x="500" d="M185 609v13q11 0 16 3t10 15l32 78q2 6 2 7q0 8 -14 10v13h149v-13q-20 -1 -29 -13l-69 -84q-3 -3 -3 -8q0 -8 10 -8h2v-13h-106z" />
<glyph unicode="&#xb5;" horiz-adv-x="690" d="M68 -172v669q0 27 -31 36v14h194v-14q-32 -8 -32 -36v-263q0 -46 8 -70.5t28 -40.5q40 -32 115 -32q76 0 116 32q20 16 27.5 40.5t7.5 70.5v263q0 28 -31 36v14h183v-14q-32 -8 -32 -36v-290q0 -125 -70 -172t-206 -47q-81 0 -146 19v-179q0 -28 32 -36v-14h-194v14 q31 9 31 36z" />
<glyph unicode="&#xb6;" horiz-adv-x="638" d="M282 -65q19 5 25 13.5t6 28.5v333h-88q-30 0 -66.5 10.5t-58.5 25.5q-80 56 -80 148q0 46 25 85t70 62q23 12 85 22q27 4 33 4h378v-16q-19 -4 -25 -13t-6 -29v-632q0 -20 6 -28.5t25 -13.5v-15h-124v687h-81v-687h-124v15z" />
<glyph unicode="&#xb7;" horiz-adv-x="307" d="M153 167q-33 0 -56.5 23.5t-23.5 56.5t23.5 56.5t56.5 23.5q34 0 57 -23.5t23 -57.5q0 -32 -24 -55.5t-56 -23.5z" />
<glyph unicode="&#xb8;" horiz-adv-x="500" d="M185 -109l26 48q6 11 8.5 12.5t10.5 1.5q61 0 95 -20t34 -57t-32 -59t-86 -22q-59 0 -99 14l11 23q28 -8 50 -8q32 0 50.5 11t18.5 30q0 14 -10.5 24t-24.5 10q-21 0 -38 -17z" />
<glyph unicode="&#xb9;" horiz-adv-x="352" d="M137 393v12q13 3 15 13.5t2 71.5q0 17 -2 93l-18 -4q-11 -2 -15 -14h-13v77h13l2 -5q3 -7 8 -7q1 0 6 1l17 4v5q0 8 -2.5 11t-12.5 5v12h102v-12q-9 -2 -12 -5q-9 -11 -9 -120q0 -112 9 -121q2 -2 12 -5v-12h-102z" />
<glyph unicode="&#xba;" horiz-adv-x="511" d="M255 401q-70 0 -113 38.5t-43 100.5q0 61 43.5 100t112.5 39q71 0 113.5 -38.5t42.5 -102.5q0 -61 -43.5 -99t-112.5 -38zM255 456q37 0 62 24t25 59q0 37 -24.5 61t-62.5 24t-62.5 -23.5t-24.5 -60.5q0 -36 25 -60t62 -24zM95 250v126h11q7 -31 26 -31h245q21 0 26 31 h12v-126h-12q-4 18 -9.5 25t-16.5 7h-245q-19 0 -26 -32h-11z" />
<glyph unicode="&#xbb;" horiz-adv-x="487" d="M247 87l96 197l-96 196h84l95 -196l-95 -197h-84zM73 87l96 197l-96 196h84l95 -196l-95 -197h-84z" />
<glyph unicode="&#xbc;" horiz-adv-x="1234" d="M340 0v16q24 4 37 16t38 54l297 496q15 26 15 36q0 12 -11 21.5t-27 11.5v16h205v-16q-26 -4 -35.5 -13t-37.5 -56l-301 -508q-12 -20 -12 -30q0 -25 37 -28v-16h-205zM185 267v15q20 5 20 18v245l-25 -6q-11 -3 -14.5 -6.5t-6.5 -14.5h-16v111h16l2 -7q4 -10 12 -10l8 1 l24 6v15q0 13 -20 18v15h137v-15q-20 -5 -20 -18v-334q0 -13 20 -18v-15h-137zM794 48v87l212 221q13 14 13 19q0 8 -16 9v16h174v-15q-20 -5 -20 -18v-230h20q15 0 20 19h16v-108h-16q-5 18 -20 18h-20v-33q0 -13 20 -18v-15h-137v15q20 5 20 18v33h-221q-18 0 -22.5 -3 t-7.5 -15h-15zM907 137h153v162z" />
<glyph unicode="&#xbd;" horiz-adv-x="1234" d="M340 0v16q24 4 37 16t38 54l297 496q15 26 15 36q0 12 -11 21.5t-27 11.5v16h205v-16q-26 -4 -35.5 -13t-37.5 -56l-301 -508q-12 -20 -12 -30q0 -25 37 -28v-16h-205zM185 267v15q20 5 20 18v245l-25 -6q-11 -3 -14.5 -6.5t-6.5 -14.5h-16v111h16l2 -7q4 -10 12 -10l8 1 l24 6v15q0 13 -20 18v15h137v-15q-20 -5 -20 -18v-334q0 -13 20 -18v-15h-137zM791 3q0 61 31 101q21 27 48.5 45t84.5 42l53 22q68 28 68 70q0 50 -72 50q-42 0 -80.5 -18.5t-38.5 -39.5q0 -2 5 -18l-11 -11l-88 88l12 10q12 -6 18 -6t22 13q70 56 172 56q74 0 118.5 -34 t44.5 -91q0 -88 -119 -137l-48 -20l-34 -13q-49 -18 -64 -34h254q15 0 20 18h16v-114h-16q-5 18 -20 18h-332q-16 0 -20.5 -3t-7.5 -15h-16v21z" />
<glyph unicode="&#xbe;" horiz-adv-x="1234" d="M30 292l-13 6l52 112l15 -6q-2 -6 -2 -8q0 -24 49.5 -43.5t110.5 -19.5q46 0 72.5 15t26.5 41q0 53 -96 53q-30 0 -40 -4t-13 -17h-16v104h16q4 -14 13 -17.5t40 -3.5q41 0 64 13t23 35q0 48 -89 48q-47 0 -89 -15.5t-42 -33.5q0 -5 5 -14l-13 -9l-76 87l12 9 q12 -6 18 -6q5 0 15 6q79 50 177 50q79 0 126.5 -32t47.5 -85q0 -52 -49 -80q66 -25 66 -88q0 -60 -53.5 -95t-144.5 -35q-84 0 -156 31q-29 13 -36 13q-6 0 -21 -11zM339 0v16q25 4 37.5 16t37.5 54l298 496q15 26 15 36q0 12 -11 21.5t-27 11.5v16h205v-16 q-26 -4 -35.5 -13t-37.5 -56l-301 -508q-13 -22 -13 -30q0 -25 38 -28v-16h-206zM793 48v87l213 221q13 14 13 19q0 8 -16 9v16h174v-15q-20 -5 -20 -18v-230h20q15 0 20 19h16v-108h-16q-5 18 -20 18h-20v-33q0 -13 20 -18v-15h-137v15q20 5 20 18v33h-222q-18 0 -22.5 -3 t-6.5 -15h-16zM906 137h154v162z" />
<glyph unicode="&#xbf;" horiz-adv-x="488" d="M244 519q-33 0 -56.5 23.5t-23.5 57.5q0 32 24 55.5t56 23.5q33 0 56.5 -23.5t23.5 -56.5t-23.5 -56.5t-56.5 -23.5zM60 136q0 39 19.5 74t67.5 82q33 32 43.5 51t10.5 49q0 13 -6 19t-23 10v16h161v-16q-19 -6 -26 -17t-12 -44q-4 -31 -13.5 -48.5t-41.5 -57.5 q-27 -35 -36.5 -53.5t-9.5 -38.5q0 -32 20.5 -51.5t55.5 -19.5q37 0 71.5 23t34.5 48q0 5 -4 17l13 9l84 -123l-13 -9l-4 2q-10 6 -17 6q-11 0 -41 -20q-84 -56 -160 -56q-77 0 -125.5 41.5t-48.5 106.5z" />
<glyph unicode="&#xc0;" horiz-adv-x="813" d="M344 722v13h2q10 0 10 8q0 5 -3 8l-69 84q-11 13 -29 14v13h148v-13q-14 -2 -14 -10l1 -2q1 -3 1 -5l33 -79q5 -12 9.5 -15t16.5 -3v-13h-106zM3 0v16q19 3 29 12.5t24 38.5l246 513q11 24 11 39q0 23 -28 32v16h236v-16q-29 -8 -29 -28q0 -15 9 -33l254 -514 q17 -35 28.5 -46t32.5 -14v-16h-245v16q32 5 32 30q0 10 -10 30l-46 94h-302l-45 -94q-9 -18 -9 -31q0 -21 32 -29v-16h-220zM289 261h217l-108 238z" />
<glyph unicode="&#xc1;" horiz-adv-x="813" d="M362 722v13q12 0 16.5 3t9.5 15l32 79q2 6 2 7q0 8 -14 10v13h149v-13q-19 -1 -29 -14l-69 -84q-3 -3 -3 -8q0 -8 10 -8h2v-13h-106zM3 0v16q19 3 29 12.5t24 38.5l246 513q11 24 11 39q0 23 -28 32v16h236v-16q-29 -8 -29 -28q0 -15 9 -33l254 -514q17 -35 28.5 -46 t32.5 -14v-16h-245v16q32 5 32 30q0 10 -10 30l-46 94h-302l-45 -94q-9 -18 -9 -31q0 -21 32 -29v-16h-220zM289 261h217l-108 238z" />
<glyph unicode="&#xc2;" horiz-adv-x="813" d="M247 722v13q12 1 17 4l7 6l75 84q6 6 6 12q0 8 -14 8h-3v13h155v-13q-15 -1 -15 -9q0 -6 8 -14l73 -81q8 -9 22 -10v-13h-140v13q15 1 15 7q0 2 -3 7l-5 5l-41 50l-45 -51q-5 -7 -5 -9q0 -8 15 -9v-13h-122zM3 0v16q19 3 29 12.5t24 38.5l246 513q11 24 11 39 q0 23 -28 32v16h236v-16q-29 -8 -29 -28q0 -15 9 -33l254 -514q17 -35 28.5 -46t32.5 -14v-16h-245v16q32 5 32 30q0 10 -10 30l-46 94h-302l-45 -94q-9 -18 -9 -31q0 -21 32 -29v-16h-220zM289 261h217l-108 238z" />
<glyph unicode="&#xc3;" horiz-adv-x="813" d="M317 724l-73 68l7 8q11 -4 17 -4q9 0 18 11q29 39 74 39q18 0 32 -6l73 -29q12 -5 25 -5q10 0 18.5 8t8.5 16q0 6 -8 17l10 7l71 -65l-8 -10q-13 4 -18 4q-6 0 -13 -8q-32 -45 -69 -45q-20 0 -42 9l-72 28q-15 3 -21 3q-10 0 -19.5 -8t-9.5 -16q0 -6 8 -15zM3 0v16 q19 3 29 12.5t24 38.5l246 513q11 24 11 39q0 23 -28 32v16h236v-16q-29 -8 -29 -28q0 -15 9 -33l254 -514q17 -35 28.5 -46t32.5 -14v-16h-245v16q32 5 32 30q0 10 -10 30l-46 94h-302l-45 -94q-9 -18 -9 -31q0 -21 32 -29v-16h-220zM289 261h217l-108 238z" />
<glyph unicode="&#xc4;" horiz-adv-x="813" d="M505 723q-25 0 -43.5 19t-18.5 45q0 25 18.5 44t44.5 19t45 -18.5t19 -44.5q0 -27 -19 -45.5t-46 -18.5zM312 723q-26 0 -44.5 18.5t-18.5 44.5t18.5 45t44.5 19q27 0 45.5 -19t18.5 -46q0 -25 -19 -43.5t-45 -18.5zM3 0v16q19 3 29 12.5t24 38.5l246 513q11 24 11 39 q0 23 -28 32v16h236v-16q-29 -8 -29 -28q0 -15 9 -33l254 -514q17 -35 28.5 -46t32.5 -14v-16h-245v16q32 5 32 30q0 10 -10 30l-46 94h-302l-45 -94q-9 -18 -9 -31q0 -21 32 -29v-16h-220zM289 261h217l-108 238z" />
<glyph unicode="&#xc5;" horiz-adv-x="813" d="M406 702q-45 0 -78 27.5t-33 64.5q0 38 32.5 64.5t78.5 26.5q47 0 79.5 -26.5t32.5 -65.5q0 -38 -33 -64.5t-79 -26.5zM407 753q20 0 34.5 12t14.5 28q0 18 -14 29.5t-36 11.5q-21 0 -35 -11.5t-14 -28.5t14.5 -29t35.5 -12zM3 0v16q19 3 29 12.5t24 38.5l246 513 q11 24 11 39q0 23 -28 32v16h236v-16q-29 -8 -29 -28q0 -15 9 -33l254 -514q17 -35 28.5 -46t32.5 -14v-16h-245v16q32 5 32 30q0 10 -10 30l-46 94h-302l-45 -94q-9 -18 -9 -31q0 -21 32 -29v-16h-220zM289 261h217l-108 238z" />
<glyph unicode="&#xc6;" horiz-adv-x="1163" d="M-13 0v16q20 4 31.5 13.5t27.5 37.5l295 513q16 29 16 42q0 19 -29 29v16h729q27 0 35 31h16v-172h-16q-8 31 -35 31h-417v-159h270q27 0 35 32h16v-169h-16q-8 31 -35 31h-270v-182h429q27 0 35 31h16v-172h-16q-8 31 -35 31h-605v16q31 8 31 35v119h-239l-55 -94 q-12 -21 -12 -33q0 -19 29 -27v-16h-231zM309 261h186v296h-21z" />
<glyph unicode="&#xc7;" horiz-adv-x="839" d="M178 63q-64 46 -98.5 117t-34.5 154t34.5 153.5t98.5 116.5q102 75 260 75q130 0 244 -64q18 -9 59 -33q16 -9 23 -9q9 0 23 13l12 -9l-92 -139l-13 9v14q0 25 -56 56q-86 49 -182 49q-113 0 -182 -57q-80 -67 -80 -175q0 -109 80 -176q69 -57 182 -57q96 0 182 49 q32 18 44 30.5t12 26.5v13l13 9l92 -139l-12 -9q-14 13 -23 13q-8 0 -65 -33q-69 -40 -128.5 -56.5t-133.5 -16.5q-159 0 -259 75zM314 -187q28 -9 54 -9q34 0 54 12.5t20 33.5q0 16 -11 27.5t-27 11.5q-23 0 -40 -19l-16 10l31 60q4 10 17 10q67 0 103.5 -23t36.5 -64 t-34.5 -66t-92.5 -25q-60 0 -107 15z" />
<glyph unicode="&#xc8;" horiz-adv-x="760" d="M343 722v13h2q10 0 10 8q0 5 -3 8l-69 84q-11 13 -29 14v13h148v-13q-14 -2 -14 -10l1 -2q1 -3 1 -5l33 -79q5 -12 10 -15t16 -3v-13h-106zM60 0v16q31 8 31 35v565q0 27 -31 35v16h594q27 0 35 31h16v-172h-16q-8 31 -35 31h-418v-159h271q15 0 23 7t12 25h16v-169h-16 q-8 31 -35 31h-271v-182h430q27 0 35 31h15v-172h-15q-8 31 -35 31h-606z" />
<glyph unicode="&#xc9;" horiz-adv-x="760" d="M351 722v13q11 0 16 3t10 15l32 79q2 6 2 7q0 8 -14 10v13h149v-13q-19 -1 -29 -14l-69 -84q-3 -3 -3 -8q0 -8 10 -8h2v-13h-106zM60 0v16q31 8 31 35v565q0 27 -31 35v16h594q27 0 35 31h16v-172h-16q-8 31 -35 31h-418v-159h271q15 0 23 7t12 25h16v-169h-16 q-8 31 -35 31h-271v-182h430q27 0 35 31h15v-172h-15q-8 31 -35 31h-606z" />
<glyph unicode="&#xca;" horiz-adv-x="760" d="M236 722v13q12 1 17 4l7 6l75 84q6 6 6 12q0 8 -14 8h-3v13h155v-13q-15 -1 -15 -9q0 -6 8 -14l73 -81q8 -9 22 -10v-13h-140v13q15 1 15 7q0 2 -3 7l-5 5l-41 50l-45 -51q-5 -7 -5 -9q0 -8 15 -9v-13h-122zM60 0v16q31 8 31 35v565q0 27 -31 35v16h594q27 0 35 31h16 v-172h-16q-8 31 -35 31h-418v-159h271q15 0 23 7t12 25h16v-169h-16q-8 31 -35 31h-271v-182h430q27 0 35 31h15v-172h-15q-8 31 -35 31h-606z" />
<glyph unicode="&#xcb;" horiz-adv-x="760" d="M494 723q-25 0 -43.5 19t-18.5 45q0 25 19 44t44 19q26 0 45 -18.5t19 -44.5q0 -27 -19 -45.5t-46 -18.5zM301 723q-25 0 -44 18.5t-19 44.5t18.5 45t44.5 19q27 0 45.5 -19t18.5 -46q0 -25 -19 -43.5t-45 -18.5zM60 0v16q31 8 31 35v565q0 27 -31 35v16h594q27 0 35 31 h16v-172h-16q-8 31 -35 31h-418v-159h271q15 0 23 7t12 25h16v-169h-16q-8 31 -35 31h-271v-182h430q27 0 35 31h15v-172h-15q-8 31 -35 31h-606z" />
<glyph unicode="&#xcc;" horiz-adv-x="328" d="M111 722v13h2q10 0 10 8q0 5 -3 8l-69 84q-11 13 -29 14v13h148v-13q-14 -2 -14 -10l1 -2q1 -3 1 -5l33 -79q5 -12 10 -15t16 -3v-13h-106zM60 0v16q31 8 31 35v565q0 27 -31 35v16h207v-16q-31 -8 -31 -35v-565q0 -27 31 -35v-16h-207z" />
<glyph unicode="&#xcd;" horiz-adv-x="328" d="M118 722v13q12 0 16.5 3t9.5 15l32 79q2 6 2 7q0 8 -14 10v13h149v-13q-19 -1 -29 -14l-69 -84q-3 -3 -3 -8q0 -8 10 -8h2v-13h-106zM60 0v16q31 8 31 35v565q0 27 -31 35v16h207v-16q-31 -8 -31 -35v-565q0 -27 31 -35v-16h-207z" />
<glyph unicode="&#xce;" horiz-adv-x="328" d="M15 722v13q9 1 12 1.5t8 4.5t14 15l62 73q5 5 5 12q0 8 -13 8h-3v13h154v-13q-15 -1 -15 -9q0 -5 8 -14l71 -81q8 -9 22 -10v-13h-140v13q15 1 15 7q0 2 -3 7l-5 5l-38 50l-42 -51q-4 -6 -4 -9q0 -8 14 -9v-13h-122zM60 0v16q31 8 31 35v565q0 27 -31 35v16h207v-16 q-31 -8 -31 -35v-565q0 -27 31 -35v-16h-207z" />
<glyph unicode="&#xcf;" horiz-adv-x="328" d="M246 723q-25 0 -43.5 19t-18.5 45q0 25 19 44t44 19q26 0 45 -18.5t19 -44.5q0 -27 -19 -45.5t-46 -18.5zM86 723q-26 0 -44.5 18.5t-18.5 44.5t18.5 45t44.5 19q27 0 45.5 -19t18.5 -46q0 -25 -19 -43.5t-45 -18.5zM60 0v16q31 8 31 35v565q0 27 -31 35v16h207v-16 q-31 -8 -31 -35v-565q0 -27 31 -35v-16h-207z" />
<glyph unicode="&#xd0;" horiz-adv-x="838" d="M60 0v16q31 8 31 35v245h-32q-27 0 -35 -31h-16v160h16q4 -18 12 -25t23 -7h32v223q0 27 -31 35v16h372q93 0 152 -16.5t104 -54.5q106 -89 106 -263q0 -171 -106 -262q-44 -38 -103.5 -54.5t-152.5 -16.5h-372zM236 110h184q66 0 106 13.5t68 45.5q51 57 51 164 q0 108 -51 165q-28 32 -68 45.5t-106 13.5h-184v-164h150q27 0 35 32h16v-160h-16q-8 31 -35 31h-150v-186z" />
<glyph unicode="&#xd1;" horiz-adv-x="871" d="M356 724l-73 68l7 8q11 -4 17 -4q9 0 18 11q29 39 74 39q18 0 32 -6l73 -29q12 -5 25 -5q10 0 18.5 8t8.5 16q0 6 -8 17l10 7l71 -65l-8 -10q-13 4 -18 4q-6 0 -13 -8q-32 -45 -69 -45q-20 0 -42 9l-72 28q-15 3 -21 3q-10 0 -19.5 -8t-9.5 -16q0 -6 8 -15zM60 0v16 q31 8 31 35v565q0 27 -31 35v16h227v-16q-21 -5 -21 -22q0 -12 13 -26l368 -383v396q0 27 -31 35v16h195v-16q-31 -8 -31 -35v-565q0 -27 31 -35v-16h-209v16q20 4 20 21q0 10 -23 34l-375 386v-406q0 -27 31 -35v-16h-195z" />
<glyph unicode="&#xd2;" horiz-adv-x="856" d="M376 722v13h2q10 0 10 8q0 5 -3 8l-69 84q-11 13 -29 14v13h148v-13q-14 -2 -14 -10l1 -2q1 -3 1 -5l33 -79q5 -12 9.5 -15t16.5 -3v-13h-106zM153 83q-108 100 -108 251q0 72 28.5 138.5t79.5 112.5q104 94 274 94q175 0 276 -94q108 -100 108 -256q0 -69 -28.5 -133.5 t-79.5 -112.5q-104 -95 -275 -95t-275 95zM194 333q0 -101 66 -166.5t168 -65.5q101 0 167.5 65t66.5 164q0 105 -65.5 170.5t-169.5 65.5q-102 0 -167.5 -65.5t-65.5 -167.5z" />
<glyph unicode="&#xd3;" horiz-adv-x="856" d="M384 722v13q12 0 16.5 3t9.5 15l32 79q2 6 2 7q0 8 -14 10v13h149v-13q-19 -1 -29 -14l-69 -84q-3 -3 -3 -8q0 -8 10 -8h2v-13h-106zM153 83q-108 100 -108 251q0 72 28.5 138.5t79.5 112.5q104 94 274 94q175 0 276 -94q108 -100 108 -256q0 -69 -28.5 -133.5 t-79.5 -112.5q-104 -95 -275 -95t-275 95zM194 333q0 -101 66 -166.5t168 -65.5q101 0 167.5 65t66.5 164q0 105 -65.5 170.5t-169.5 65.5q-102 0 -167.5 -65.5t-65.5 -167.5z" />
<glyph unicode="&#xd4;" horiz-adv-x="856" d="M273 722v13q12 1 17 4l7 6l75 84q6 6 6 12q0 8 -14 8h-3v13h155v-13q-15 -1 -15 -9q0 -6 8 -14l73 -81q8 -9 22 -10v-13h-140v13q15 1 15 7q0 2 -3 7l-5 5l-41 50l-45 -51q-5 -7 -5 -9q0 -8 15 -9v-13h-122zM153 83q-108 100 -108 251q0 72 28.5 138.5t79.5 112.5 q104 94 274 94q175 0 276 -94q108 -100 108 -256q0 -69 -28.5 -133.5t-79.5 -112.5q-104 -95 -275 -95t-275 95zM194 333q0 -101 66 -166.5t168 -65.5q101 0 167.5 65t66.5 164q0 105 -65.5 170.5t-169.5 65.5q-102 0 -167.5 -65.5t-65.5 -167.5z" />
<glyph unicode="&#xd5;" horiz-adv-x="856" d="M345 724l-73 68l7 8q11 -4 17 -4q9 0 18 11q29 39 74 39q18 0 32 -6l73 -29q12 -5 25 -5q10 0 18.5 8t8.5 16q0 6 -8 17l10 7l71 -65l-8 -10q-13 4 -18 4q-6 0 -13 -8q-32 -45 -69 -45q-20 0 -42 9l-72 28q-15 3 -21 3q-10 0 -19.5 -8t-9.5 -16q0 -6 8 -15zM153 83 q-108 100 -108 251q0 72 28.5 138.5t79.5 112.5q104 94 274 94q175 0 276 -94q108 -100 108 -256q0 -69 -28.5 -133.5t-79.5 -112.5q-104 -95 -275 -95t-275 95zM194 333q0 -101 66 -166.5t168 -65.5q101 0 167.5 65t66.5 164q0 105 -65.5 170.5t-169.5 65.5 q-102 0 -167.5 -65.5t-65.5 -167.5z" />
<glyph unicode="&#xd6;" horiz-adv-x="856" d="M527 723q-25 0 -43.5 19t-18.5 45q0 25 18.5 44t44.5 19t45 -18.5t19 -44.5q0 -27 -19 -45.5t-46 -18.5zM334 723q-26 0 -44.5 18.5t-18.5 44.5t18.5 45t44.5 19q27 0 45.5 -19t18.5 -46q0 -25 -19 -43.5t-45 -18.5zM153 83q-108 100 -108 251q0 72 28.5 138.5 t79.5 112.5q104 94 274 94q175 0 276 -94q108 -100 108 -256q0 -69 -28.5 -133.5t-79.5 -112.5q-104 -95 -275 -95t-275 95zM194 333q0 -101 66 -166.5t168 -65.5q101 0 167.5 65t66.5 164q0 105 -65.5 170.5t-169.5 65.5q-102 0 -167.5 -65.5t-65.5 -167.5z" />
<glyph unicode="&#xd7;" horiz-adv-x="767" d="M125 187l10 11q16 -10 25 -10q10 0 20 10l135 135l-135 135q-8 10 -20 10q-10 0 -25 -9l-10 10l112 112l10 -10q-9 -17 -9 -24q0 -11 10 -21l135 -135l135 135q10 10 10 21q0 9 -9 24l10 10l112 -112l-10 -10q-17 9 -25 9q-10 0 -20 -10l-135 -135l135 -135 q10 -10 20 -10q9 0 25 10l10 -11l-112 -112l-10 11q9 16 9 24q0 11 -10 21l-135 135l-135 -135q-10 -12 -10 -21q0 -8 9 -24l-10 -11z" />
<glyph unicode="&#xd8;" horiz-adv-x="856" d="M53 -48q25 5 43.5 21t54.5 64l22 29q-128 105 -128 268q0 151 108 251q101 94 275 94q97 0 183 -33l16 21q9 13 9 22q0 22 -28 25v19h195v-19q-24 -4 -38 -17t-55 -65l-25 -32q126 -106 126 -267q0 -150 -108 -250q-104 -95 -275 -95q-95 0 -181 33l-16 -22 q-13 -18 -13 -26q0 -20 30 -21v-19h-195v19zM254 173l280 371q-50 22 -105 22q-104 0 -170 -65t-66 -167q0 -91 61 -161zM324 122q50 -21 103 -21q104 0 170 65t66 167q0 88 -59 159z" />
<glyph unicode="&#xd9;" horiz-adv-x="816" d="M363 722v13h2q10 0 10 8q0 5 -3 8l-69 84q-11 13 -29 14v13h148v-13q-14 -2 -14 -10l1 -2q1 -3 1 -5l33 -79q5 -12 10 -15t16 -3v-13h-106zM165 40q-87 54 -87 202v374q0 27 -31 35v16h208v-16q-32 -7 -32 -35v-333q0 -58 6.5 -85.5t23.5 -46.5q47 -50 161 -50 q113 0 160 50q17 19 23.5 46.5t6.5 85.5v333q0 27 -31 35v16h196v-16q-31 -8 -31 -35v-374q0 -150 -87 -202q-85 -52 -243 -52q-157 0 -243 52z" />
<glyph unicode="&#xda;" horiz-adv-x="816" d="M368 722v13q12 0 16.5 3t9.5 15l32 79q2 6 2 7q0 8 -14 10v13h149v-13q-19 -1 -29 -14l-69 -84q-3 -3 -3 -8q0 -8 10 -8h2v-13h-106zM165 40q-87 54 -87 202v374q0 27 -31 35v16h208v-16q-32 -7 -32 -35v-333q0 -58 6.5 -85.5t23.5 -46.5q47 -50 161 -50q113 0 160 50 q17 19 23.5 46.5t6.5 85.5v333q0 27 -31 35v16h196v-16q-31 -8 -31 -35v-374q0 -150 -87 -202q-85 -52 -243 -52q-157 0 -243 52z" />
<glyph unicode="&#xdb;" horiz-adv-x="816" d="M263 722v13q12 1 17 4l7 6l75 84q6 6 6 12q0 8 -14 8h-3v13h155v-13q-15 -1 -15 -9q0 -6 8 -14l73 -81q8 -9 22 -10v-13h-140v13q15 1 15 7q0 2 -3 7l-5 5l-41 50l-45 -51q-5 -7 -5 -9q0 -8 15 -9v-13h-122zM165 40q-87 54 -87 202v374q0 27 -31 35v16h208v-16 q-32 -7 -32 -35v-333q0 -58 6.5 -85.5t23.5 -46.5q47 -50 161 -50q113 0 160 50q17 19 23.5 46.5t6.5 85.5v333q0 27 -31 35v16h196v-16q-31 -8 -31 -35v-374q0 -150 -87 -202q-85 -52 -243 -52q-157 0 -243 52z" />
<glyph unicode="&#xdc;" horiz-adv-x="816" d="M524 723q-25 0 -43.5 19t-18.5 45q0 25 19 44t44 19q26 0 45 -18.5t19 -44.5q0 -27 -19 -45.5t-46 -18.5zM331 723q-25 0 -44 18.5t-19 44.5t18.5 45t44.5 19q27 0 45.5 -19t18.5 -46q0 -25 -19 -43.5t-45 -18.5zM165 40q-87 54 -87 202v374q0 27 -31 35v16h208v-16 q-32 -7 -32 -35v-333q0 -58 6.5 -85.5t23.5 -46.5q47 -50 161 -50q113 0 160 50q17 19 23.5 46.5t6.5 85.5v333q0 27 -31 35v16h196v-16q-31 -8 -31 -35v-374q0 -150 -87 -202q-85 -52 -243 -52q-157 0 -243 52z" />
<glyph unicode="&#xdd;" d="M319 722v13q11 0 16 3t10 15l32 79q2 6 2 7q0 8 -14 10v13h149v-13q-19 -1 -29 -14l-69 -84q-3 -3 -3 -8q0 -8 10 -8h2v-13h-106zM252 0v16q32 8 32 35v228l-215 303q-27 39 -44 53.5t-38 15.5v16h264v-16q-33 -5 -33 -30q0 -8 20 -39l120 -179l124 179q20 29 20 40 t-9 19t-24 10v16h258v-16q-21 -1 -37.5 -15.5t-44.5 -53.5l-216 -303v-228q0 -27 32 -35v-16h-209z" />
<glyph unicode="&#xde;" horiz-adv-x="715" d="M60 0v16q31 8 31 35v565q0 27 -31 35v16h207v-16q-31 -8 -31 -35v-49h189q73 0 116 -9.5t75 -33.5q34 -26 53 -67t19 -88q0 -102 -72 -155q-59 -44 -191 -44h-189v-119q0 -27 31 -35v-16h-207zM236 280h176q68 0 93 14q38 21 38 75q0 53 -38 74q-27 14 -93 14h-176v-177z " />
<glyph unicode="&#xdf;" horiz-adv-x="1232" d="M648 37l56 134l12 -5v-4q0 -13 10 -21q25 -22 85 -38t118 -16q65 0 104.5 18t39.5 49q0 30 -35 42q-21 8 -85 13l-77 7q-110 9 -152 35q-66 42 -66 127q0 82 68.5 131t182.5 49q56 0 105 -12.5t116 -43.5q21 -9 28 -9q8 0 19 11l13 -6l-66 -128l-12 6v6q0 26 -66 51.5 t-136 25.5q-59 0 -98 -19.5t-39 -48.5q0 -24 25.5 -34t98.5 -16l76 -6q103 -8 155 -39q34 -19 53 -54t19 -76q0 -83 -72.5 -130.5t-197.5 -47.5q-123 0 -239 52q-5 4 -13 4q-10 0 -18 -12zM32 37l56 134l13 -5q-1 -2 -1 -4q0 -13 10 -21q25 -22 85 -38t118 -16 q65 0 104.5 18t39.5 49q0 30 -35 42q-21 8 -85 13l-77 7q-110 9 -151 35q-67 41 -67 127q0 82 68.5 131t182.5 49q56 0 105 -12.5t116 -43.5q21 -9 28 -9q8 0 20 11l12 -6l-66 -128l-12 6v6q0 26 -66 51.5t-136 25.5q-59 0 -98 -19.5t-39 -48.5q0 -24 25.5 -34t98.5 -16 l77 -6q102 -8 154 -39q34 -19 53 -54t19 -76q0 -83 -72.5 -130.5t-197.5 -47.5q-124 0 -238 52q-7 4 -14 4q-10 0 -18 -12z" />
<glyph unicode="&#xe0;" horiz-adv-x="694" d="M281 609v13h2q10 0 10 8q0 4 -3 8l-69 84q-9 12 -29 13v13h148v-13q-14 -2 -14 -10l1 -2q1 -3 1 -5l33 -78q5 -12 10 -15t16 -3v-13h-106zM3 0v13q18 3 27.5 12t21.5 33l199 404q12 24 12 40q0 20 -28 31v14h213v-14q-27 -10 -27 -33q0 -16 12 -39l208 -393 q17 -32 26.5 -41.5t29.5 -13.5v-13h-223v13q32 6 32 30q0 14 -13 38l-30 56h-252l-28 -59q-11 -25 -11 -34q0 -23 32 -31v-13h-201zM249 214h175l-90 175z" />
<glyph unicode="&#xe1;" horiz-adv-x="694" d="M301 609v13q11 0 16 3t10 15l32 78q2 6 2 7q0 8 -14 10v13h149v-13q-20 -1 -29 -13l-69 -84q-3 -3 -3 -8q0 -8 10 -8h2v-13h-106zM3 0v13q18 3 27.5 12t21.5 33l199 404q12 24 12 40q0 20 -28 31v14h213v-14q-27 -10 -27 -33q0 -16 12 -39l208 -393q17 -32 26.5 -41.5 t29.5 -13.5v-13h-223v13q32 6 32 30q0 14 -13 38l-30 56h-252l-28 -59q-11 -25 -11 -34q0 -23 32 -31v-13h-201zM249 214h175l-90 175z" />
<glyph unicode="&#xe2;" horiz-adv-x="694" d="M186 608v13q12 1 17 4l7 6l75 84q6 6 6 12q0 8 -14 8h-3v13h155v-13q-15 -1 -15 -9q0 -6 8 -14l73 -81q8 -9 22 -10v-13h-140v13q15 1 15 7q0 2 -3 7l-5 5l-41 50l-45 -51q-5 -7 -5 -9q0 -8 15 -9v-13h-122zM3 0v13q18 3 27.5 12t21.5 33l199 404q12 24 12 40 q0 20 -28 31v14h213v-14q-27 -10 -27 -33q0 -16 12 -39l208 -393q17 -32 26.5 -41.5t29.5 -13.5v-13h-223v13q32 6 32 30q0 14 -13 38l-30 56h-252l-28 -59q-11 -25 -11 -34q0 -23 32 -31v-13h-201zM249 214h175l-90 175z" />
<glyph unicode="&#xe3;" horiz-adv-x="694" d="M254 611l-73 68l7 8q11 -4 17 -4q9 0 18 11q29 39 74 39q18 0 32 -6l73 -29q12 -5 25 -5q10 0 18.5 8t8.5 16q0 6 -8 17l10 7l71 -65l-8 -10q-13 4 -18 4q-6 0 -13 -8q-32 -45 -69 -45q-20 0 -42 9l-72 28q-15 3 -21 3q-10 0 -19.5 -8t-9.5 -16q0 -6 8 -15zM3 0v13 q18 3 27.5 12t21.5 33l199 404q12 24 12 40q0 20 -28 31v14h213v-14q-27 -10 -27 -33q0 -16 12 -39l208 -393q17 -32 26.5 -41.5t29.5 -13.5v-13h-223v13q32 6 32 30q0 14 -13 38l-30 56h-252l-28 -59q-11 -25 -11 -34q0 -23 32 -31v-13h-201zM249 214h175l-90 175z" />
<glyph unicode="&#xe4;" horiz-adv-x="694" d="M435 610q-25 0 -43.5 19t-18.5 45t18.5 44.5t44.5 18.5t45 -18.5t19 -44.5q0 -27 -19 -45.5t-46 -18.5zM242 610q-26 0 -44.5 19t-18.5 44q0 26 18.5 45t44.5 19q27 0 45.5 -19t18.5 -46q0 -25 -19 -43.5t-45 -18.5zM3 0v13q18 3 27.5 12t21.5 33l199 404q12 24 12 40 q0 20 -28 31v14h213v-14q-27 -10 -27 -33q0 -16 12 -39l208 -393q17 -32 26.5 -41.5t29.5 -13.5v-13h-223v13q32 6 32 30q0 14 -13 38l-30 56h-252l-28 -59q-11 -25 -11 -34q0 -23 32 -31v-13h-201zM249 214h175l-90 175z" />
<glyph unicode="&#xe5;" horiz-adv-x="694" d="M343 588q-45 0 -78 27.5t-33 65.5t32.5 64.5t78.5 26.5q47 0 79.5 -26.5t32.5 -65.5q0 -38 -32.5 -65t-79.5 -27zM344 639q20 0 34.5 12.5t14.5 28.5q0 17 -14 29t-36 12q-21 0 -35 -12t-14 -29t14.5 -29t35.5 -12zM3 0v13q18 3 27.5 12t21.5 33l199 404q12 24 12 40 q0 20 -28 31v14h213v-14q-27 -10 -27 -33q0 -16 12 -39l208 -393q17 -32 26.5 -41.5t29.5 -13.5v-13h-223v13q32 6 32 30q0 14 -13 38l-30 56h-252l-28 -59q-11 -25 -11 -34q0 -23 32 -31v-13h-201zM249 214h175l-90 175z" />
<glyph unicode="&#xe6;" horiz-adv-x="1020" d="M28 0v13q20 4 30 12t25 32l245 404q17 29 17 44q0 17 -28 28v14h611q28 0 37 31h13v-162h-13q-10 32 -37 32h-332v-120h206q29 0 37 31h13v-158h-13q-8 32 -37 32h-206v-134h347q27 0 37 32h13v-162h-13q-9 31 -37 31h-509v13q31 9 31 37v87h-198l-38 -63 q-14 -23 -14 -33q0 -22 28 -28v-13h-215zM314 214h151v234h-16z" />
<glyph unicode="&#xe7;" horiz-adv-x="697" d="M36 273q0 127 89.5 206t234.5 79q67 0 118 -15t119 -54q31 -18 39 -18q7 0 18 8l11 -8l-82 -120l-11 8q1 3 1 7q1 3 1 6q0 25 -66 54q-64 29 -126 29q-92 0 -152.5 -51.5t-60.5 -130.5t60.5 -130.5t152.5 -51.5q71 0 138 35q54 27 54 48q0 3 -1 6q0 4 -1 8l11 8l82 -120 l-11 -9q-12 9 -19 9t-38 -18q-68 -40 -118.5 -55t-117.5 -15q-145 0 -235 78.5t-90 206.5zM278 -109l26 48q6 11 8.5 12.5t10.5 1.5q62 0 95.5 -20t33.5 -57t-32 -59t-86 -22q-58 0 -98 14l11 23q27 -8 50 -8q31 0 49.5 11t18.5 30q0 14 -10.5 24t-24.5 10q-22 0 -37 -17z " />
<glyph unicode="&#xe8;" horiz-adv-x="642" d="M282 609v13h2q10 0 10 8q0 4 -3 8l-69 84q-9 12 -29 13v13h148v-13q-14 -2 -14 -10l1 -2q1 -3 1 -5l33 -78q5 -12 9.5 -15t16.5 -3v-13h-106zM48 0v13q31 10 31 37v447q0 15 -7 23t-24 14v13h494q28 0 37 31h13v-162h-13q-9 32 -37 32h-332v-120h206q28 0 37 31h13v-158 h-13q-10 32 -37 32h-206v-134h347q27 0 37 32h13v-162h-13q-10 31 -37 31h-509z" />
<glyph unicode="&#xe9;" horiz-adv-x="642" d="M280 609v13q12 0 16.5 3t9.5 15l32 78q2 6 2 7q0 8 -14 10v13h149v-13q-20 -1 -29 -13l-69 -84q-3 -3 -3 -8q0 -8 10 -8h2v-13h-106zM48 0v13q31 10 31 37v447q0 15 -7 23t-24 14v13h494q28 0 37 31h13v-162h-13q-9 32 -37 32h-332v-120h206q28 0 37 31h13v-158h-13 q-10 32 -37 32h-206v-134h347q27 0 37 32h13v-162h-13q-10 31 -37 31h-509z" />
<glyph unicode="&#xea;" horiz-adv-x="642" d="M172 608v13q12 1 17 4l7 6l75 84q6 6 6 12q0 8 -14 8h-3v13h155v-13q-15 -1 -15 -9q0 -6 8 -14l73 -81q8 -9 22 -10v-13h-140v13q15 1 15 7q0 2 -3 7l-5 5l-41 50l-45 -51q-5 -7 -5 -9q0 -8 15 -9v-13h-122zM48 0v13q31 10 31 37v447q0 15 -7 23t-24 14v13h494 q28 0 37 31h13v-162h-13q-9 32 -37 32h-332v-120h206q28 0 37 31h13v-158h-13q-10 32 -37 32h-206v-134h347q27 0 37 32h13v-162h-13q-10 31 -37 31h-509z" />
<glyph unicode="&#xeb;" horiz-adv-x="642" d="M433 610q-25 0 -43.5 19t-18.5 45t18.5 44.5t44.5 18.5t45 -18.5t19 -44.5q0 -27 -19 -45.5t-46 -18.5zM240 610q-26 0 -44.5 19t-18.5 44q0 26 18.5 45t44.5 19q27 0 45.5 -19t18.5 -46q0 -25 -19 -43.5t-45 -18.5zM48 0v13q31 10 31 37v447q0 15 -7 23t-24 14v13h494 q28 0 37 31h13v-162h-13q-9 32 -37 32h-332v-120h206q28 0 37 31h13v-158h-13q-10 32 -37 32h-206v-134h347q27 0 37 32h13v-162h-13q-10 31 -37 31h-509z" />
<glyph unicode="&#xec;" horiz-adv-x="290" d="M93 609v13h2q10 0 10 8q0 4 -3 8l-69 84q-9 12 -29 13v13h148v-13q-14 -2 -14 -10l1 -2q1 -3 1 -5l33 -78q5 -12 10 -15t16 -3v-13h-106zM48 0v13q31 10 31 37v447q0 28 -31 36v14h193v-14q-31 -8 -31 -36v-447q0 -28 31 -37v-13h-193z" />
<glyph unicode="&#xed;" horiz-adv-x="290" d="M97 609v13q11 0 16 3t10 15l32 78q2 6 2 7q0 8 -14 10v13h149v-13q-20 -1 -29 -13l-69 -84q-3 -3 -3 -8q0 -8 10 -8h2v-13h-106zM48 0v13q31 10 31 37v447q0 27 -31 36v14h193v-14q-31 -8 -31 -36v-447q0 -28 31 -37v-13h-193z" />
<glyph unicode="&#xee;" horiz-adv-x="289" d="M-1 608v13q9 1 12 1.5t8 4.5t13 15l56 73q6 8 6 12q0 8 -14 8h-3v13h155v-13q-15 -1 -15 -9q0 -3 8 -14l63 -81q9 -10 22 -10v-13h-136v13q15 1 15 7q0 4 -3 7l-5 5l-34 54l-39 -55q-5 -7 -5 -9q0 -8 15 -9v-13h-119zM48 0v13q31 10 31 37v447q0 28 -31 36v14h193v-14 q-31 -8 -31 -36v-447q0 -28 31 -37v-13h-193z" />
<glyph unicode="&#xef;" horiz-adv-x="289" d="M227 610q-25 0 -43.5 19t-18.5 45t18.5 44.5t44.5 18.5t45 -18.5t19 -44.5q0 -27 -19 -45.5t-46 -18.5zM67 610q-25 0 -44 19t-19 44q0 26 18.5 45t44.5 19q27 0 45.5 -19t18.5 -46q0 -25 -19 -43.5t-45 -18.5zM48 0v13q31 10 31 37v447q0 28 -31 36v14h193v-14 q-31 -8 -31 -36v-447q0 -28 31 -37v-13h-193z" />
<glyph unicode="&#xf0;" horiz-adv-x="714" d="M59 0v13q31 10 31 37v196h-26q-27 0 -35 -32h-16v146h16q8 -31 35 -31h26v168q0 28 -31 37l-1 13h321q145 0 216 -61q84 -72 84 -212t-84 -213q-70 -61 -216 -61h-320zM221 99h139q97 0 141 44q45 47 45 131t-45 130q-44 44 -141 44h-139v-119h102q27 0 35 31h16v-146 h-16q-8 32 -35 32h-102v-147z" />
<glyph unicode="&#xf1;" horiz-adv-x="744" d="M292 611l-73 68l7 8q11 -4 17 -4q9 0 18 11q29 39 74 39q18 0 32 -6l73 -29q12 -5 25 -5q10 0 18.5 8t8.5 16q0 6 -8 17l10 7l71 -65l-8 -10q-13 4 -18 4q-6 0 -13 -8q-32 -45 -69 -45q-20 0 -42 9l-72 28q-15 3 -21 3q-10 0 -19.5 -8t-9.5 -16q0 -6 8 -15zM48 0v13 q31 10 31 37v447q0 27 -31 36v14h210v-14q-22 -4 -22 -19q0 -11 16 -27l293 -291v301q0 28 -31 36v14h182v-14q-32 -8 -32 -36v-447q0 -28 31 -37v-13h-195v13q21 4 21 18q0 11 -32 43l-291 286v-310q0 -28 31 -37v-13h-181z" />
<glyph unicode="&#xf2;" d="M308 609v13h2q10 0 10 8q0 4 -3 8l-69 84q-9 12 -29 13v13h148v-13q-14 -2 -14 -10l1 -2q1 -3 1 -5l33 -78q5 -12 9.5 -15t16.5 -3v-13h-106zM36 273q0 127 89 206t231 79q145 0 233 -79.5t88 -209.5q0 -124 -89.5 -202.5t-230.5 -78.5q-143 0 -232 79t-89 206zM169 273 q0 -79 53 -130.5t135 -51.5q80 0 133.5 51.5t53.5 128.5q0 81 -52.5 132.5t-135.5 51.5q-81 0 -134 -51.5t-53 -130.5z" />
<glyph unicode="&#xf3;" d="M313 609v13q11 0 16 3t10 15l32 78q2 6 2 7q0 8 -14 10v13h149v-13q-20 -1 -29 -13l-69 -84q-3 -3 -3 -8q0 -8 10 -8h2v-13h-106zM36 273q0 127 89 206t231 79q145 0 233 -79.5t88 -209.5q0 -124 -89.5 -202.5t-230.5 -78.5q-143 0 -232 79t-89 206zM169 273 q0 -79 53 -130.5t135 -51.5q80 0 133.5 51.5t53.5 128.5q0 81 -52.5 132.5t-135.5 51.5q-81 0 -134 -51.5t-53 -130.5z" />
<glyph unicode="&#xf4;" d="M201 608v13q12 1 17 4l7 6l75 84q6 6 6 12q0 8 -14 8h-3v13h155v-13q-15 -1 -15 -9q0 -6 8 -14l73 -81q8 -9 22 -10v-13h-140v13q15 1 15 7q0 2 -3 7l-5 5l-41 50l-45 -51q-5 -7 -5 -9q0 -8 15 -9v-13h-122zM36 273q0 127 89 206t231 79q145 0 233 -79.5t88 -209.5 q0 -124 -89.5 -202.5t-230.5 -78.5q-143 0 -232 79t-89 206zM169 273q0 -79 53 -130.5t135 -51.5q80 0 133.5 51.5t53.5 128.5q0 81 -52.5 132.5t-135.5 51.5q-81 0 -134 -51.5t-53 -130.5z" />
<glyph unicode="&#xf5;" d="M274 611l-73 68l7 8q11 -4 17 -4q9 0 18 11q29 39 74 39q18 0 32 -6l73 -29q12 -5 25 -5q10 0 18.5 8t8.5 16q0 6 -8 17l10 7l71 -65l-8 -10q-13 4 -18 4q-6 0 -13 -8q-32 -45 -69 -45q-20 0 -42 9l-72 28q-15 3 -21 3q-10 0 -19.5 -8t-9.5 -16q0 -6 8 -15zM36 273 q0 127 89 206t231 79q145 0 233 -79.5t88 -209.5q0 -124 -89.5 -202.5t-230.5 -78.5q-143 0 -232 79t-89 206zM169 273q0 -79 53 -130.5t135 -51.5q80 0 133.5 51.5t53.5 128.5q0 81 -52.5 132.5t-135.5 51.5q-81 0 -134 -51.5t-53 -130.5z" />
<glyph unicode="&#xf6;" d="M459 610q-25 0 -43.5 19t-18.5 45t18.5 44.5t44.5 18.5t45 -18.5t19 -44.5q0 -27 -19 -45.5t-46 -18.5zM266 610q-26 0 -44.5 19t-18.5 44q0 26 18.5 45t44.5 19q27 0 45.5 -19t18.5 -46q0 -25 -19 -43.5t-45 -18.5zM36 273q0 127 89 206t231 79q145 0 233 -79.5 t88 -209.5q0 -124 -89.5 -202.5t-230.5 -78.5q-143 0 -232 79t-89 206zM169 273q0 -79 53 -130.5t135 -51.5q80 0 133.5 51.5t53.5 128.5q0 81 -52.5 132.5t-135.5 51.5q-81 0 -134 -51.5t-53 -130.5z" />
<glyph unicode="&#xf7;" horiz-adv-x="767" d="M383 458q-33 0 -56.5 23.5t-23.5 56.5t23.5 56.5t56.5 23.5q34 0 57 -23.5t23 -57.5q0 -32 -24 -55.5t-56 -23.5zM114 254v159h15q7 -32 32 -32h444q13 0 20 7t12 25h15v-159h-15q-7 31 -32 31h-444q-25 0 -33 -31h-14zM303 128q0 33 23.5 56.5t56.5 23.5q34 0 57 -23.5 t23 -57.5q0 -32 -24 -55.5t-56 -23.5q-33 0 -56.5 23.5t-23.5 56.5z" />
<glyph unicode="&#xf8;" d="M44 -48q26 6 40 17.5t43 51.5l20 28q-59 49 -85 101t-26 123q0 128 89 207t232 79q71 0 145 -27l8 12q8 10 8 23q0 9 -8 17t-21 11v12h180v-12q-3 1 -5 1q-17 1 -32 -11.5t-45 -54.5l-23 -32q113 -79 113 -225q0 -127 -89 -206t-232 -79q-72 0 -142 25l-8 -10 q-11 -17 -11 -25q0 -21 29 -26v-12h-180v12zM218 146l216 294q-32 15 -74 15q-84 0 -137.5 -50.5t-53.5 -130.5q0 -73 49 -128zM280 106q40 -15 75 -15q83 0 136 51.5t53 130.5q0 75 -50 128z" />
<glyph unicode="&#xf9;" horiz-adv-x="690" d="M300 609v13h2q10 0 10 8q0 4 -3 8l-69 84q-9 12 -29 13v13h148v-13q-14 -2 -14 -10l1 -2q1 -3 1 -5l33 -78q5 -12 9.5 -15t16.5 -3v-13h-106zM128 42q-60 47 -60 165v290q0 27 -31 36v14h194v-14q-32 -8 -32 -36v-263q0 -46 8 -70.5t28 -40.5q40 -32 115 -32q76 0 116 32 q20 16 27.5 40.5t7.5 70.5v263q0 28 -31 36v14h183v-14q-32 -8 -32 -36v-290q0 -125 -70 -172t-206 -47q-150 0 -217 54z" />
<glyph unicode="&#xfa;" horiz-adv-x="690" d="M304 609v13q12 0 16.5 3t9.5 15l32 78q2 6 2 7q0 8 -14 10v13h149v-13q-20 -1 -29 -13l-69 -84q-3 -3 -3 -8q0 -8 10 -8h2v-13h-106zM128 42q-60 47 -60 165v290q0 27 -31 36v14h194v-14q-32 -8 -32 -36v-263q0 -46 8 -70.5t28 -40.5q40 -32 115 -32q76 0 116 32 q20 16 27.5 40.5t7.5 70.5v263q0 28 -31 36v14h183v-14q-32 -8 -32 -36v-290q0 -125 -70 -172t-206 -47q-150 0 -217 54z" />
<glyph unicode="&#xfb;" horiz-adv-x="690" d="M203 608v13q12 1 17 4l7 6l75 84q6 6 6 12q0 8 -14 8h-3v13h155v-13q-15 -1 -15 -9q0 -6 8 -14l73 -81q8 -9 22 -10v-13h-140v13q15 1 15 7q0 2 -3 7l-5 5l-41 50l-45 -51q-5 -7 -5 -9q0 -8 15 -9v-13h-122zM128 42q-60 47 -60 165v290q0 27 -31 36v14h194v-14 q-32 -8 -32 -36v-263q0 -46 8 -70.5t28 -40.5q40 -32 115 -32q76 0 116 32q20 16 27.5 40.5t7.5 70.5v263q0 28 -31 36v14h183v-14q-32 -8 -32 -36v-290q0 -125 -70 -172t-206 -47q-150 0 -217 54z" />
<glyph unicode="&#xfc;" horiz-adv-x="690" d="M457 610q-25 0 -43.5 19t-18.5 45t18.5 44.5t44.5 18.5t45 -18.5t19 -44.5q0 -27 -19 -45.5t-46 -18.5zM264 610q-26 0 -44.5 19t-18.5 44q0 26 18.5 45t44.5 19q27 0 45.5 -19t18.5 -46q0 -25 -19 -43.5t-45 -18.5zM128 42q-60 47 -60 165v290q0 27 -31 36v14h194v-14 q-32 -8 -32 -36v-263q0 -46 8 -70.5t28 -40.5q40 -32 115 -32q76 0 116 32q20 16 27.5 40.5t7.5 70.5v263q0 28 -31 36v14h183v-14q-32 -8 -32 -36v-290q0 -125 -70 -172t-206 -47q-150 0 -217 54z" />
<glyph unicode="&#xfd;" horiz-adv-x="599" d="M262 609v13q12 0 16.5 3t9.5 15l32 78q2 6 2 7q0 8 -14 10v13h149v-13q-20 -1 -29 -13l-69 -84q-3 -3 -3 -8q0 -8 10 -8h2v-13h-106zM203 0v13q31 9 31 37v190l-162 223q-29 39 -44.5 52.5t-38.5 18.5v13h246v-14q-31 -8 -31 -29q0 -12 23 -43l79 -111l78 111 q23 33 23 43q0 21 -32 29v14h234v-13q-23 -5 -38 -18t-44 -53l-162 -223v-190q0 -28 31 -37v-13h-193z" />
<glyph unicode="&#xfe;" horiz-adv-x="605" d="M48 0v13q31 10 31 37v447q0 27 -31 36v14h193v-14q-31 -8 -31 -36v-37h144q106 0 160 -32q66 -39 66 -129q0 -161 -226 -161h-144v-88q0 -28 31 -37v-13h-193zM210 237h140q51 0 71 10q29 15 29 52t-29 52q-20 10 -71 10h-140v-124z" />
<glyph unicode="&#xff;" horiz-adv-x="599" d="M408 610q-25 0 -43.5 19t-18.5 45t19 44.5t44 18.5q26 0 45 -18.5t19 -44.5q0 -27 -19 -45.5t-46 -18.5zM215 610q-25 0 -44 19t-19 44q0 26 18.5 45t44.5 19q27 0 45.5 -19t18.5 -46q0 -25 -19 -43.5t-45 -18.5zM203 0v13q31 9 31 37v190l-162 223q-29 39 -44.5 52.5 t-38.5 18.5v13h246v-14q-31 -8 -31 -29q0 -12 23 -43l79 -111l78 111q23 33 23 43q0 21 -32 29v14h234v-13q-23 -5 -38 -18t-44 -53l-162 -223v-190q0 -28 31 -37v-13h-193z" />
<glyph unicode="&#x152;" horiz-adv-x="1189" d="M45 333q0 149 105.5 243.5t271.5 94.5q31 0 73 -3q12 -1 26 -1h562q27 0 35 31h16v-172h-16q-8 31 -35 31h-417v-159h271q15 0 23 7t12 25h16v-169h-16q-8 31 -35 31h-271v-182h429q27 0 35 31h16v-172h-16q-8 31 -35 31h-574q-14 0 -26 -1q-54 -3 -76 -3 q-163 0 -268.5 95t-105.5 242zM194 333q0 -106 65.5 -167.5t178.5 -61.5q32 0 83 6v447q-47 6 -81 6q-119 0 -181 -62q-65 -65 -65 -168z" />
<glyph unicode="&#x153;" horiz-adv-x="980" d="M135 58q-50 38 -78.5 95.5t-28.5 120.5q0 62 29 120t79 95q82 62 206 62q19 0 60 -3q7 -1 22 -1h465q28 0 37 31h13v-162h-13q-10 32 -37 32h-333v-120h205q27 0 37 31h13v-158h-13q-8 32 -37 32h-205v-134h347q26 0 36 32h13v-162h-13q-8 31 -36 31h-479q-8 0 -45 -3 q-12 -1 -37 -1q-127 0 -207 62zM219 140q50 -46 137 -46q36 0 69 5v349q-30 5 -69 5q-87 0 -137 -46q-58 -50 -58 -133q0 -82 58 -134z" />
<glyph unicode="&#x178;" d="M465 723q-25 0 -43.5 19t-18.5 45q0 25 18.5 44t44.5 19t45 -18.5t19 -44.5q0 -27 -19 -45.5t-46 -18.5zM272 723q-26 0 -44.5 18.5t-18.5 44.5t18.5 45t44.5 19q27 0 45.5 -19t18.5 -46q0 -25 -19 -43.5t-45 -18.5zM252 0v16q32 8 32 35v228l-215 303q-27 39 -44 53.5 t-38 15.5v16h264v-16q-33 -5 -33 -30q0 -8 20 -39l120 -179l124 179q20 29 20 40t-9 19t-24 10v16h258v-16q-21 -1 -37.5 -15.5t-44.5 -53.5l-216 -303v-228q0 -27 32 -35v-16h-209z" />
<glyph unicode="&#x2c6;" horiz-adv-x="500" d="M84 608v13q12 1 17 4l7 6l75 84q6 6 6 12q0 8 -14 8h-3v13h155v-13q-15 -1 -15 -9q0 -6 8 -14l73 -81q8 -9 22 -10v-13h-140v13q15 1 15 7q0 2 -3 7l-5 5l-41 50l-45 -51q-5 -7 -5 -9q0 -8 15 -9v-13h-122z" />
<glyph unicode="&#x2dc;" horiz-adv-x="500" d="M150 611l-73 68l7 8q11 -4 17 -4q9 0 18 11q29 39 74 39q18 0 32 -6l73 -29q12 -5 25 -5q10 0 18.5 8t8.5 16q0 6 -8 17l10 7l71 -65l-8 -10q-13 4 -18 4q-6 0 -13 -8q-32 -45 -69 -45q-20 0 -42 9l-72 28q-15 3 -21 3q-10 0 -19.5 -8t-9.5 -16q0 -6 8 -15z" />
<glyph unicode="&#x2000;" horiz-adv-x="442" />
<glyph unicode="&#x2001;" horiz-adv-x="885" />
<glyph unicode="&#x2002;" horiz-adv-x="442" />
<glyph unicode="&#x2003;" horiz-adv-x="885" />
<glyph unicode="&#x2004;" horiz-adv-x="295" />
<glyph unicode="&#x2005;" horiz-adv-x="221" />
<glyph unicode="&#x2006;" horiz-adv-x="147" />
<glyph unicode="&#x2007;" horiz-adv-x="147" />
<glyph unicode="&#x2008;" horiz-adv-x="110" />
<glyph unicode="&#x2009;" horiz-adv-x="177" />
<glyph unicode="&#x200a;" horiz-adv-x="49" />
<glyph unicode="&#x2010;" horiz-adv-x="222" d="M0 189v169h16q8 -32 35 -32h120q15 0 23 7t12 25h16v-169h-16q-8 31 -35 31h-120q-27 0 -35 -31h-16z" />
<glyph unicode="&#x2011;" horiz-adv-x="222" d="M0 189v169h16q8 -32 35 -32h120q15 0 23 7t12 25h16v-169h-16q-8 31 -35 31h-120q-27 0 -35 -31h-16z" />
<glyph unicode="&#x2013;" horiz-adv-x="770" d="M43 190v166h16q8 -31 35 -31h583q27 0 35 31h16v-166h-16q-8 32 -35 32h-583q-27 0 -35 -32h-16z" />
<glyph unicode="&#x2014;" horiz-adv-x="665" d="M0 190v166h16q8 -31 35 -31h563q27 0 35 31h16v-166h-16q-8 32 -35 32h-563q-27 0 -35 -32h-16z" />
<glyph unicode="&#x2018;" horiz-adv-x="307" d="M161 377q-40 0 -64 31.5t-24 82.5q0 107 113 188l24 -32q-72 -45 -83 -116q23 6 35 6q32 0 51.5 -22.5t19.5 -58.5q0 -35 -20 -57t-52 -22z" />
<glyph unicode="&#x2019;" horiz-adv-x="307" d="M120 377l-24 31q39 25 57.5 51t25.5 65q-24 -5 -35 -5q-32 0 -51.5 22.5t-19.5 58.5q0 35 20 57t52 22q40 0 64 -31.5t24 -82.5q0 -108 -113 -188z" />
<glyph unicode="&#x201a;" horiz-adv-x="307" d="M73 69q0 35 20 57t52 22q40 0 64 -31.5t24 -82.5q0 -107 -113 -187l-24 31q39 25 57.5 51t25.5 65q-23 -6 -35 -6q-32 0 -51.5 22.5t-19.5 58.5z" />
<glyph unicode="&#x201c;" horiz-adv-x="540" d="M394 377q-40 0 -64 31.5t-24 82.5q0 107 114 188l23 -32q-71 -44 -82 -116q22 6 34 6q32 0 51.5 -22.5t19.5 -58.5q0 -35 -20 -57t-52 -22zM161 377q-40 0 -64 31.5t-24 82.5q0 107 113 188l24 -32q-72 -45 -83 -116q23 6 35 6q32 0 51.5 -22.5t19.5 -58.5q0 -35 -20 -57 t-52 -22z" />
<glyph unicode="&#x201d;" horiz-adv-x="540" d="M353 377l-24 31q39 25 58 51.5t25 64.5q-24 -5 -35 -5q-32 0 -51.5 22.5t-19.5 58.5q0 35 20 57t52 22q40 0 64 -31.5t24 -82.5q0 -108 -113 -188zM120 377l-24 31q39 25 57.5 51t25.5 65q-24 -5 -35 -5q-32 0 -51.5 22.5t-19.5 58.5q0 35 20 57t52 22q40 0 64 -31.5 t24 -82.5q0 -108 -113 -188z" />
<glyph unicode="&#x201e;" horiz-adv-x="540" d="M306 69q0 35 20 57t52 22q40 0 64 -31.5t24 -82.5q0 -107 -113 -187l-24 31q39 25 58 51.5t25 64.5q-23 -6 -35 -6q-32 0 -51.5 22.5t-19.5 58.5zM73 69q0 35 20 57t52 22q40 0 64 -31.5t24 -82.5q0 -107 -113 -187l-24 31q39 25 57.5 51t25.5 65q-23 -6 -35 -6 q-32 0 -51.5 22.5t-19.5 58.5z" />
<glyph unicode="&#x2022;" horiz-adv-x="667" d="M335 200q-58 0 -98.5 40.5t-40.5 97.5q0 58 40.5 98.5t99.5 40.5q56 0 96.5 -41t40.5 -98t-40.5 -97.5t-97.5 -40.5z" />
<glyph unicode="&#x2026;" horiz-adv-x="920" d="M686 68q0 33 23.5 56.5t56.5 23.5q34 0 57 -23.5t23 -57.5q0 -32 -24 -55.5t-56 -23.5q-33 0 -56.5 23.5t-23.5 56.5zM380 68q0 33 23.5 56.5t56.5 23.5q34 0 57 -23.5t23 -57.5q0 -32 -24 -55.5t-56 -23.5q-33 0 -56.5 23.5t-23.5 56.5zM73 68q0 33 23.5 56.5t56.5 23.5 q34 0 57 -23.5t23 -57.5q0 -32 -24 -55.5t-56 -23.5q-33 0 -56.5 23.5t-23.5 56.5z" />
<glyph unicode="&#x202f;" horiz-adv-x="177" />
<glyph unicode="&#x2039;" horiz-adv-x="312" d="M155 87l-95 197l95 196h84l-96 -196l96 -197h-84z" />
<glyph unicode="&#x203a;" horiz-adv-x="312" d="M73 87l96 197l-96 196h84l95 -196l-95 -197h-84z" />
<glyph unicode="&#x205f;" horiz-adv-x="221" />
<glyph unicode="&#x20ac;" horiz-adv-x="941" d="M41 210l40 94h65q-1 11 -1 29q0 13 1 23h-105l40 94h83q41 111 137 170t237 59q130 0 244 -64q18 -9 59 -33q16 -9 23 -9q9 0 23 13l12 -9l-92 -139l-13 9v13q0 14 -12 26.5t-44 30.5q-86 49 -182 49q-162 0 -231 -116h348l-40 -94h-338q-1 -11 -1 -24q0 -17 2 -28h316 l-40 -94h-243q70 -109 227 -109q95 0 183 49q56 31 56 56q0 7 -1 14l13 9l92 -139l-12 -9q-13 13 -22 13t-66 -33q-69 -40 -128.5 -56.5t-133.5 -16.5q-137 0 -233.5 57.5t-136.5 164.5h-126z" />
<glyph unicode="&#x2122;" horiz-adv-x="1017" d="M142 287v15q19 4 19 17v280h-125q-15 0 -19 -18h-16v103h16q5 -17 19 -17h347q14 0 19 17h16v-103h-16q-4 18 -19 18h-125v-280q0 -13 19 -17v-15h-135zM452 287v15q20 4 20 17v316q0 13 -19 17v15h165v-15q-14 -3 -14 -12q0 -3 4 -11l110 -183l111 180q7 12 7 16 q0 10 -15 10v15h162v-15q-19 -4 -19 -17v-316q0 -13 20 -17v-15h-136v15q19 4 19 17v218l-157 -248l-149 247v-217q0 -13 20 -17v-15h-129z" />
</font>
</defs>
</svg>
